<svg id="Layer_1" data-name="Layer 1" xmlns="http://www.w3.org/2000/svg" viewBox="0 0 881.46 508.84"><title>artsAndCreativeExpression</title><path d="M348.73,592.67c-6.42.53-14.4,1.22-19.25-3.93-5.49-5.83-4-14.58-1.41-21.34,4.75-12.47,12.27-23.72,15.69-36.73s.24-24.62-2.79-37.39a390.19,390.19,0,0,1-7.79-43.73c-.83-6.91-2.47-13.56,3.16-18.87,4.84-4.56,11.26-7.84,17.24-10.65,11.77-5.55,24.34-9.14,36.3-14.23,12.12-5.15,22.92-13.49,35.55-17.41,6.31-2,12.91-2.78,19.24-4.71a171.51,171.51,0,0,0,17-6.46c13.8-5.91,27.79-12.76,43.06-13.47A63.59,63.59,0,0,1,546,376.84c1.54,1.17,3-1.44,1.51-2.59A66.44,66.44,0,0,0,512,360.84c-13.91-1-27.08,3.27-39.74,8.59-13.72,5.76-26.76,11.25-41.33,14.48-14.4,3.19-25.93,11.83-39.15,17.83-12.72,5.77-26.25,9.49-38.93,15.35-9.25,4.28-23.7,10.75-23.6,22.72.07,7.41,1.59,15.11,2.7,22.43q1.86,12.27,4.49,24.39c1.64,7.57,3.93,15,5.32,22.64a49.18,49.18,0,0,1-2.07,24.7c-2.71,8.19-6.75,15.85-10.46,23.62-3.08,6.46-6.51,13.36-6.45,20.7,0,5.14,1.89,10.43,5.93,13.76,5.58,4.59,13.31,4.18,20.07,3.62,1.91-.16,1.92-3.16,0-3Z" transform="translate(-9.07 -145.95)"/><path d="M551.74,449.79A160.68,160.68,0,0,1,502,488.67a157.28,157.28,0,0,1-31,11.67c-10.72,2.79-21.69,3.83-32.54,5.89a70,70,0,0,0-29.79,12.83c-8.83,6.61-16.81,14.47-24.48,22.36a322.17,322.17,0,0,0-22.88,26.24c-5.53,7.07-12.45,15.1-11.07,24.74,1.23,8.64,8.4,15.52,16.3,18.48,11.59,4.34,24.41.46,35.32-4,1.77-.71,1-3.62-.8-2.89-10.22,4.14-22.13,8-33.06,4.22-10.1-3.51-17.79-13.87-13.65-24.57,3.78-9.8,12.5-18.46,19.28-26.31s14-15.43,21.56-22.61c7.71-7.35,15.75-14.78,25.3-19.66,9.9-5.05,21-6.43,31.85-8a168,168,0,0,0,52.58-16.51,163.06,163.06,0,0,0,48.92-38.63c1.25-1.45-.86-3.58-2.12-2.12Z" transform="translate(-9.07 -145.95)"/><path d="M375.22,612.83c26.86,3.75,53.84,3.36,77-12.3,6.57-4.44,13-8.21,20.58-10.63s15.64-4.52,23.56-6.33a157.37,157.37,0,0,1,48-4c14.42,1.15,29.57,3,42.61-4.65a1.5,1.5,0,0,0-1.52-2.59c-15.88,9.35-35,3.82-52.31,3.67-19.08-.17-37.89,4.26-56.13,9.49a80.67,80.67,0,0,0-23.32,10.41c-7.55,5.05-14.87,9.61-23.65,12.27-17.45,5.27-36.16,4.23-54,1.73-1.89-.26-2.7,2.63-.8,2.9Z" transform="translate(-9.07 -145.95)"/><path d="M535.49,578.23a122.28,122.28,0,0,0,55.2,28.23c23.77,5.11,48.11,1.87,72.16,3.22,12,.67,24,3.64,36.1,2.36,11.51-1.22,22.38-5.38,33.48-8.44,23.81-6.55,48.62-8.76,73.26-8,28,.89,55.74,5.58,83,12.06,1.88.44,2.68-2.45.8-2.9-45.23-10.76-92.63-16.73-138.78-8.4-11.64,2.1-22.82,5.51-34.16,8.8a88.73,88.73,0,0,1-36.85,3.21,276.2,276.2,0,0,0-36-2c-12.15.1-24.34.52-36.46-.5a119.73,119.73,0,0,1-69.58-29.74c-1.44-1.28-3.57.84-2.12,2.12Z" transform="translate(-9.07 -145.95)"/><path d="M349.67,597.37c.46-1,.91-1.9,1.33-2.86a1.55,1.55,0,0,0-.54-2,1.5,1.5,0,0,0-2,.54c-.42,1-.87,1.91-1.33,2.85a1.53,1.53,0,0,0,.54,2,1.51,1.51,0,0,0,2.05-.53Z" transform="translate(-9.07 -145.95)"/><path d="M367.07,623.38c7,12,15.74,30.34,32.45,29.2,19-1.3,20.28-23.45,19.25-37.76-.14-1.91-3.14-1.93-3,0,.6,8.28,1.39,17.36-2.6,25-3.16,6-9.25,10.38-16.25,9.76-14.11-1.25-21.07-17-27.26-27.69a1.5,1.5,0,0,0-2.59,1.51Z" transform="translate(-9.07 -145.95)"/><path d="M422.93,614c11.69-.17,21.45,6.58,31.37,11.87,8.33,4.44,19.16,9.36,28.71,5.94,9.18-3.3,12.1-14.92,10.83-23.62a29.26,29.26,0,0,0-15-21.6c-1.7-.91-3.21,1.68-1.51,2.59a26.37,26.37,0,0,1,13.85,23.06c0,5.15-1.62,11.11-5.62,14.63-4.63,4.08-11.76,3.29-17.29,1.74-15.77-4.42-28.16-17.85-45.32-17.61-1.93,0-1.94,3,0,3Z" transform="translate(-9.07 -145.95)"/><path d="M491.55,600.06a17.63,17.63,0,0,0,5.13-17.41c-.47-1.87-3.37-1.07-2.89.8a14.57,14.57,0,0,1-4.36,14.49c-1.42,1.32.71,3.43,2.12,2.12Z" transform="translate(-9.07 -145.95)"/><path d="M366.78,610.71l-52.31,39.61c-1.52,1.15,0,3.76,1.52,2.59L368.3,613.3c1.52-1.15,0-3.75-1.52-2.59Z" transform="translate(-9.07 -145.95)"/><path d="M315.94,651.78q17.32-26.74,33.87-54c1-1.66-1.58-3.17-2.59-1.52q-16.55,27.23-33.87,54c-1.05,1.62,1.55,3.13,2.59,1.51Z" transform="translate(-9.07 -145.95)"/><path d="M324.35,636.24a10.66,10.66,0,0,0,3.48,3.94,1.51,1.51,0,0,0,2.05-.53,1.54,1.54,0,0,0-.53-2.06,7.5,7.5,0,0,1-2.41-2.86,1.5,1.5,0,0,0-2.59,1.51Z" transform="translate(-9.07 -145.95)"/><path d="M323,638.7a37.77,37.77,0,0,1-5.19,6.43,1.5,1.5,0,0,0,2.13,2.12,18.76,18.76,0,0,0,3-3.77c.36-.58,1.61-4.12,2.43-3.87,1.85.57,2.64-2.33.8-2.89-2.07-.64-3.65.74-4.47,2.53a18.39,18.39,0,0,1-3.93,5.88l2.13,2.12a41.24,41.24,0,0,0,5.65-7c1-1.63-1.55-3.14-2.59-1.51Z" transform="translate(-9.07 -145.95)"/><path d="M369.11,621l-2.89-5.91c-.84-1.74-3.43-.22-2.59,1.51l2.89,5.91c.85,1.73,3.44.22,2.59-1.51Z" transform="translate(-9.07 -145.95)"/><path d="M404.67,513.07c3.06-11.83,6.4-25.36.66-36.93-5.36-10.79-15.62-18-22.82-27.38-1.15-1.51-3.76,0-2.59,1.51,6.31,8.26,14.85,14.73,20.55,23.45,7.78,11.9,4.64,25.7,1.31,38.56a1.5,1.5,0,0,0,2.89.79Z" transform="translate(-9.07 -145.95)"/><path d="M407.1,477a52.89,52.89,0,0,0,48.71-39.41,1.5,1.5,0,0,0-2.89-.79A49.85,49.85,0,0,1,407.1,474c-1.92.1-1.93,3.1,0,3Z" transform="translate(-9.07 -145.95)"/><path d="M406.62,473.21h-1.89a1.5,1.5,0,0,0,0,3h1.89a1.5,1.5,0,0,0,0-3Z" transform="translate(-9.07 -145.95)"/><path d="M442.12,464.22l23.63,1.32c1.93.11,1.93-2.89,0-3l-23.63-1.32c-1.93-.11-1.93,2.89,0,3Z" transform="translate(-9.07 -145.95)"/><path d="M491.25,401.85c-.24,3.83.61,7.93-.31,11.7s-3.5,7.75-5,11.44a123.32,123.32,0,0,0-6.6,20.89c-.42,1.88,2.47,2.68,2.89.8a119.63,119.63,0,0,1,8.21-24.5c1.45-3.12,3.24-6.07,3.74-9.53s-.11-7.21.11-10.8c.12-1.93-2.88-1.92-3,0Z" transform="translate(-9.07 -145.95)"/><path d="M432.3,509.28,569.59,357.65,706.87,206l38.84-42.9c5.23-5.77,12.44-16.08,21.52-13.87,10.95,2.68,11.46,17.43,1.21,21.41-1.78.69-1,3.59.8,2.89,10-3.89,13.36-16.94,4.69-24.17-11.66-9.72-22.94,3.45-30.34,11.62l-75.67,83.58-152,167.9-85.72,94.67c-1.29,1.43.82,3.55,2.12,2.12Z" transform="translate(-9.07 -145.95)"/><path d="M473.76,501.31,584.7,377.82c1.29-1.43-.82-3.56-2.12-2.12L471.64,499.19c-1.29,1.43.82,3.56,2.12,2.12Z" transform="translate(-9.07 -145.95)"/><path d="M585.47,377.1c12.5-10.94,23-23.79,33.33-36.71a427.6,427.6,0,0,1,34.9-39.13c26.14-25.52,48.47-54.13,72.32-81.69,13.62-15.74,28-30.79,42.49-45.73,1.35-1.39-.77-3.51-2.12-2.12-25.59,26.37-49.37,54-73,82.07-11.6,13.8-23.49,27.34-36.33,40S632.19,319,621,332.91c-11.81,14.68-23.4,29.61-37.63,42.06-1.45,1.28.68,3.39,2.12,2.13Z" transform="translate(-9.07 -145.95)"/><path d="M747.82,161.49a49.93,49.93,0,0,1,17.45,12.19c1.32,1.41,3.43-.71,2.12-2.13a53.26,53.26,0,0,0-18.77-13c-1.78-.74-2.56,2.16-.8,2.89Z" transform="translate(-9.07 -145.95)"/><path d="M736.68,172.14c3.43-.37,6.49,2.62,9.14,4.48s6.46,3.7,7.48,7c.57,1.83,3.47,1.05,2.89-.8-1.2-3.88-4.67-5.84-7.83-8.05-3.44-2.42-7.17-6.1-11.68-5.61-1.9.2-1.92,3.2,0,3Z" transform="translate(-9.07 -145.95)"/><path d="M725.27,186.29c4.09-1,6.62,3.33,9.41,5.48,1.87,1.44,4.62,2.39,5.42,4.81.61,1.82,3.51,1,2.9-.8-1.26-3.78-5.09-5-7.84-7.54-3.19-2.88-6-6-10.69-4.84-1.88.45-1.08,3.35.8,2.89Z" transform="translate(-9.07 -145.95)"/><path d="M714.63,196.15a103.82,103.82,0,0,1,16.88,12c1.44,1.26,3.57-.85,2.12-2.12a108.3,108.3,0,0,0-17.48-12.52,1.5,1.5,0,0,0-1.52,2.59Z" transform="translate(-9.07 -145.95)"/><path d="M371.08,562.13c3.53-1.71,9.15-4.12,12.94-2.42,3.61,1.61,6.24,6.73,8.46,10a123.71,123.71,0,0,1,10.82,19.67c.78,1.76,3.37.23,2.59-1.52a124.12,124.12,0,0,0-16.17-27c-2.11-2.66-3.53-4.82-7.1-4.87-4.5-.06-9.06,1.55-13.05,3.49-1.74.84-.22,3.43,1.51,2.59Z" transform="translate(-9.07 -145.95)"/><path d="M416.64,544.93c0,4,1.69,7.16,3.87,10.41,3,4.44,6,8.8,9.06,13.2,1.09,1.58,3.69.08,2.6-1.51l-7.23-10.52c-2.45-3.56-5.28-7-5.3-11.58a1.5,1.5,0,0,0-3,0Z" transform="translate(-9.07 -145.95)"/><path d="M438,523c10.6,9.43,10.83,23.93,10.72,37.11a1.5,1.5,0,0,0,3,0c.12-14-.39-29.26-11.6-39.23-1.44-1.28-3.57.83-2.12,2.12Z" transform="translate(-9.07 -145.95)"/><path d="M429.89,569.07a45.76,45.76,0,0,1,3.77,7.82c.67,1.8,3.57,1,2.9-.79a50.69,50.69,0,0,0-4.08-8.54,1.5,1.5,0,0,0-2.59,1.51Z" transform="translate(-9.07 -145.95)"/><path d="M433,550a84.06,84.06,0,0,1,4,17.16c.23,1.89,3.23,1.92,3,0a87.91,87.91,0,0,0-4.11-18c-.62-1.82-3.52-1-2.89.8Z" transform="translate(-9.07 -145.95)"/><path d="M424.38,472.87c-.53,5.08,2.65,9.49,3.26,14.49.69,5.79.37,11.79.42,17.63a1.5,1.5,0,0,0,3,0c-.05-5.63.21-11.37-.33-17-.48-5.06-3.87-10.16-3.35-15.14.2-1.92-2.8-1.9-3,0Z" transform="translate(-9.07 -145.95)"/><path d="M426.24,474l14.39,11c1.54,1.17,3-1.44,1.52-2.59l-14.39-11c-1.54-1.17-3,1.44-1.52,2.59Z" transform="translate(-9.07 -145.95)"/><path d="M500,471.8a20.56,20.56,0,0,1,5.71,12.64c.15,1.91,3.16,1.92,3,0a24,24,0,0,0-6.58-14.76c-1.34-1.4-3.46.72-2.13,2.12Z" transform="translate(-9.07 -145.95)"/><path d="M502.11,472.31a100.7,100.7,0,0,0,24.57-2.86c1.88-.46,1.08-3.35-.8-2.89a97.57,97.57,0,0,1-23.77,2.75,1.5,1.5,0,0,0,0,3Z" transform="translate(-9.07 -145.95)"/><path d="M572.73,391.33l60.15,29c19.17,9.24,38.19,19.71,58.1,27.27,19.31,7.33,40,9.17,60.4,11.09,21,2,42.12,3.8,63.26,3.86,23.3.06,46.6-2.14,69.08-8.45a1.5,1.5,0,0,0-.79-2.89c-40.11,11.25-82.06,9-123.08,5.26-20.39-1.84-41.26-3.14-60.91-9.28-20.52-6.41-39.85-17.54-59.16-26.85l-65.53-31.6c-1.73-.84-3.26,1.75-1.52,2.59Z" transform="translate(-9.07 -145.95)"/><path d="M395,514.43c-6.65-4.42-14.31-5.94-22.18-6.45-1.93-.13-1.92,2.87,0,3,7.38.48,14.42,1.89,20.67,6,1.61,1.07,3.11-1.52,1.51-2.59Z" transform="translate(-9.07 -145.95)"/><path d="M401.65,511.75c-.41,1.4-4,5.12-5.55,3.55-1.36-1.38-3.48.74-2.12,2.12,3.46,3.52,9.48-1.22,10.57-4.87.55-1.85-2.34-2.64-2.9-.8Z" transform="translate(-9.07 -145.95)"/><path d="M396.55,517.33a31.8,31.8,0,0,1-.69,11.17c-.46,1.88,2.43,2.68,2.89.8a34.22,34.22,0,0,0,.8-12c-.21-1.9-3.21-1.92-3,0Z" transform="translate(-9.07 -145.95)"/><path d="M331.58,473.51c-1,3.41-3.77,5.82-5.07,9.11a22,22,0,0,0-1.32,5.94c-.66,6.72.37,13.74.9,20.44,1.22,15.23,2.83,30.42,4.44,45.62.21,1.9,3.21,1.92,3,0-1.54-14.53-3.08-29.07-4.28-43.63-.54-6.63-1.46-13.46-1.21-20.12a19.42,19.42,0,0,1,2.38-9.45c1.46-2.45,3.21-4.34,4.06-7.12.56-1.85-2.34-2.64-2.9-.79Z" transform="translate(-9.07 -145.95)"/><path d="M333.59,474.39a1.5,1.5,0,0,0,0-3,1.5,1.5,0,0,0,0,3Z" transform="translate(-9.07 -145.95)"/><path d="M334.14,473.29a1.5,1.5,0,0,0,0-3,1.5,1.5,0,0,0,0,3Z" transform="translate(-9.07 -145.95)"/><path d="M10.52,652.9q119.34,3,238.75,1.22,33.82-.52,67.64-1.42c1.92-.05,1.93-3.05,0-3q-119.36,3.16-238.75,1.53-33.82-.47-67.64-1.33c-1.93,0-1.93,3,0,3Z" transform="translate(-9.07 -145.95)"/><path d="M479.3,446.72a14.21,14.21,0,0,0,.3,4.69c.42,1.89,3.32,1.09,2.89-.79a11.62,11.62,0,0,1-.19-3.9,1.5,1.5,0,0,0-1.5-1.5,1.53,1.53,0,0,0-1.5,1.5Z" transform="translate(-9.07 -145.95)"/><path d="M440.9,464.36a1.5,1.5,0,0,0,0-3,1.5,1.5,0,0,0,0,3Z" transform="translate(-9.07 -145.95)"/><path d="M465.94,465.35h3a1.5,1.5,0,0,0,0-3h-3a1.5,1.5,0,0,0,0,3Z" transform="translate(-9.07 -145.95)"/></svg>