<svg id="Layer_1" data-name="Layer 1" xmlns="http://www.w3.org/2000/svg" viewBox="0 0 372.55 846.48"><title>immigrationAccess</title><path d="M302.87,198.79a48.36,48.36,0,0,0-12.2,25.9c-.42,3.18-1,7.19,2.19,9.14,3,1.81,6.89.62,10.07.14a55,55,0,0,1,21.07.91c3.49.85,7.79,3.13,11.27,1.15s5.46-8.08,7-11.6a40.26,40.26,0,0,0,3.73-15,1.53,1.53,0,0,0-1.5-1.5c-8-.73-16.82-.54-24.16-4-5.15-2.45-9.6-5.79-15.57-5.38-1.91.13-1.93,3.13,0,3,7.07-.49,12.53,5.08,19.06,6.91s13.86,1.88,20.67,2.5l-1.5-1.5A35.52,35.52,0,0,1,340,222.29c-.78,1.83-1.65,3.61-2.56,5.38-1.48,2.85-1.57,3.7-4.82,4.81s-4.49.31-7.78-.49c-1.78-.44-3.59-.77-5.41-1a57.58,57.58,0,0,0-9.55-.58,72.34,72.34,0,0,0-9.52,1c-3,.47-5.57,1.23-7-3.44-.52-1.71.47-4.32.85-6.1a45.4,45.4,0,0,1,10.8-21c1.29-1.43-.83-3.56-2.12-2.12Z" transform="translate(-228.17 -25.28)"/><path d="M320.14,160.61q-5.25,8.12-11.09,15.81a1.52,1.52,0,0,0,.54,2.05c5.9,3.71,12.89,4.95,19.33,7.44a116.56,116.56,0,0,1,21.95,11.38,1.51,1.51,0,0,0,2.2-.9c2.06-5.79,5.71-12.48,6.17-18.65.28-3.9-2.18-6.05-5.12-8.15a57.57,57.57,0,0,0-32.69-10.53c-1.93,0-1.93,3,0,3a54.83,54.83,0,0,1,26.89,7.33c4.74,2.77,8.93,5.75,7,11.73-1.57,4.87-3.43,9.66-5.14,14.48l2.2-.9a118.81,118.81,0,0,0-19.33-10.34c-7.15-3-15.37-4.34-21.95-8.48l.54,2.05q5.83-7.71,11.09-15.8c1.06-1.63-1.54-3.13-2.59-1.52Z" transform="translate(-228.17 -25.28)"/><path d="M344.61,120.93c-3.84,4.69-9.84,9.87-12,15.59-1.18,3-.33,5.31,2.68,6.41,6.25,2.29,12.41,3.7,18,7.52,3.88,2.64,7.55,9.21,12.55,9.68,4.07.39,5.68-3.44,7.55-6.35,2.9-4.5,4.34-8,1.42-13.05-2.7-4.65-7.4-7.75-11.81-10.6a93.19,93.19,0,0,0-16.88-8.76c-1.8-.69-2.58,2.21-.79,2.9A80.43,80.43,0,0,1,367.51,137a19.66,19.66,0,0,1,4.7,5.26c1.9,3.36.75,6.2-1,9.35-1.18,2.17-3.25,6.45-6.68,5-1.5-.63-2.8-2.72-3.91-3.88-4.71-4.89-10.75-8.12-17.09-10.41-1.66-.6-3.94-.86-5.45-1.73q-3.16-.09-2.24-4a31.41,31.41,0,0,1,2.25-3c2.82-3.56,5.76-7,8.64-10.55,1.21-1.48-.9-3.62-2.13-2.12Z" transform="translate(-228.17 -25.28)"/><path d="M357.8,107.64a181.16,181.16,0,0,0,14,13.25c3.59,3,8,7.63,12.73,8.76,4.34,1,6.71-1.37,9.37-4.41,2.85-3.26,6.79-6.13,4.95-10.76-2-5-6.53-9.64-9.91-13.75-2.85-3.46-6.25-8.35-11-9.41-4.15-.93-7.83,1.71-11.07,3.94-4,2.78-7.33,5.79-9.22,10.36-.73,1.78,2.17,2.56,2.9.8,1.68-4.09,4.93-6.6,8.48-9,4-2.75,7.94-4.58,12.18-.8a62.78,62.78,0,0,1,6.72,7.66c2.7,3.36,7.28,8,7.43,12.32.1,2.93-1.17,3.68-3,5.81-1.73,2-2.29,2.89-4.86,3.67-4.42,1.35-8.34-3-11.6-5.62a184.41,184.41,0,0,1-16.06-14.94c-1.34-1.39-3.46.73-2.12,2.12Z" transform="translate(-228.17 -25.28)"/><path d="M406.91,58.92a21.66,21.66,0,0,1-8.29,8.16c-2,1.13-4.22,1.89-6.05,3.32-3.08,2.4-4.25,5.89-2.5,9.53,2.5,5.2,8.43,8.73,11.84,13.38,2.54,3.47,4.45,10.22,9.39,10.93s10.43-4.48,14.1-7c3.36-2.35,7.06-4.59,6.78-9.21-.34-5.48-5.28-10.62-8.44-14.72a167.91,167.91,0,0,0-14-15.9,1.5,1.5,0,0,0-2.13,2.12,157.91,157.91,0,0,1,17.95,21.29c1.3,1.87,3.25,4.24,3.53,6.58.52,4.25-4.74,7-7.56,8.87a31.36,31.36,0,0,1-4.78,3.16q-3.5,2.75-8-.68c-.49-.9-1-1.8-1.5-2.69a53.61,53.61,0,0,0-6.19-8.47c-3-3.34-12.18-9.06-7.35-14.27,2.26-2.43,6.4-3.35,9.07-5.28a24.47,24.47,0,0,0,6.7-7.58,1.5,1.5,0,0,0-2.59-1.51Z" transform="translate(-228.17 -25.28)"/><path d="M467.51,27.06A151.84,151.84,0,0,0,424,42.43a1.52,1.52,0,0,0-.54,2c6,8.69,13.26,18.79,16.11,29,2,7.29,8,8.64,14.76,5.64,6-2.66,11.18-4.79,17.91-4.58a27.71,27.71,0,0,1,17.75,7c8.07,7.21,10.8,17.58,12.55,27.85a1.53,1.53,0,0,0,1.45,1.1c13.14,1,26.92,2.87,39.7-1.44,4.53-1.53,4.85-7.57,5.35-11.81A48.29,48.29,0,0,0,547.75,80,73.86,73.86,0,0,0,531,48.35C523.3,40,513.62,34.16,503.59,29c-1.71-.88-3.23,1.71-1.51,2.59,8.64,4.41,17.08,9.31,24.1,16.1,8.23,7.94,14,18.17,17.49,29a50.27,50.27,0,0,1,2.67,16.12,37,37,0,0,1-1.14,8.77c-.94,3.67-2,4.6-5.73,5.53-11.59,2.89-23.74,1.2-35.47.33l1.45,1.1c-1.51-8.82-3.69-17.67-9.32-24.84a31.27,31.27,0,0,0-25.52-12.22,33.65,33.65,0,0,0-13.7,2.86C454,75.79,451,78,447.63,77.69c-4.2-.33-4.53-2.89-5.42-6.07C441,67.14,438.27,63.09,436,59a184.43,184.43,0,0,0-10-16.06L425.53,45A149.17,149.17,0,0,1,468.31,30c1.89-.36,1.09-3.25-.8-2.89Z" transform="translate(-228.17 -25.28)"/><path d="M475.24,88.66c-3.66,2.9-7.95,7.84-12.75,8-2.65.11-5.33,0-8,0a26.58,26.58,0,0,0-4,0c-.61.09-4.76.81-2.34,1,3,.27,7.4-3.87,9.78-5.31a21,21,0,0,1,16.42-2.46c1.88.46,2.68-2.43.8-2.9a24.44,24.44,0,0,0-19.4,3.18c-1.75,1.08-3.41,2.35-5.24,3.31-1.48.77-3.33,1-4.72,1.83s-1.78,1.45-1.52,3a1.5,1.5,0,0,0,1.05,1c2.86.75,6.21.28,9.16.29,3.15,0,6.63.48,9.73-.05,4.95-.85,9.35-5.86,13.12-8.84,1.51-1.2-.62-3.31-2.12-2.13Z" transform="translate(-228.17 -25.28)"/><path d="M486.76,94.47c-3.14,1.94-10.81,6.46-9.91,11,.61,3.08,3.23,6.43,4.56,9.26,2,4.3,3.83,8.67,5.53,13.11a1.51,1.51,0,0,0,2.89,0,48,48,0,0,0-1-32.34c-.7-1.77-3.6-1-2.9.8A45.42,45.42,0,0,1,486.94,127h2.89c-2-5.24-4.18-10.42-6.61-15.48-1.1-2.28-3.51-5.22-2.8-7.51.89-2.9,5.5-5.53,7.86-7,1.64-1,.13-3.6-1.52-2.59Z" transform="translate(-228.17 -25.28)"/><path d="M455.51,116.45a57.63,57.63,0,0,0-8.3,8.3c-1.59,2-1.85,2.91-4.64,3.55-2.11.48-4.66.25-6.84.37q-13.19.71-26.39,1.35l1.45,1.9c.53-3.9,5.63-8.1,8.13-10.93,1.19-1.35,2.42-3.36,3.89-4.42,3.18-2.28,5.71-1.56,9.07-1.24l23.28,2.24c1.92.19,1.91-2.81,0-3l-15.83-1.52c-4.48-.43-10.48-2.07-14.91-1-3.83.89-6.48,5.58-8.92,8.33-2.78,3.17-7,6.43-7.61,10.79a1.53,1.53,0,0,0,1.45,1.9c10.43-.51,20.86-1,31.28-1.62,3.71-.22,5.16-.41,7.68-3.2,3.05-3.38,5.79-6.71,9.33-9.63,1.49-1.23-.64-3.34-2.12-2.12Z" transform="translate(-228.17 -25.28)"/><path d="M430.38,144.85c0,6.88-20.56,3.25-16.25,11.85,1.41,2.84,5.4,3.37,8.15,3.75,1.71.24,3.07-.29,3.05,1.25,0,1.9-3.33,1.27-4.79,1.38-3.17.26-6.37.33-9.55.3-6.07-.06-12.13-.53-18.18-1.08-2.16-.2-5.2.11-5.48-3.4-.09-1,1.5-3.05,2-3.9,1.28-2.31,2.7-4.52,4.15-6.72a13.69,13.69,0,0,1,2.89-3.68c1.62-1.24,3.54-1,5.51-1.17,3.14-.19,6.31-.22,9.46-.11a104.11,104.11,0,0,1,20.18,2.8c1.88.44,2.68-2.45.8-2.89a107.1,107.1,0,0,0-24.77-3c-3.31,0-7.88-.41-11,.68-2.32.79-3.28,2.35-4.65,4.37a91.79,91.79,0,0,0-5.94,9.72c-.93,1.81-2.81,4.56-2.34,6.78,1,4.63,10.79,3.64,14,3.9,3.42.27,37,3.39,32-5.94-.86-1.61-2.42-1.75-4-2a34.62,34.62,0,0,1-4.53-.57q-2.61.27-1.42-2.21c.13-3.15,2.48-2.14,4.95-2.48,4.36-.59,8.79-2.76,8.81-7.69a1.5,1.5,0,0,0-3,0Z" transform="translate(-228.17 -25.28)"/><path d="M375,178.46c-2.22,3.8-6,9.4-6.28,14-.25,3.66,4,4.75,6.88,5.21a63.88,63.88,0,0,0,16.73.8c5.09-.59,3.6-5.21,7.34-7.77,3.41-2.33,7.74-2.38,10.08-6.34,1.42-2.41,1.57-5.77-1.13-7.28-3.92-2.18-10.92-1.4-15.23-1.28a90.82,90.82,0,0,0-18.57,2.53c-1.88.45-1.09,3.34.79,2.89a86.17,86.17,0,0,1,23.29-2.39c1.43.06,4.38-.32,5.5.39l2.76,3.63a8.34,8.34,0,0,1-3.12,2.73c-2.2,1.36-5.17,1.65-7.17,3.38-1.46,1.25-1.44,2.74-2.44,4.17-2.56,3.68-7.61,2.41-11.51,2.2-1.76-.1-3.54-.21-5.29-.41l-2.84-.43q-4.17-1.23-2.28-4.06c.5-3.37,3.4-7.54,5.08-10.42a1.5,1.5,0,0,0-2.59-1.51Z" transform="translate(-228.17 -25.28)"/><path d="M360,210.58c-2.6,3.46-12.5,17-7,21,2.75,2,8.37,1.16,11.55,1.36,4.42.28,9.69,1.34,13.64-1.24,3.63-2.37,5.56-7.15,7.5-10.82,1.21-2.29,4.62-6.44,2.13-8.9s-8.62-2.81-11.94-3.1a42.42,42.42,0,0,0-15.68,1.72c-1.85.54-1.07,3.44.79,2.89a38.89,38.89,0,0,1,20.42-.67c4.74,1.17,3,4.1,1.24,7.38s-3.72,8.37-7.63,9.75c-2.83,1-6.61.23-9.51.05-2.09-.13-7.84.53-9.52-.61-4.2-2.84,4.45-14.48,6.56-17.3,1.16-1.55-1.44-3-2.59-1.51Z" transform="translate(-228.17 -25.28)"/><path d="M394.05,224.47c-3.35,3.12-7.05,6.87-7.42,11.71-.4,5.2,3,10.92,4.76,15.65a1.51,1.51,0,0,0,1,1c4.25.59,6.91-3.09,9.77-5.75,3.2-2.95,7.32-5.91,6.11-10.8-1-3.86-8.31-19.53-13.76-12.16-1.15,1.56,1.46,3.06,2.59,1.52,1.35-1.82,5.69,6.35,6.07,7,1.67,2.94,3.28,4.7.62,8.79-1,1.57-8.21,8.69-10.15,7.95-1.15-.44-3.66-9.44-3.87-10.62-.93-5.22,2.88-9,6.37-12.24,1.41-1.32-.71-3.44-2.13-2.12Z" transform="translate(-228.17 -25.28)"/><path d="M420.16,192.08c-3.65,1.8-8.75,4.53-11,8.13-2,3.27.14,7.11,1.15,10.42,1.59,5.17,2.54,11.57,5.11,16.33a6,6,0,0,0,6.78,3.12c2-.36,3.5-1.45,5.21-2.49s3.79-1.75,5.15-3c2.66-2.48,1.91-8.15,1.69-11.36-.58-8.62-4-16.59-11.31-21.54-1.6-1.09-3.11,1.5-1.52,2.59,5.16,3.51,8.18,8.93,9.35,15,.57,3,1.09,7,.47,10.12-.7,3.4-3.92,4.95-6.75,6.56-2.4,1.36-5,.75-6.84-1.59-.77-1-1.3-4.25-1.66-5.44l-2.5-8.16c-1.09-3.55-2.84-6.88-.53-10.2,1.74-2.5,6.05-4.55,8.72-5.87,1.74-.85.22-3.44-1.51-2.59Z" transform="translate(-228.17 -25.28)"/><path d="M445.12,167.68c-7.18,1.59-18,7.68-14.73,16.5,1.92,5.19,5.64,10.19,8.48,14.93,1.5,2.5,3.49,5.71,6.9,5.28,4.06-.53,8.23-6,11-8.63,3.34-3.19,4.25-6.21,3.71-10.88a29.76,29.76,0,0,0-5.46-14,10.26,10.26,0,0,0-3.14-3.25c-2.22-1.17-4.76-.21-7.08-1-1.85-.58-2.64,2.31-.8,2.9,2.54.81,5.46,0,7.66,1.84,2.42,2,4,6.38,4.92,9.29,1.24,4.1,1.78,8.27-.91,12a29.33,29.33,0,0,1-7.28,6.66c-.78,1-1.86,1.15-3.23.38q-2.5.77-3.23-1.37c-1-.9-1.59-2.72-2.25-3.85-1.5-2.56-3-5.12-4.51-7.69-1.21-2.1-2.94-4.62-2.34-7.2.43-1.82,2.12-3.34,3.52-4.41a25.37,25.37,0,0,1,9.59-4.64c1.88-.41,1.08-3.31-.8-2.89Z" transform="translate(-228.17 -25.28)"/><path d="M465.61,124.91c-8.19,6.92-9.09,16.73-6.21,26.56.85,2.92,1.92,5.79,2.91,8.68.7,2,1.13,4.72,2.39,6.5s3,2.11,4.54.63c1.36-1.27,1.31-3.33,2.1-4.85,1.87-3.59,2.93-1.15,5.85-1.34s4.75-2.72,5.09-5.39c.58-4.43-2.4-9.49-4.06-13.44-2.64-6.29-5.59-12.42-8.8-18.43-.91-1.71-3.5-.19-2.59,1.51a209.65,209.65,0,0,1,10.73,23.24c.47,1.23,1.61,3.19,1.58,4.59-.13,7.88-3.41,4-6.18,3.88a4,4,0,0,0-3.46,1.35c-.72.89-.52,1.46-.88,2.47-.81,2.28-.81,5.79-2.2,2-1.46-4-2.94-8.09-4.13-12.18-2.58-8.87-2-17.39,5.44-23.64,1.48-1.25-.65-3.36-2.12-2.12Z" transform="translate(-228.17 -25.28)"/><path d="M502,123.66c-1.77,8.77-6.5,22.55,3.88,27.42,4.62,2.17,9.9,2.07,14.88,1.79,4.81-.28,12.23.44,16.4-2.55,3.47-2.49,3.91-7.07,4.31-11,.52-5,.72-7.52-3.94-10.12a63.94,63.94,0,0,0-34.78-7.52c-1.92.11-1.94,3.12,0,3a63.09,63.09,0,0,1,23.36,2.86c3.76,1.22,9.63,2.78,11.7,6.31,1.66,2.82,1,9.56-1,12.46-2.66,3.94-10.38,3.14-14.46,3.42s-8.39.66-12.37-.4c-5.67-1.51-7.71-4.76-7.37-10.38a105.28,105.28,0,0,1,2.28-14.53c.38-1.88-2.51-2.69-2.9-.79Z" transform="translate(-228.17 -25.28)"/><path d="M492.13,166.52c-.44,3.94-2.21,6.17-4.28,9.32a6.13,6.13,0,0,0-1.31,3.67c.19,3.93,5.45,6.47,8.2,8.37q7.9,5.48,16.22,10.3c2.44,1.42,6.13,4.53,9,2.33s3.71-8.82,4.78-12.17,4.22-8.66,1.69-11.9-9.36-5.17-13.32-6.53a172.4,172.4,0,0,0-18.73-4.9c-1.88-.42-2.68,2.47-.79,2.89,8.42,1.87,17,3.73,24.88,7.32,1.19.54,3.8,1.3,4.68,2.38,2,2.48.07,5.68-.74,8.18-1,3.05-1.79,9.88-4.67,11.32-2.24,1.11-4-.74-6.06-2q-2.37-1.4-4.7-2.83-5.46-3.36-10.73-7c-1.49-1-4.15-2.29-5.24-3.77-2.57-3.48,0-4.48,1.51-6.89a18.91,18.91,0,0,0,2.61-8.11c.21-1.92-2.8-1.9-3,0Z" transform="translate(-228.17 -25.28)"/><path d="M474.4,198.23c-2.55,2.69-5.09,5.41-7.58,8.17-1.63,1.82-4,3.76-5,6-2.05,4.48,2.81,7.76,5.8,10.3A150.13,150.13,0,0,0,483.29,234c3.41,2.2,7.71,6.41,12,4.38,4.08-1.92,8-7.79,10.28-11.61,2-3.43,4.19-8.19,1.47-11.75-3.16-4.14-9.3-7.35-13.74-9.88a89,89,0,0,0-17.08-7.42c-1.84-.6-2.63,2.3-.79,2.89a85.54,85.54,0,0,1,22,10.64c2,1.35,4.93,2.84,6.32,4.76,2.17,3,1.38,5,0,7.84-1.76,3.58-4.82,8.06-8.06,10.46-4.2,3.1-9.57-2-13.05-4.32-3.73-2.46-7.41-5-10.9-7.81-3.87-3.1-9.11-6.59-4.64-11.62,3.08-3.47,6.24-6.88,9.44-10.25,1.33-1.4-.79-3.52-2.13-2.12Z" transform="translate(-228.17 -25.28)"/><path d="M446.75,228.46a64.12,64.12,0,0,0-17.69,10,1.5,1.5,0,0,0-.24,1.82l11.31,15.11c3.28,4.39,6.33,9.26,10.07,13.27,7.07,7.58,14.65,1.72,21.49-3.23,6.16-4.46,11.07-9.68,4.86-16.57-3.45-3.82-8.38-6.7-12.62-9.51-5.16-3.42-10.48-6.57-15.92-9.5-1.7-.92-3.21,1.67-1.51,2.59A201.49,201.49,0,0,1,467,245.06c3,2.1,7.27,4.41,8.89,7.86,2.64,5.62-4.81,9.36-8.45,11.81-4.19,2.82-9.24,6.88-14.05,2.9-2.87-2.38-5.05-6.25-7.28-9.24l-14.69-19.65-.24,1.82a59.26,59.26,0,0,1,16.37-9.21c1.79-.66,1-3.57-.8-2.89Z" transform="translate(-228.17 -25.28)"/><path d="M418.4,248.57c-5.6,2.26-21.16,9.88-17.19,17.91,2.7,5.44,7.44,10.5,11.25,15.21,4,4.91,8.28,11.24,13.46,14.92,3.54,2.53,7.41,1.11,10.67-1.17,4.09-2.85,6.08-5.72,4.22-10.65-2.13-5.66-6.19-10.58-9.4-15.65a197.39,197.39,0,0,1-10.76-19.41c-.85-1.74-3.43-.22-2.59,1.51a200.56,200.56,0,0,0,12.77,22.52,86.3,86.3,0,0,1,6.51,10.58c1.75,3.75.87,7.07-3,9-4.43,2.21-6.95.79-9.61-2a212.2,212.2,0,0,1-17.15-20.83c-.91-1.27-2.54-3-3.15-4.48-1.3-3.08,1.05-5.48,3.25-7.46a38.4,38.4,0,0,1,11.5-7.06c1.77-.71,1-3.62-.8-2.89Z" transform="translate(-228.17 -25.28)"/><path d="M270.09,300.32c-4.51,5.19-10.32,10.35-14,16.17-1.54,2.44-1.11,4.73,1.07,6.58,3.69,3.12,10.14,3.42,14.65,4.48a65.21,65.21,0,0,1,9.05,2.68c2.67,1.07,5.14,2.84,8,3.53,3.57.86,6.29-.64,8.31-3.56s6-10,5.2-13.71c-.9-4.08-8.35-6.15-11.55-7.75-6.25-3.13-12.61-6-19-8.77-1.76-.74-3.29,1.84-1.52,2.59,7.61,3.24,15.1,6.72,22.45,10.5,2.13,1.1,6.14,2.26,6.55,5.09.21,1.46-1.89,5.22-2.34,6.18a19.83,19.83,0,0,1-2.34,4.35c-3.69,4.18-6.85,1.42-10.18-.15-6.39-3-13.38-4.07-20.18-5.83-2.74-.71-6.26-.9-5.1-5.19.38-1.42,3-3.46,3.93-4.52l9.17-10.55c1.27-1.45-.85-3.58-2.12-2.12Z" transform="translate(-228.17 -25.28)"/><path d="M249.46,335.57c-3.18,3.26-8,8.15-9.19,12.69-.64,2.48.76,3.64,2.76,5,4.75,3.15,10.33,4.59,15.69,6.3,5,1.58,10.2,4.34,15.57,3.42,4.65-.78,14.34-8.43,10-13.73-2.72-3.32-10.24-5.29-14.25-6.69-6.21-2.16-12.55-3.64-18.17-7.19-1.64-1-3.15,1.56-1.52,2.59,5.85,3.69,12.43,5.24,18.89,7.5,3.53,1.23,8.39,2.44,11.25,4.92,4.3,3.73-3.34,9-6.61,9.58-4.35.83-8.75-1.45-12.77-2.79-3.17-1.05-6.41-1.9-9.54-3.06a31.69,31.69,0,0,1-5.63-2.57,6.33,6.33,0,0,1-2.77-2.43l.78-1.42c.91-3.57,5.19-7.45,7.63-10,1.35-1.38-.77-3.5-2.12-2.12Z" transform="translate(-228.17 -25.28)"/><path d="M237.09,363.42l-6,12c-1.12,2.26-2.85,4.8-3,7.42C228,387,231.39,388,234.92,388a39.57,39.57,0,0,0,9.85-1.4c4.07-1.09,7.35-2.13,10.62,1.41a12.75,12.75,0,0,0,12.7,3.55,14.23,14.23,0,0,0,9.21-8.78c1.31-3.34,2.26-8.66-.83-11.33-3.86-3.35-10.7-1-15.26-1.21a41.12,41.12,0,0,1-22-8c-1.57-1.13-3.06,1.47-1.52,2.59a43.74,43.74,0,0,0,23.5,8.44,53.21,53.21,0,0,0,7.14-.26c2.65-.22,4.47-.61,6.09,1.73,3.7,5.33-2.85,13.36-8.31,14.13a9.39,9.39,0,0,1-7.76-2.16c-1.25-1.09-2-2.67-3.41-3.6-2.65-1.78-5.82-.91-8.63-.08-3.44,1-17.48,4.72-14.3-2.62,2.27-5.24,5.11-10.3,7.65-15.42.85-1.72-1.73-3.25-2.59-1.51Z" transform="translate(-228.17 -25.28)"/><path d="M284.8,388.47l0,6.3c0,1.42-.24,3.06.65,4.28,1.67,2.28,4.64,1.31,6.52-.06,2.06-1.5,4-3.92,3-6.62s-5.36-4.69-7.75-6.14c-1.65-1-3.16,1.59-1.51,2.59q2.07,1.24,4.08,2.59a7.86,7.86,0,0,1,2.07,1.49c1,1.43-.36,2.66-1.3,3.4-.77.61-1.36,1.27-2.25.66s-.53-1.65-.52-2.64l0-5.85a1.5,1.5,0,0,0-3,0Z" transform="translate(-228.17 -25.28)"/><path d="M292.09,363.72c.17,2.35-1.2,4.5-.86,6.86a10.22,10.22,0,0,0,2.56,4.76c1.59,2,5.67,6.11,7.21,1.73.78-2.21.27-5.27,0-7.54s-.32-4.81-1.47-6.72c-1.44-2.39-5.52-2.77-6.13.48-.36,1.88,2.53,2.69,2.89.79a2.3,2.3,0,0,1,1.19,1.93l.2,1.11a37.71,37.71,0,0,1,.46,4.11,27.37,27.37,0,0,1,.09,3.39c-.11,1.47,0,1.18-1,.11-1.71-1.8-3.45-3.68-2.9-6.32a15.84,15.84,0,0,0,.73-4.69c-.14-1.91-3.15-1.92-3,0Z" transform="translate(-228.17 -25.28)"/><path d="M308.42,331.29c-4.91,4.12-8.25,10.18-7,16.75.86,4.48,5.35,11.28,10.78,8.51,4.59-2.35,8-11.19,6.83-16.07-.77-3.33-3.42-7.11-5.75-9.55-1.31-1.37-2.08-1.85-3.86-1.05a1.48,1.48,0,0,0-.74,1.29l-.05.68c-.12,1.93,2.88,1.92,3,0-.27,4.26,4.81,6.66,4.66,11.25a14,14,0,0,1-1.91,5.79c-1.39,2.62-1.56,3.31-4.69,3.64s-4.13-.86-5-3.87a12.48,12.48,0,0,1-.14-6.42c.86-3.64,3.23-6.48,6-8.83,1.48-1.24-.65-3.35-2.12-2.12Z" transform="translate(-228.17 -25.28)"/><path d="M334.23,345.52c-4.71-.71-8,2.64-9.42,6.84-.7,2-1.94,5-.5,6.94,1.15,1.52,3.33,1.76,5.09,1.49,5-.74,7.94-5.32,9.82-9.59s-.57-6.91-5-5.85c-1.88.44-1.08,3.34.8,2.89,3.32-.79,1.24,2.5.36,4.1-1.19,2.17-2.74,4.23-5.14,5.13-1.31.49-3.26,1.1-3.43-.93a9.37,9.37,0,0,1,.8-3c.84-2.55,2.68-5.64,5.86-5.16,1.89.29,2.7-2.6.8-2.89Z" transform="translate(-228.17 -25.28)"/><path d="M325.77,372.35c-4.89-.39-10.17-.37-13.62,3.7-2.53,3-4.2,8.89-.91,12s7.72.95,10.65-1.37c4.23-3.36,8.18-7.2,7.29-13-.29-1.9-3.18-1.09-2.89.8.59,3.83-2.22,6.48-4.85,8.71-2.2,1.87-8.51,6.63-9,.17-.57-7.59,7.88-8.44,13.31-8,1.93.16,1.92-2.84,0-3Z" transform="translate(-228.17 -25.28)"/><path d="M314.39,398.61c-3.44-1.2-6.85.29-9.24,2.84-1.39,1.48-5.59,5.87-3.11,7.86,2.09,1.66,6.39-.35,8.24-1.56a13.32,13.32,0,0,0,5.59-7.75,1.5,1.5,0,0,0-2.89-.8,10.22,10.22,0,0,1-8.08,7.51c-.76.13-1.1-.18-.87.66.3,1.06.57-.07.87-.55a23.78,23.78,0,0,1,2.13-3c1.69-1.94,4-3.24,6.56-2.34,1.82.64,2.61-2.25.8-2.89Z" transform="translate(-228.17 -25.28)"/><path d="M356.26,339.29c-4,5-8.57,10.72-10.8,16.79-1.77,4.81.15,7.57,4.46,9.81,6.72,3.49,13.72,6.59,20.59,9.78,6,2.81,12.1,5.19,18.85,5.22a1.52,1.52,0,0,0,1.45-1.1,86,86,0,0,0,2.65-18c.13-4-.6-6.55-4.06-8.77-5.21-3.34-11.19-5.87-16.67-8.73-4.6-2.4-9.43-5.94-14.8-5.87-1.93,0-1.94,3,0,3,4.69-.06,9.23,3.34,13.28,5.46l12.1,6.32a25.62,25.62,0,0,1,4.58,2.41c3.29,2.75,2.68,5.41,2.42,9A86.09,86.09,0,0,1,387.92,379l1.44-1.1c-10.72-.05-20.72-6.42-30.15-10.9-2.3-1.09-4.62-2.17-6.92-3.28-2-.95-2.12-1-3.34-3.15-1.42-2.51-.94-2.91.25-5.3a80.36,80.36,0,0,1,9.18-13.85c1.19-1.49-.92-3.63-2.12-2.12Z" transform="translate(-228.17 -25.28)"/><path d="M343.31,373.21c-3.78,2.62-7.86,7.65-8.47,12.33-.72,5.5,3.88,9.54,8.28,11.79,3.22,1.64,6.56,2.79,9.58,4.82,2.54,1.7,4.84,3.72,7.31,5.52,3.48,2.55,9.88,6.89,14.42,4.41,2.24-1.23,3-3.8,4-6,1.33-2.93,2.88-5.87,3.52-9,1-5.1-.92-9.41-5.68-11.64-6.14-2.87-13.24-1-19.51-3.65-3.78-1.61-6.07-4.44-9.26-6.76a5.57,5.57,0,0,0-4.78-1.17c-1.9.31-1.1,3.2.8,2.9,2.49-.41,8,5.84,10.44,7.07a25.77,25.77,0,0,0,8.29,2.56c4.86.68,11.32-.54,15.14,3.31,4.27,4.31.1,12.79-2.53,17.05-3.53,5.7-9.38,1.3-13.34-1.61-3.07-2.25-5.92-4.81-9.23-6.73s-7.2-2.89-10.32-5.13c-4.4-3.15-4.79-6.88-2.22-11.55a16.88,16.88,0,0,1,5.07-5.87c1.58-1.09.08-3.7-1.51-2.59Z" transform="translate(-228.17 -25.28)"/><path d="M331,398.19a13.52,13.52,0,0,0-10,14.37,1.54,1.54,0,0,0,1.5,1.5c3.82,0,5.69-.4,7.59,3.38,1,2,1.56,4.21,2.61,6.22a74.51,74.51,0,0,0,8,11.62c2,2.48,4.21,5.82,7.72,6,3.93.26,7.7-3.37,10.24-5.92,5.72-5.75,10.2-11.42,3.1-18.09-8.16-7.65-18.56-13.57-28.51-18.5-1.73-.86-3.25,1.73-1.52,2.59a144.26,144.26,0,0,1,21.42,12.93c4.67,3.42,11.78,7.1,7.79,14-1.62,2.81-6.23,7.64-9.19,8.9-5.82,2.5-9.5-4.59-12.16-8.27a45.53,45.53,0,0,1-6.11-10.8c-.7-1.93-.76-5.29-2.44-6.62s-6.47-.47-8.55-.47l1.5,1.5a10.55,10.55,0,0,1,7.81-11.48,1.5,1.5,0,0,0-.8-2.89Z" transform="translate(-228.17 -25.28)"/><path d="M268.71,398a55,55,0,0,1-17.3,2,51.84,51.84,0,0,1-10.21-1.54c-2.15-.56-4.55-2-6.77-2-7.67-.08-4.4,14.87-3.4,18.92,4.64,19,17.19,33.16,35.36,40.31,10.39,4.08,21.54,5.7,32.6,6.67,9.81.85,20.58,2.49,29.76-2.05,3.1-1.53,7.29-4.07,9.09-7.16,1.35-2.3.25-3.91-1.26-5.89-3.28-4.31-7.68-7.65-10.78-12.11-2.27-3.28-3.75-7.07-6.29-10.16-7.18-8.73-19.48-3.62-28.88-7.67-10.17-4.38-13.76-17.37-25.4-19.37-1.89-.33-2.7,2.56-.79,2.89,8.91,1.54,12.74,10.12,19,15.52,5.53,4.73,12.49,6,19.58,6.19,4.61.12,9.41-.4,13,3.08,2.84,2.73,4.31,6.62,6.38,9.9a48.7,48.7,0,0,0,6.41,7.7c1.35,1.4,2.75,2.75,4,4.23,2,2.35,3.13,3.6.72,5.87-7.34,6.9-16.52,7.27-26,6.66-10-.65-20.07-1.48-29.83-3.88-17.44-4.29-32.73-14-40.23-30.83a60.86,60.86,0,0,1-4.46-14.83c-.47-2.85-1.53-7.83,1.09-9.76,1.94-1.42,5.57.54,8,1.08a57,57,0,0,0,27.35-.85,1.5,1.5,0,0,0-.79-2.89Z" transform="translate(-228.17 -25.28)"/><path d="M516.16,399.18c-12.12.56-22.86,5.88-33.22,11.8-3.75,2.14-8,4.31-10.48,8s-.82,6.62.78,10.4c3.68,8.69,7.84,17.86,15.18,24.1,2.74,2.33,6.32,5,10.06,5.1,4.84.15,9-3.16,12.77-5.71,6-4,14.17-5.45,21.07-2.62s11.2,7.1,15.32,13.24c3.38,5,5.32,10.45,7.91,15.86,2,4.12,4.91,5.08,9.2,5.28a78.63,78.63,0,0,0,17.59-1.3c4.74-.86,11.17-1.42,14.87-4.75,7.55-6.78,1-17.52-1.7-24.94a87.16,87.16,0,0,0-17.38-29.35c-8.79-9.6-19.57-15.35-31.8-19.44-1.84-.61-2.63,2.28-.8,2.89,9.87,3.31,19.08,7.62,26.7,14.85a78.68,78.68,0,0,1,16,21.63,94.65,94.65,0,0,1,5.41,13.15c1.41,4.31,4.35,8.82,4.12,13.45-.34,6.72-7.4,7.76-12.69,8.91a80.53,80.53,0,0,1-17.56,2c-4.25,0-7.65-.51-9.6-4.74-.75-1.62-1.3-3.34-2-5a72.48,72.48,0,0,0-7.51-12.71c-4.45-6.07-11-12-18.79-13.07a31.54,31.54,0,0,0-12,.45c-4.49,1.12-7.73,3.81-11.59,6.19-2.14,1.32-4.82,2.89-7.44,2.71s-5.48-2.22-7.43-3.79a38.61,38.61,0,0,1-8.49-10.16,96.74,96.74,0,0,1-5.93-11.88c-1.35-3.14-3.38-6.34-1.25-9.61,1.38-2.13,3.82-3.53,5.94-4.81,10.69-6.4,22.15-12.61,34.84-13.2,1.93-.09,1.94-3.09,0-3Z" transform="translate(-228.17 -25.28)"/><path d="M454.31,441.37c-5.67,4.86-17.28,15.31-8.8,22.65,5.29,4.58,11.58,8.32,17.28,12.39,3.54,2.53,8.74,8.16,13.58,7.62,4.17-.47,6.49-5,8.29-8.2s6-7.94,3.47-11.6c-3.09-4.4-9.36-8-13.69-11.17a194.84,194.84,0,0,0-17.85-11.55,1.5,1.5,0,0,0-1.51,2.59,190.55,190.55,0,0,1,20.68,13.67c2.77,2.12,10.36,6.26,9.72,10.38-.29,1.85-2.48,4.51-3.41,6.16s-1.83,3.87-3.3,5.05c-4.56,3.65-10.17-2.46-13.68-5l-11.13-8c-1.85-1.32-3.76-2.59-5.56-4-3.42-2.63-3-6.23-.91-9.6,2.25-3.71,5.68-6.57,8.94-9.37,1.47-1.26-.66-3.37-2.12-2.12Z" transform="translate(-228.17 -25.28)"/><path d="M431.48,486.25a160.16,160.16,0,0,1,21.59,11.62c4,2.65,6.36,6.19,4.89,11s-6,8.56-11.09,8.13c-6.8-.59-12.2-7.9-18.1-11-1.23-.65-3.36-1.21-4.45-2.08-3.95-3.11-1.46-5.58.15-8a68.07,68.07,0,0,1,8.33-10.43,1.5,1.5,0,0,0-2.12-2.12A60.89,60.89,0,0,0,420,497.32c-1.69,3.16-1.62,6.46,1.56,8.58,2.45,1.64,5.44,2.5,8,4.05,2.9,1.77,5.41,4,8.11,6.05,3.47,2.61,7.37,4.69,11.83,4,7.81-1.19,13.91-10.11,11.41-17.82-1.35-4.14-5.23-6.26-8.74-8.38A196.12,196.12,0,0,0,433,483.66c-1.74-.81-3.26,1.78-1.51,2.59Z" transform="translate(-228.17 -25.28)"/><path d="M446.71,535.75A81.18,81.18,0,0,1,444,548.28c-1.18,3.82-2.78,5.79-7.06,6.28a31.25,31.25,0,0,1-5.55-.28,106.68,106.68,0,0,1-14.24-2.07c-3.48-.74-6.52-1.66-6.75-5.77-.12-2.18.8-4.83,1.27-7,.78-3.5,1.47-9.67,3.63-12.5,4.45-5.82,11.24.34,14.34,3.81,1.73,1.93,3.15,3.46,5.78,4,4,.84,7.08.63,10.73,3,1.61,1.07,3.12-1.53,1.51-2.59-4.87-3.22-11.3-2.34-15.47-6.07-4-3.6-7.1-7.2-12.93-7.8-3.46-.35-5.31,1.13-6.63,4.25A75,75,0,0,0,407.38,546c-.4,3.76.16,6.38,3.89,7.85,6.07,2.41,13.61,2.93,20.08,3.43,3.69.28,10.38,1.92,13-1.54,1.67-2.21,2.28-5.8,3-8.42a80.69,80.69,0,0,0,2.22-10.77c.28-1.89-2.61-2.7-2.89-.8Z" transform="translate(-228.17 -25.28)"/><path d="M408,569.21c-5.22,2-7.76,6.39-8.63,11.77-.7,4.42-1.1,10.47,2.28,14,1.59,1.66,3.73,2.17,5.89,2.68,4.17,1,8.44,1.7,12.64,2.55,6.13,1.23,13.1,3.5,19.41,2.3,10.05-1.91,15.06-14.07,8.1-22.11-3.75-4.32-9.6-5.61-15-6.43-6.95-1.07-17.53-.45-23.21-5.09-1.49-1.21-3.62.9-2.12,2.12,6.13,5,15.6,4.59,23.09,5.66,4.11.59,8.58,1.13,12.17,3.38,5.48,3.41,7.09,10.63,3,15.71-6.62,8.12-21.49,2.19-30,.47-5.73-1.15-13-1.26-13.57-8.57-.45-5.71.73-13.27,6.81-15.55,1.79-.67,1-3.57-.8-2.89Z" transform="translate(-228.17 -25.28)"/><path d="M402.71,620.87a7.34,7.34,0,0,0,.12,10.29c4,4.3,10.58,3.5,15.84,4a46.69,46.69,0,0,1,13.21,3.32c2.81,1.16,5.68,3.23,8.76,3.67,3.57.5,6.61-1.12,7.48-4.7,1.47-6.1.49-14.61-1.06-20.68-1.23-4.81-4.46-5.89-9.28-5.5-6.25.5-11.73,3.86-17.75,5.29-6.26,1.49-12.78.43-18.3,4.28-1.57,1.1-.08,3.7,1.51,2.59,6.07-4.23,15.19-2.94,22.15-5.4,3.47-1.22,6.87-2.81,10.51-3.49s6.42-.43,8.26,3c1.11,2.08.88,5.51,1.07,7.88.31,3.95,1.84,13.57-4.1,13.64-3.31,0-7.56-3.28-10.77-4.4a49.38,49.38,0,0,0-10.8-2.43c-2.17-.24-4.34-.22-6.51-.41-3.06-.26-14-2.6-8.22-8.88,1.3-1.42-.81-3.55-2.12-2.12Z" transform="translate(-228.17 -25.28)"/><path d="M469.53,612.72a12.34,12.34,0,0,0-10.81,8.4,19,19,0,0,0-.65,9.1c.3,2,.59,5.49,2.68,6.6,3.87,2.08,10.7-2.11,13.57-4.45a22.28,22.28,0,0,0,8-14.85c.23-1.92-2.77-1.9-3,0a19.26,19.26,0,0,1-13.88,16.16c-2.6.7-2.93.72-4-1.48-.86-1.83-.85-4.58-.69-6.59.4-4.89,3.48-9.53,8.7-9.89,1.92-.14,1.93-3.14,0-3Z" transform="translate(-228.17 -25.28)"/><path d="M486.83,574c1.59,7.19-2.95,13.59-8.18,18.06a36.31,36.31,0,0,1-7.46,4.91c-3.68,1.82-7.23,3.67-9.45-.65a12.33,12.33,0,0,1-1-3.94c-.25-2.82.38-3.82,2.48-4.85s4.3-1.69,6.34-2.85c5-2.85,10.6-10.54,16.79-9.44,1.89.33,2.7-2.56.8-2.9a11.88,11.88,0,0,0-9.57,2.51c-4.61,3.37-8.38,7.12-13.81,9.25-2.75,1.09-6.06,1.34-6.5,4.82-.41,3.32,1.24,9.8,3.26,12.45,3.61,4.74,15.29-3.3,18.45-5.72,7-5.32,12.78-13.33,10.76-22.45-.42-1.88-3.31-1.09-2.89.8Z" transform="translate(-228.17 -25.28)"/><path d="M495.94,553.46c-4.1,1.83-8.26,3.49-12.52,4.94-2.9,1-10.73,4.8-13.13,1.26-1.54-2.27-1.78-7.52-2.1-10.26a6.52,6.52,0,0,1-.06-3.61l1.51-.45c1-.73,2.84-1.15,3.95-1.74a82.32,82.32,0,0,0,8.61-5.77c1.82-1.28,3.92-3.74,5.89.13.64,1.26-.51,4.15-.21,5.62,1,4.84,6.91,6.64,7.55,11.43.26,1.91,3.15,1.1,2.9-.8-.5-3.68-3.33-5.19-5.52-7.87-2.72-3.3-1.12-6-1.86-9.73a5.66,5.66,0,0,0-1.77-3.27c-2.63-2.25-5.46-.22-7.84,1.44s-4.72,3.5-7.22,5.05-5.29,2-7.62,3.33c-2.72,1.59-1.67,4.31-1.2,7,.61,3.6.69,10.64,3.61,13.3s8.74-.13,11.8-1.07a150.64,150.64,0,0,0,16.75-6.38c1.76-.78.23-3.37-1.52-2.59Z" transform="translate(-228.17 -25.28)"/><path d="M509.77,498.86a32.32,32.32,0,0,1-9,13.4c-3.34,2.93-9.72,7.5-14.44,7.27-3.54-.17-5.41-7.91-3.65-10.11s5.19-2.8,7.57-3.64l8.66-3c3.39-1.19,7.91-3.55,11.54-2.81,1.88.39,2.69-2.5.8-2.89-4.34-.89-8.22,1.07-12.27,2.5-4.74,1.67-9.74,3.05-14.31,5.15-2.59,1.18-5.25,2.89-5.92,5.86-.62,2.8,1.12,7.87,2.47,10.14,3.12,5.23,13.07-.34,16.79-2.66a35.7,35.7,0,0,0,14.71-18.36c.65-1.82-2.24-2.61-2.9-.8Z" transform="translate(-228.17 -25.28)"/><path d="M517.89,468.31c-3.35,2-6.73,4-10.18,5.87-1.48.8-3,1.57-4.47,2.33-1.24.63-4.18,2.93-5,1.48-.92-1.71,5.41-5.65,6.84-6.78l4.18-3.3c1.19-1,2.41-1.89,3.64-2.8q4.32.19,3.09,3.47c-.29,1.89,2.6,2.7,2.9.8.63-4.07-.52-9.36-5.88-7.68-3.16,1-6.14,4.3-8.66,6.29-3,2.39-6.66,4.63-9.08,7.67-2,2.49-3,7.27,1.71,7,3.42-.23,7.76-3.5,10.72-5.06,4-2.09,7.84-4.33,11.66-6.66,1.65-1,.14-3.6-1.51-2.59Z" transform="translate(-228.17 -25.28)"/><path d="M533.57,465.12c-9.11,10.93,3.28,23.54,9.81,32.05a1.51,1.51,0,0,0,2.79-.75c.8-6.59-.7-12.77-3.06-18.9-1.69-4.39-3.17-9.79-7.47-12.27a1.5,1.5,0,0,0-1.51,2.6c4.22,2.43,5.93,9.66,7.33,13.92a33.33,33.33,0,0,1,1.71,14.65l2.8-.76c-5.38-7-18-19.19-10.28-28.42,1.23-1.47-.88-3.61-2.12-2.12Z" transform="translate(-228.17 -25.28)"/><path d="M524.65,501.9q5.13,4,10.05,8.18c3.43,3,8,6,8.83,10.81.51,3.1-.15,6.85-.34,10-.13,2.19.39,9.34-2.32,8.29-2.34-.9-5.13-4.88-6.78-6.68a82.34,82.34,0,0,1-7.34-9c-2.77-4-4.24-7.79-3.26-12.78.67-3.48,2-6.74,2.49-10.26.28-1.89-2.61-2.71-2.89-.8-.72,5-3.18,9.84-3,15,.18,4.45,2.43,8.21,5,11.72a97.47,97.47,0,0,0,10.47,12c1.61,1.56,5,6.22,7.74,5.58,2.57-.6,2.22-4.68,2.39-6.54.5-5.58,1.37-11.7.74-17.29-.5-4.4-3.6-6.79-6.76-9.6-4.37-3.9-8.89-7.59-13.53-11.17-1.52-1.18-3,1.43-1.51,2.59Z" transform="translate(-228.17 -25.28)"/><path d="M520.87,534.87c-4.78.37-6.59,5.21-4.92,9.37.49,1.23,6,7.32,3,8.35-1,.35-4.92-3.14-6.56-3.36-4.91-.67-6.77,4.53-5.23,8.42,1,2.58,3.4,4.84,5.22,6.85,3,3.3,6.13,6.47,9.12,9.77,2.84,3.13,5.09,7.05,8.09,10,1.23,1.19,2.66,2.33,4.53,1.8s2.41-2.12,3.1-3.58c1.9-4,3.43-8.25,5.05-12.36,2.4-6.1,3.13-11.1-2-15.64a144.21,144.21,0,0,1-17.66-18.23c-1.2-1.51-3.31.63-2.13,2.13a125.77,125.77,0,0,0,10.74,12c1.83,1.78,3.71,3.49,5.64,5.15,3.3,2.84,5.06,5.15,3.91,9.78a53.69,53.69,0,0,1-2.75,7.31c-1,2.33-1.91,6.71-3.54,8.6-.06,1.18-.61,1.53-1.65,1.06-1.41.14-2.32-.62-2.73-2.26-.43-.58-.86-1.15-1.31-1.72-1.83-2.33-3.78-4.56-5.78-6.75-3.61-3.94-7.48-7.67-10.89-11.78a6.54,6.54,0,0,1-2.09-3.46c-1.12-1.55-.57-2.33,1.67-2.36,2.71-1.07,2.44-.59,4.53.61a8.79,8.79,0,0,0,4.37,1.59,3.55,3.55,0,0,0,3.58-4.11,7.29,7.29,0,0,0-1.56-3.41c-.55-.79-1.24-1.49-1.83-2.25-1.09-1.38-5.56-8,0-8.45,1.92-.15,1.93-3.15,0-3Z" transform="translate(-228.17 -25.28)"/><path d="M502.9,574.41l14.88,17c2.67,3,6.6,6.41,7.76,10.37,1.1,3.74-1.29,13.66-6.49,12.55-2.67-.57-6.39-5.24-8.18-7.26-2.23-2.51-5.22-5.52-6.59-8.6-1.56-3.49-.9-8.15-.89-11.91,0-1,.73-10.9,0-11.29,1.7.93,3.21-1.66,1.52-2.59-2.12-1.17-3.91-.18-4.42,2.22-.63,3-.09,6.67-.11,9.73,0,3.38-.23,6.82,0,10.2.28,4.69,2.87,7.72,5.74,11.24,3.37,4.13,7.25,8.83,12.12,11.28,7.7,3.88,11.79-10.94,10.21-16.36-1.42-4.85-5.94-8.75-9.16-12.41L505,572.29c-1.28-1.45-3.39.67-2.12,2.12Z" transform="translate(-228.17 -25.28)"/><path d="M493.81,615.74c-1.14,7.7-7.38,15-3.2,22.84,1.8,3.37,4.82,5.83,7.49,8.47,2.12,2.1,4.27,6,7.61,6.2,6.43.4,11.19-10.11,10.6-15.34-.46-4.16-3.56-6.77-6.4-9.52L497,615.91c-1.39-1.34-3.51.78-2.12,2.12,5,4.81,10.13,9.48,14.93,14.46,3.49,3.62,4.55,7.68,1.89,12.27-.68,1.17-2.93,4.78-4.34,5-1.92.35-4.11-1.59-5.23-2.85-3.64-4.08-9.63-7.71-10-13.68-.4-5.72,3.78-11.13,4.61-16.72.28-1.89-2.61-2.7-2.9-.8Z" transform="translate(-228.17 -25.28)"/><path d="M558.26,502.33c-.08,3.34-.1,6.67,0,10,0,2.76-.36,6.42.4,9.11,1,3.7,4.68,2.78,7.81,2.7a140.81,140.81,0,0,1,20.32.93c3.73.44,8.62,1.88,10.83-2.2s.56-10,0-14.1c-.43-3.27-.06-8.54-3.07-10.7-3.55-2.55-9.65-2-13.71-1.87-7.07.26-14.1.91-21.11,1.83-1.88.25-1.91,3.25,0,3,8.3-1.09,16.86-2.13,25.24-1.92,3,.07,7-.05,8.68,3.09.7,1.28.59,3.83.79,5.22.4,2.87,2.33,10.39.81,13.23-1.92,3.59-10.84,1.12-14,.87-4.3-.33-8.62-.48-12.94-.42-1,0-4.69.58-5.55.18-2.11-1-1.39-4.16-1.45-6.22-.13-4.25-.12-8.49,0-12.74,0-1.93-3-1.93-3,0Z" transform="translate(-228.17 -25.28)"/><path d="M558.23,541.18v12c0,1.87-.54,4.28.43,6,.83,1.46,2.56,1.71,4.08,2.13,3.61,1,7.28,1.81,10.94,2.6s7.35,1.5,11.05,2.13c2.07.35,4.95,1.38,7.07,1,4-.73,3.72-6.13,4-9.33.45-4.81,1-11.67-1.28-16.19-2.46-4.83-8.08-4.12-12.68-4.11-6.25,0-13.64-1.07-19.77.14-3.66.73-5.86,3.06-4.81,6.9a1.5,1.5,0,0,0,2.89-.8c-1.14-4.15,11.82-3.22,13.78-3.22,3.8,0,8.13-.6,11.86,0,6.7,1,7.06,5.1,7.22,10.56a53.12,53.12,0,0,1-.14,5.78,40.23,40.23,0,0,1-.51,4.38c.3,1.58-.28,2.34-1.75,2.27-2.65,1.2-7.91-.72-10.64-1.25q-5.52-1.07-11-2.36a42.29,42.29,0,0,1-5.46-1.36c-2.86-1.12-2.31-2.39-2.31-5.22v-12a1.5,1.5,0,0,0-3,0Z" transform="translate(-228.17 -25.28)"/><path d="M554.32,576.54c-2.37,4.22-4.7,10.22-3.49,15.17.91,3.72,4.76,3.93,8,4.76,6.25,1.59,11.07,4.54,16.7,7.46,2.58,1.34,7.61,3.91,10.42,1.92,3.3-2.35,2.89-9.76,3.25-13.26s1.95-8.46-1.06-11.28-8.67-2.43-12.33-2.82l-21.63-2.27c-1.92-.2-1.9,2.8,0,3,8.52.89,17.05,1.69,25.56,2.68,4.57.54,7.4,1.38,6.9,6.49-.32,3.25.09,9.73-1.49,12.38-3.5,5.84-15.15-3.91-19.92-5.59-2.93-1-7.06-1.07-9.65-2.63-4.46-2.68-.46-11.3,1.34-14.5.94-1.68-1.65-3.2-2.59-1.51Z" transform="translate(-228.17 -25.28)"/><path d="M546.76,611.9c-2.77-.2-4.2,1.07-6,3.1a60,60,0,0,0-6.31,8.13c-2.6,4.27.44,7.08,4.19,9.11,6.76,3.65,13.37,7.2,19.56,11.81,3,2.26,8.61,9.61,13,6.26,4-3.06,6.13-10.86,7-15.54.84-4.39,1.42-9.74-2.57-12.76-2.49-1.89-6.11-2.76-8.94-3.87L556.17,614c-3.82-1.49-11.59-6.44-14.38-.94-.87,1.72,1.72,3.24,2.59,1.52,1.53-3,23.85,7.26,26.81,8.51,6.22,2.62,4.89,8.72,3.39,14-1,3.54-3.29,11.88-8.38,9.49-2.73-1.28-5.39-4.39-7.92-6.21a116.2,116.2,0,0,0-10.35-6.68c-2.82-1.62-9-3.37-10.79-6-2-3,6.78-13,9.62-12.82,1.93.14,1.92-2.86,0-3Z" transform="translate(-228.17 -25.28)"/><path d="M526,644.53a7.66,7.66,0,0,0-5.1,4.86,46.7,46.7,0,0,0-1.26,4.53c-.88,2.84-2.54,3.62-4.4,5.64-3.64,4-3.21,9,.26,13.11,2.16,2.54,5.2,4.11,7.82,6.09,4.66,3.51,7,7.78,9.11,13.11,1.78,4.55,5.34,9.82,11,7.88s8.8-10.18,11.52-14.84c3.05-5.23,7.62-10.27,3.28-15.9-5.25-6.81-12.73-12.38-19.25-17.9-4.67-4-10-8.4-16.23-4.78a1.5,1.5,0,0,0,1.51,2.59c6-3.48,12.58,4.26,16.68,7.79s8.07,7.07,11.84,10.88c3.29,3.34,5.25,4.91,2.74,10.38-1.1,2.41-2.74,4.7-4.07,7-2.23,3.82-7,15.73-13.4,10.85-3.44-2.64-4.2-9.43-6.74-13.07a32.06,32.06,0,0,0-8.49-7.93c-2.7-1.87-5.89-4-6.93-7.29-1.08-3.5,1.64-5.55,3.85-7.73,3.24-3.17,2.38-10.95,7-12.36,1.85-.56,1.06-3.46-.79-2.89Z" transform="translate(-228.17 -25.28)"/><path d="M382.32,702.35c-2.95,3.36-6,6.66-8.86,10.09-1.43,1.71-3,3.47-3.69,5.66-1.38,4.62,1.5,7.79,5.13,10.2A210.26,210.26,0,0,0,394.64,740c4.52,2.34,11.64,5.46,16.68,2.84,4.35-2.27,6.62-10,7.68-14.37,1.14-4.74.8-8.83-3.3-11.91-5.87-4.4-13.76-7-20.35-10.2-4.7-2.27-10.39-6-15.4-2.64-1.6,1.07-.1,3.67,1.51,2.59,4.68-3.12,12.51,2.7,16.69,4.73s8.1,3.83,12.09,5.84c1.61.81,4,1.75,5.07,3.29,1.73,2.56,1.31,5.56.59,8.33-1.43,5.57-3.7,12.24-10.42,12-8.54-.3-17.71-8-24.85-12.22-4.3-2.56-10.59-5.13-6.72-11.61,2.62-4.4,7.15-8.31,10.53-12.16,1.27-1.44-.85-3.57-2.12-2.12Z" transform="translate(-228.17 -25.28)"/><path d="M364.53,735c-6.46,4.85-14.79,16.21-4.11,21.27,6.5,3.08,13.66,4.33,20.06,7.79,4.61,2.49,9.19,7.53,14.91,6.42,3.88-.75,5.19-3.7,5.63-7.29.61-4.91,1.07-10.49-4.1-12.81a28.6,28.6,0,0,0-8.78-1.88c-2.07-.22-4.3-.12-6.18-1.19s-3-3.39-4.3-5.05a19.93,19.93,0,0,0-13.12-7.45c-1.89-.27-2.7,2.62-.8,2.89A17.26,17.26,0,0,1,375.16,744c2,2.52,3.43,5.21,6.57,6.51,2.93,1.22,6.44.86,9.51,1.43a8.68,8.68,0,0,1,7,5.66c1,2.85-.86,9.67-4.17,10.07-3.83.47-8.23-4-11.37-5.78a67.54,67.54,0,0,0-9.51-4.27c-3.55-1.32-7.29-2.26-10.78-3.72-9-3.76-.89-12.91,3.6-16.29,1.53-1.14,0-3.75-1.51-2.59Z" transform="translate(-228.17 -25.28)"/><path d="M359.25,766.2c-4.27-1.51-8.33.72-10.48,4.53-1.62,2.87-2,6.34-2.53,9.53-.36,2.17-1.55,5.35-1.06,7.52.89,4,6.32,4.86,9.78,5.16,6.71.6,13.31-1.5,20-1.26,3.94.14,10.61,4.21,14,.79,2.56-2.57,4.36-9,2.82-12.31-2.29-5-9.94-8.59-14.62-10.66a51.68,51.68,0,0,0-19.13-4.32c-1.93-.07-1.93,2.93,0,3a47.89,47.89,0,0,1,25.53,8.31c2.6,1.8,5.86,3.62,5.72,7.34A14.71,14.71,0,0,1,388,788c-1.85,4.84-6.83,1.35-10.6.9-7-.85-13.95,1.48-21,1.18-1.79-.08-6.18-.26-7.49-1.81s0-5.6.24-7.16c.8-4.74,2.07-14.53,9.31-12,1.82.64,2.61-2.25.8-2.89Z" transform="translate(-228.17 -25.28)"/><path d="M400.52,792.34c-.29,2.56-.48,5.12-.53,7.69,0,1.93-.39,4.51.21,6.39.9,2.85,3.75,1.59,5.09-.1,2.2-2.78,4.21-7,3.33-10.58a6.76,6.76,0,0,0-6.19-5.46c-1.93-.12-1.92,2.88,0,3,2.93.19,3.77,3.55,3.18,5.91a13.34,13.34,0,0,1-1.36,3.15c-.25.43-.5.84-.76,1.25a2.18,2.18,0,0,0-.4,1.95c.35-.52-.1-2.72-.11-3.31q0-1.65,0-3.3c.08-2.21.26-4.4.51-6.59.22-1.91-2.79-1.9-3,0Z" transform="translate(-228.17 -25.28)"/><path d="M409.58,766.25c-2.32,5-4.77,11.33-.27,15.87,3.77,3.81,9,2.37,11.1-2.3,2.19-4.87,1.68-11.7-3-14.94-3.22-2.24-9-1.82-9.18,3-.09,1.93,2.91,1.93,3,0,.17-3.88,5.86.58,6.58,1.95a10.6,10.6,0,0,1-.5,9.54c-2.72,4.51-7.35.39-7.56-3.32-.16-2.87,1.26-5.75,2.43-8.26.81-1.74-1.77-3.27-2.59-1.52Z" transform="translate(-228.17 -25.28)"/><path d="M425.34,735.26c-3.29,4.56-8,9.61-6.74,15.76a13.48,13.48,0,0,0,8.37,9.37,1.49,1.49,0,0,0,1.46-.39c2.46-2.55,5.22-7.72,5-11.35-.27-4.35-3.6-9-5.43-12.89-.83-1.74-3.42-.22-2.59,1.52,1.29,2.73,3,5.51,4,8.37a8.88,8.88,0,0,1-.62,8.09c-1,1.9-1.5,3.25-3.83,1.87-8.13-4.8-.43-14.08,3-18.84,1.13-1.57-1.47-3.07-2.59-1.51Z" transform="translate(-228.17 -25.28)"/><path d="M456.56,750.19c-5.92-.23-13-.16-17,5-3.1,4-2.69,10,1.86,12.63,5.26,3.07,9.71,1.12,12.82-3.57,2.15-3.23,9-10.67,3.67-13.89-1.65-1-3.16,1.6-1.51,2.59s-3.76,8.29-4.46,9.34a12.05,12.05,0,0,1-2.38,3.05c-2.36,1.77-6.77.76-8.32-1.65-2.31-3.59.71-7.6,3.91-9.17,3.53-1.72,7.63-1.48,11.44-1.33,1.93.07,1.93-2.93,0-3Z" transform="translate(-228.17 -25.28)"/><path d="M436.75,778c-3.2,1.34-10.39,5.52-8.12,9.95,1.93,3.76,7.61,3.9,11,2.49,3.89-1.61,7.05-6,5.69-10.29-1.22-3.92-6.58-5-8.82-1.4-1,1.64,1.57,3.15,2.59,1.51,1.36-2.17,3.48.31,3.53,1.83a5.41,5.41,0,0,1-.88,2.94,7.22,7.22,0,0,1-4.57,3.07c-1.92.43-6.59.35-5.18-3.14.75-1.84,3.85-3.36,5.55-4.07s1-3.64-.8-2.89Z" transform="translate(-228.17 -25.28)"/><path d="M423.74,804.94a9.43,9.43,0,0,0-7.21,9.23,1.51,1.51,0,0,0,1.89,1.45,23.82,23.82,0,0,0,8.76-4.11c1.94-1.47,5.21-3.82,4.31-6.62a1.53,1.53,0,0,0-1.85-1l-9.53,2.34c-1.88.46-1.09,3.36.79,2.9l9.54-2.34-1.84-1c.42,1.3-4.18,4.14-5,4.63a21.26,21.26,0,0,1-6,2.41l1.9,1.44a6.38,6.38,0,0,1,5-6.33c1.88-.46,1.08-3.36-.79-2.9Z" transform="translate(-228.17 -25.28)"/><path d="M471.58,747.23l-4.9,10.13c-.94,1.94-2.93,4.69-2.36,7,1,4,8.51,6.61,11.59,8.47,6.16,3.74,12.23,7.71,18.54,11.19,2.59,1.42,5.62,2.86,7.22-.55,1.32-2.79,1.3-7.29,1.81-10.33.56-3.33,1.2-6.65,1.66-10,.57-4.16.05-7.19-3.56-9.68-5.2-3.59-12.37-5.84-18.36-7.59-4-1.18-8.18-2.13-11.49,1-1.41,1.33.72,3.45,2.12,2.12,3.25-3.08,10.24.19,13.7,1.44,3.66,1.32,8,2.58,11.17,4.87,5.38,3.87,3.09,9.69,2.18,15.16-.43,2.54-.58,10.59-2.65,11.48s-8.11-4-10.06-5.19l-10.76-6.53-5.8-3.51c-2.89-1.75-4.35-1.6-3.17-6.19,1-3.93,4-8.18,5.71-11.81.84-1.73-1.75-3.26-2.59-1.52Z" transform="translate(-228.17 -25.28)"/><path d="M455.06,780.79c.12,3.05-1.85,5.42-2.22,8.37a11,11,0,0,0,1,6.11c2,4.25,6.45,6.19,10.43,8.19,6.05,3,12.35,7.16,18.76,9.29,3.19,1.06,5.68-.26,7.35-3.14,1.78-3.06,3.57-8.56,2.26-12.05-1.5-4-7.77-5.54-11.2-7.26-6.33-3.18-12.61-6.47-19-9.55-3-1.43-6-2.25-7.21,1.51-.61,1.84,2.29,2.62,2.89.8.42-1.28,19.11,8.48,20.93,9.4,2.7,1.35,7.46,2.76,9.59,4.85s1.29,4.09.74,6.37c-.71,3-1.16,5.24-4.24,5.76-3.41.57-8.42-3.12-11.47-4.64-3.44-1.72-6.9-3.39-10.32-5.15-4.18-2.15-8.07-4.93-7.44-10.28.37-3.1,2.25-5.36,2.13-8.58-.08-1.92-3.08-1.93-3,0Z" transform="translate(-228.17 -25.28)"/><path d="M441.7,805.75c-3.21,4-6.9,8.92-5.34,14.38,1.29,4.49,5.49,6.22,9.51,7.65,3.71,1.32,6.78,2.5,9.11,5.93,1.68,2.49,2.7,5.36,4.37,7.85,2,3,5.2,5.65,8.57,2.86,2.78-2.3,5-6,7.21-8.86,1.44-1.88,3-3.78,3.43-6.17.85-4.81-2.83-8.23-6.84-10.09-3.7-1.73-7.62-2.31-10.72-5.17-2.5-2.31-4.28-5.31-7-7.37-3.42-2.56-7.69-3.56-11.44-1.18-1.63,1-.13,3.62,1.51,2.59,5.32-3.37,9.69,2.44,12.83,5.93a20.35,20.35,0,0,0,7.51,5.68c4.92,2.07,14.32,4,10.18,11.53-1.35,2.46-7.89,12.29-11.21,10.53-2.54-1.34-3.91-6.65-5.41-9.07a15.47,15.47,0,0,0-6.16-5.9c-2.63-1.35-5.6-1.88-8.25-3.17-7.56-3.69-3.59-11,.29-15.82,1.2-1.49-.91-3.63-2.12-2.13Z" transform="translate(-228.17 -25.28)"/><path d="M384.86,802l-38.73,2.57a1.52,1.52,0,0,0-1.5,1.5c1.49,30.73,29.15,57.48,58.18,64.43,17.2,4.11,33.51-2.69,47.79-12,6.07-4,4.11-7.42.3-12.35l-9.12-11.78c-2.45-3.17-4.74-7.09-7.94-9.56s-6.34-2.26-10-1.44c-5.68,1.28-10.83,1.91-16.44-.2-10-3.76-14.07-14.34-21.94-20.78-1.49-1.22-3.62.9-2.12,2.12,5.3,4.34,8.62,10.33,13.41,15.15a26.88,26.88,0,0,0,16,7.85,26,26,0,0,0,7.93-.3c5.3-1,9.31-2.44,13.39,2.18a161.58,161.58,0,0,1,14.62,18.88,7,7,0,0,1,1.63,3.91c.61,3.1.37,2.64-2.07,4.18-1.49.94-3,1.79-4.56,2.67-3.31,1.89-6.68,3.72-10.16,5.28-7.75,3.46-16,5.32-24.49,4.33-15.24-1.77-30-10.74-41-21.16-11.52-11-19.75-25.27-20.53-41.38l-1.5,1.5L384.86,805c1.91-.13,1.93-3.13,0-3Z" transform="translate(-228.17 -25.28)"/><path d="M516.92,402.18a64.8,64.8,0,0,1,29.19,5.88c1.74.79,3.27-1.79,1.51-2.6a68.42,68.42,0,0,0-30.7-6.28c-1.93.06-1.93,3.06,0,3Z" transform="translate(-228.17 -25.28)"/><path d="M468.56,30a58.13,58.13,0,0,1,34.89,2.18c1.8.69,2.59-2.21.8-2.89a60.85,60.85,0,0,0-36.49-2.18c-1.87.46-1.08,3.35.8,2.89Z" transform="translate(-228.17 -25.28)"/></svg>