<svg id="Layer_1" data-name="Layer 1" xmlns="http://www.w3.org/2000/svg" viewBox="0 0 548.35 734.72"><title>sexualviolence</title><path d="M178.2,333.14c8.32-5.16,17.21.5,23,6.7S212.1,353.2,218,359.53c12.1,13.07,25.51,24.81,38.82,36.61l21,18.67c5.48,4.86,10.94,10.85,17.81,13.72,14.2,5.93,22.08-7.61,25.73-19.11,1.17-3.69-4.62-5.27-5.79-1.6-1.8,5.7-4.47,14.06-11,15.87-8.4,2.34-17-8.21-22.49-13.12-13-11.52-26.11-22.92-38.91-34.65a367.08,367.08,0,0,1-34.61-36.7c-8-9.63-20.86-19-33.39-11.26-3.28,2-.27,7.22,3,5.18Z" transform="translate(-169.36 -155.55)"/><path d="M318.92,411.37c-8.1-14.48-17.37-28.26-25.63-42.64a449.47,449.47,0,0,1-22.17-44,445.65,445.65,0,0,1-17.19-46.3q-3.59-11.57-6.54-23.3-1.53-6.08-2.89-12.21c-1-4.4-2.63-9.32-.34-13.55,1.83-3.4-3.35-6.44-5.18-3-3.69,6.84-1.11,14.58.53,21.67q2.82,12.24,6.32,24.29a456.75,456.75,0,0,0,40.07,95.57c8.85,15.77,19,30.76,27.84,46.54,1.88,3.37,7.07.35,5.18-3Z" transform="translate(-169.36 -155.55)"/><path d="M244.94,227.81c1.57-5.2,6.76-6.27,11.63-6.11,6.51.2,10.37,4.22,13.81,9.33,2.15,3.19,7.35.19,5.18-3-5-7.38-10.88-12.42-20.16-12.32-7.37.08-14,3.12-16.25,10.53-1.12,3.71,4.67,5.29,5.79,1.6Z" transform="translate(-169.36 -155.55)"/><path d="M275,241.33c17.47,40.49,38.38,79.31,59.43,118C340,369.5,354.62,389.53,368,377.47c13.86-12.51-1.56-37.33-5.27-51-3.39-12.46-4.87-25.64-6.7-38.41-1.87-13-3.56-26-5.49-38.93-.57-3.81-6.35-2.19-5.78,1.59,3,20.09,5.38,40.27,8.79,60.3a161.85,161.85,0,0,0,7.18,28.52c2.87,7.91,7.2,16.87,6.59,25.5-.78,11-10.77,11.61-17.7,5.4-6-5.36-9.39-13.05-13.15-20-9.37-17.28-18.77-34.55-27.74-52C298.6,278.68,289,258.68,280.18,238.3c-1.52-3.54-6.69-.49-5.18,3Z" transform="translate(-169.36 -155.55)"/><path d="M350.33,238.34c-.39-11.81-3.5-23-7.18-34.18-3.08-9.32-6.69-18.29-4.48-28.24,2-9.11,8.56-14.55,18-14.29,14.34.39,17.42,13.79,20.45,25.18,3.26,12.29,6.16,24.68,9.89,36.84,3.67,12,9.57,23.42,12.35,35.65,2.68,11.85,2,24.41,4,36.39,2.06,12.34,4.83,24.55,7.63,36.74,1.62,7,3.26,14,4.82,21.06,1.11,5,1.44,12.23,6,15.63,3.26,2.44,8.7.28,11.72-1.66A24.25,24.25,0,0,0,443,354.82c1.29-3.65-4.51-5.22-5.78-1.6-1.2,3.4-7.72,13.6-12.16,10.27-1.9-1.44-1.94-4.82-2.4-6.94q-1.2-5.57-2.48-11.12c-2.9-12.75-6-25.47-8.55-38.3s-3.79-25.6-5-38.56c-1.22-12.58-5.66-23.21-9.95-35-4.46-12.24-7.68-24.87-10.91-37.48-2.68-10.49-4.24-23.56-11.23-32.25-11-13.63-34.15-9.73-40.35,6.21-3.26,8.38-2.67,17.85.05,26.26,4.47,13.79,9.62,27.36,10.1,42,.13,3.85,6.13,3.87,6,0Z" transform="translate(-169.36 -155.55)"/><path d="M443.15,354.82c2.38-13,1.93-26,1.86-39.13-.08-13.83,2-26.95,4.08-40.57,4-26.38,2.23-53.05,4-79.58.75-11.34,2.93-27.13,15.56-31.42,16.88-5.74,17,22,18.25,31.8l5.34,40.87c1.78,13.63,4.2,27.36,4.56,41.11.41,15.17-2.54,30.29-3.59,45.39a405.17,405.17,0,0,0-.57,46.1c.16,3.85,6.16,3.87,6,0a405.17,405.17,0,0,1,.57-46.1c1-14.46,3.76-28.9,3.63-43.42-.14-15.37-3-30.78-5-46l-6-45.73c-1.38-10.52-2-24.61-13.27-29.54-10.15-4.43-20.85,3.49-25.69,12-6.42,11.31-6.07,25.8-6.43,38.4-.43,14.78-.24,29.57-1.12,44.34-1,16.24-5,32-6,48.24-1.12,17.21,1.18,34.55-2,51.62-.69,3.78,5.09,5.4,5.79,1.6Z" transform="translate(-169.36 -155.55)"/><path d="M493.09,368.85c-3.93,36.76,14.06,70.38,35.33,98.92,2.28,3.06,7.5.07,5.18-3-20.69-27.77-38.34-60.09-34.51-95.89.41-3.83-5.6-3.8-6,0Z" transform="translate(-169.36 -155.55)"/><path d="M508.59,456.92c12.63,2.16,21.28,12.2,31.31,19.26,11.15,7.85,24.87,10.77,37.81,5.48,27.62-11.29,32.14-45.84,51.77-65.26,9.81-9.71,22.12-16.6,34.84-21.74,6.29-2.54,12.73-4.68,19.23-6.6,6.32-1.86,13.69-4.8,20.36-4.47,10.32.52,8.4,12.29,4.42,18.52-4.1,6.42-10.61,10.78-16.24,15.73-11.89,10.47-20.84,23.94-30.19,36.6-10.17,13.78-21.67,27.37-28,43.49-5.6,14.35-6.9,31.06-17.5,43-2.56,2.88,1.67,7.14,4.24,4.24,9.29-10.46,12.19-23.93,16.12-37,4.83-16,14.18-28.91,24-42.22,10.39-14.08,20.15-29.36,32.89-41.48,9.74-9.26,24.63-17.92,24-33.35-.23-5.46-3.06-10.61-8.35-12.57-5.93-2.2-12.54-.35-18.38,1.2-13.79,3.64-27.49,8.06-40.25,14.5-12.23,6.18-23.56,14.45-32.05,25.31-9.77,12.5-15,27.78-24.32,40.55-11.18,15.27-29.5,24-47.24,13.57-12.51-7.34-21.91-20-36.9-22.57-3.78-.64-5.4,5.14-1.6,5.79Z" transform="translate(-169.36 -155.55)"/><path d="M508.76,623.05c11.14,4,22.16,6.84,33.58,2.22,10.73-4.33,18.69-12.92,25.64-21.89,16-20.62,32.43-40.07,52.1-57.31,2.91-2.55-1.35-6.78-4.24-4.24A338.85,338.85,0,0,0,569,592.12c-7,9.22-13.86,19.17-24,25.16-11.55,6.82-22.71,4.28-34.64,0-3.64-1.31-5.21,4.48-1.6,5.78Z" transform="translate(-169.36 -155.55)"/><path d="M520.9,636.75a36.82,36.82,0,0,0,28.46-13.25c2.45-2.94-1.77-7.21-4.25-4.24a31.05,31.05,0,0,1-24.21,11.49c-3.86,0-3.87,6,0,6Z" transform="translate(-169.36 -155.55)"/><path d="M536.59,628.24c1.67,17.74,7.91,34.26,14.4,50.7l21.3,53.86c13.35,33.77,26.45,67.68,41.46,100.75,8.54,18.81,17.75,37.3,27.94,55.26,1.91,3.35,7.1.33,5.19-3-35.74-62.94-59.89-132-86.43-199.15-7.47-18.88-15.93-38-17.86-58.39-.36-3.81-6.36-3.85-6,0Z" transform="translate(-169.36 -155.55)"/><path d="M378.35,660.28c18.75,20.58,21.55,49.25,26.25,75.47,5.65,31.55,15,62.33,25.65,92.53,6.4,18.28,13.28,36.38,20.17,54.48,1.36,3.57,7.16,2,5.78-1.6-12.27-32.27-24.56-64.6-34.13-97.8-4.53-15.72-8.48-31.63-11.42-47.72-2.43-13.34-4.24-26.82-7.73-39.95-3.89-14.61-10.07-28.4-20.33-39.66-2.6-2.86-6.83,1.4-4.24,4.25Z" transform="translate(-169.36 -155.55)"/><path d="M270.33,470.53c18.24,30.67,33,63.19,47.57,95.7,13.94,31,27.44,61.54,51,86.7,2.65,2.83,6.88-1.42,4.25-4.24-23.59-25.23-36.83-56.13-50.8-87.21-14.35-31.94-28.88-63.85-46.8-94-2-3.32-7.16-.3-5.18,3Z" transform="translate(-169.36 -155.55)"/><path d="M175.12,328.91c-9.91,7-5.1,18.47,0,27,8.34,13.8,18.12,26.62,27.65,39.6,8.71,11.87,17.59,23.91,28.85,33.52,5.64,4.81,12.15,8.42,17.74,13.28a67.9,67.9,0,0,1,14.13,17.3c1.94,3.34,7.13.32,5.18-3-6.49-11.15-15.23-19.25-25.8-26.45-11.58-7.89-20.76-18.78-29.14-29.87C205,388.7,196.28,377,188.16,365c-4-6-19.38-24.3-10-30.91,3.13-2.2.14-7.41-3-5.18Z" transform="translate(-169.36 -155.55)"/><path d="M263.32,459.26c.38,2.23,1.81,3.84,3.09,5.61a65.24,65.24,0,0,1,3.81,6c1.88,3.37,7.07.35,5.18-3-1-1.85-2.14-3.65-3.36-5.39-1.05-1.5-2.62-3-2.94-4.83-.65-3.79-6.44-2.18-5.78,1.6Z" transform="translate(-169.36 -155.55)"/><path d="M369.64,653.59c3.15,2.3,6.54,4.44,9.15,7.37s6.8-1.36,4.24-4.24c-2.93-3.3-6.82-5.72-10.36-8.31a3,3,0,1,0-3,5.18Z" transform="translate(-169.36 -155.55)"/><path d="M350.49,250l-.05-6.06c0-1.92-.34-3.85-.29-5.74.1-3.87-5.9-3.86-6,0,0,1.89.28,3.82.29,5.74l.05,6.06c0,3.86,6,3.87,6,0Z" transform="translate(-169.36 -155.55)"/><path d="M270.32,231.16c1.84,3.19,2.65,6.85,4.74,9.91s7.37.16,5.18-3-2.9-6.72-4.74-9.9c-1.93-3.35-7.12-.33-5.18,3Z" transform="translate(-169.36 -155.55)"/><path d="M419,472.32c-10.72-11.65-25.89-20.09-42.15-18.37-15.6,1.64-28.16,11.94-32.16,27.23-9.38,35.85,25.18,65.85,50,85.34q26.67,20.94,54.67,40.08c3.2,2.18,6.2-3,3-5.18Q430.94,586.74,410.23,571c-12.87-9.79-25.92-19.67-37.19-31.32s-21.66-26-23.53-42.39c-1.72-15.06,5.14-30.58,20.14-35.71,16.82-5.76,33.73,2.64,45.09,15,2.62,2.85,6.86-1.4,4.24-4.24Z" transform="translate(-169.36 -155.55)"/><path d="M422.61,477.15c.68-14.08,7.41-28.56,20.85-34.57,14.83-6.63,29.2.09,37.2,13.36,7.81,13,10.93,28.84,9.58,43.85-1.54,17.21-9.75,33-16.67,48.55l-23.91,53.72c-1.56,3.49,3.61,6.55,5.18,3l25.53-57.35c7.58-17,15.77-34.08,16.15-53.06.59-28.66-18.18-72.26-54-58.17C426,443,417.44,460.11,416.61,477.15c-.19,3.86,5.81,3.85,6,0Z" transform="translate(-169.36 -155.55)"/><path d="M414.36,475.92a31.31,31.31,0,0,0,2.56,3.07,3,3,0,0,0,4.24-4.25c-.35-.36-.7-.74-1-1.12l-.46-.55c-.06-.08-.32-.42,0-.05l-.09-.12a3.28,3.28,0,0,0-1.79-1.38,3.08,3.08,0,0,0-2.32.3,3,3,0,0,0-1.37,1.79,2.87,2.87,0,0,0,.3,2.31Z" transform="translate(-169.36 -155.55)"/></svg>