<svg id="Layer_1" data-name="Layer 1" xmlns="http://www.w3.org/2000/svg" viewBox="0 0 857.18 658.61"><title>cjReform</title><path d="M190.3,256.7c-8.94,5.05-23.73,14.53-20.46,27.14,1.5,5.8,8.44,6.85,13.59,6.65,7-.27,13.48-3.13,19.31-6.78,6.6-4.12,12.83-8.89,19.17-13.39,5.79-4.1,11.78-8.07,17-12.87,9.33-8.54,16.13-21.33,11.39-34-1.34-3.58-7.15-2-5.79,1.6,8.18,21.89-21.11,36.88-35.4,47-8,5.64-19.46,15.22-30.07,12.17-6.54-1.89-2.12-9.35.93-12.82,3.63-4.14,8.58-6.84,13.32-9.51,3.36-1.9.34-7.08-3-5.18Z" transform="translate(-23.85 -118.95)"/><path d="M246.21,221.39a640.85,640.85,0,0,1-54.91,33.52c-3.39,1.84-.37,7,3,5.18a639.14,639.14,0,0,0,54.9-33.52c3.18-2.16.18-7.36-3-5.18Z" transform="translate(-23.85 -118.95)"/><path d="M194.51,258.38c.52-4.28,8.78-9.35,11.86-11.59a107.24,107.24,0,0,1,12.31-7.68c3.4-1.83.38-7-3-5.18a110.7,110.7,0,0,0-17,11.26c-4.46,3.6-9.43,7.18-10.16,13.19-.47,3.82,5.53,3.79,6,0Z" transform="translate(-23.85 -118.95)"/><path d="M174.31,257.75c8.12-19.74,27.43-27.08,45.5-35.25,3.51-1.59.46-6.76-3-5.18-10.44,4.72-21.57,8.87-30.74,15.89a54.93,54.93,0,0,0-17.51,22.94c-1.47,3.57,4.33,5.12,5.78,1.6Z" transform="translate(-23.85 -118.95)"/><path d="M158.17,321.41c-1.14,6.9,3.54,9.27,7.43,14,4.91,6,2.53,15.42-3.25,19.86-3,2.32,0,7.54,3,5.18A21.6,21.6,0,0,0,174.2,344a19.1,19.1,0,0,0-2.08-9.65c-1.78-3.31-8.83-7.31-8.17-11.36.62-3.78-5.16-5.4-5.78-1.6Z" transform="translate(-23.85 -118.95)"/><path d="M160.93,323.93c4.3-.05,12.42-1.51,16.07,1.11.92.66,1.25,1.66,2.35,2.27s2.56.61,3.8,1c5.15,1.84,4.44,7.2,4.67,11.73l.71,14.42c.2,3.84,6.2,3.87,6,0-.31-6.44-.44-12.92-1-19.34-.33-4-1.21-8.31-4.71-10.79-1.89-1.33-4.58-1.14-6.32-2.31-1.41-.94-2.07-2.57-3.95-3.33-5.06-2-12.31-.86-17.65-.8-3.86.05-3.87,6.05,0,6Z" transform="translate(-23.85 -118.95)"/><path d="M191.14,255.92c-14-.75-28.83.37-40.32,9.27s-14.7,24.7-19.53,37.61c-2.51,6.71-5.2,13.42-3.91,20.71,1.17,6.58,4.76,13.23,8.33,18.8,6.64,10.36,18.22,18.82,31,14.54,3.64-1.22,2.08-7-1.59-5.79-12.5,4.2-21.84-6.83-27.07-16.71-2.85-5.39-5.63-11.06-4.85-17.3s3.71-12.18,5.87-17.95c4.11-11,6.93-23.56,17.23-30.5s23-7.31,34.85-6.68c3.86.2,3.85-5.8,0-6Z" transform="translate(-23.85 -118.95)"/><path d="M145.69,353c-1.39,4.75,1.9,9,6.53,10,5.07,1.1,10.65-1,14.67-4,3.07-2.28.08-7.49-3-5.18a16.73,16.73,0,0,1-6.41,3.12c-1.68.38-6.94.89-6-2.37,1.08-3.71-4.71-5.3-5.79-1.59Z" transform="translate(-23.85 -118.95)"/><path d="M130.25,336.43c-.14,1.79-1.79,3.71-2.22,5.52a18.18,18.18,0,0,0-.24,5.05c.23,4.74.74,9.48,1.12,14.21.3,3.82,6.3,3.85,6,0-.38-4.73-.89-9.47-1.12-14.21-.2-3.95,2.17-6.78,2.46-10.57s-5.7-3.83-6,0Z" transform="translate(-23.85 -118.95)"/><path d="M159.68,318.33c-5.87.93,2.84-20.14,3.72-21.64,2.15-3.64,4.27-5.43,8.59-5.58,3-.09,5.4.25,8.24-.82,3.57-1.36,2-7.16-1.6-5.79-5.26,2-10.58-.62-15.48,3.09-4.22,3.2-6.68,8.85-8.52,13.64-2.71,7.08-6.79,25,6.65,22.89,3.8-.6,2.19-6.39-1.6-5.79Z" transform="translate(-23.85 -118.95)"/><path d="M179.56,289.72c3.85,10-2.38,20.5-6.2,29.64-1.48,3.56,4.32,5.11,5.79,1.59,4.3-10.28,10.53-21.54,6.2-32.82-1.37-3.57-7.18-2-5.79,1.59Z" transform="translate(-23.85 -118.95)"/><path d="M203.9,281.09c5.1,10.27.79,19.57-2.92,29.44-3.38,9-6.33,18.27-11.58,26.37-2.1,3.25,3.09,6.26,5.18,3,6.17-9.53,9.52-20.73,13.49-31.28s6.3-19.94,1-30.58c-1.72-3.46-6.89-.43-5.18,3Z" transform="translate(-23.85 -118.95)"/><path d="M222.29,239.89c-.49-9.83.58-22.11,6.73-30.27,5.71-7.56,18.83-9.59,27.45-12.06,9.77-2.8,20.7-6.7,30.69-2.82,4.28,1.66,8.12,4.4,11.83,7,4.34,3.1,8.58,6.16,11.08,11,1.77,3.43,6.95.4,5.18-3-2.47-4.78-6.38-8.1-10.64-11.26-4.52-3.36-9.16-6.72-14.38-8.92-11.63-4.93-23.81-1.1-35.36,2.2-10,2.88-23.54,5.19-30.37,13.88-7.19,9.13-8.77,23-8.21,34.24.19,3.85,6.19,3.87,6,0Z" transform="translate(-23.85 -118.95)"/><path d="M281.45,219.77c16.21-1.21,32.42-2.57,48.65-3.53,7.78-.46,15.58-.78,23.37-.79,3.9,0,7.8.07,11.69.26,2.42.11,4.41-.15,6.14,1.71s1.39,4.07,1.05,6.52c-.52,3.77,5.26,5.41,5.79,1.59.82-6,.57-13-6.34-15.08-3.92-1.15-8.45-.85-12.48-.94-5.2-.11-10.39-.06-15.58.1-20.79.63-41.56,2.61-62.29,4.16-3.83.29-3.86,6.29,0,6Z" transform="translate(-23.85 -118.95)"/><path d="M277.19,217.25c1,8.43,7.4,16.86,14.2,21.75,7.9,5.69,20.35,3.8,29.53,4,19.47.45,42.2.51,55.41-16.36,2.35-3-1.86-7.28-4.24-4.24-10.94,14-29.19,15-45.58,14.72-8.47-.15-17.84.67-26.18-.84-7.54-1.37-16.26-11.51-17.14-19-.44-3.79-6.44-3.84-6,0Z" transform="translate(-23.85 -118.95)"/><path d="M316,214.15c2.32-3.9,8.27-3.5,12.18-3.58a98.39,98.39,0,0,1,13.73.73c3.83.45,3.79-5.55,0-6-9-1.07-25.46-3.63-31.09,5.83-2,3.32,3.2,6.34,5.18,3Z" transform="translate(-23.85 -118.95)"/><path d="M345.23,212.09c4.08-14.18,18.57-21.19,32.36-22.2a101.42,101.42,0,0,1,24.22,1.62c7.2,1.21,14.27,3.08,20.31,7.34a38.07,38.07,0,0,1,12.28,14.59c2.76,5.72,6.07,16.95-.56,21.34-7.28,4.81-9.54-6.65-13.33-10.7-4.1-4.38-9.75-7.51-15-10.35-6.79-3.69-36.37-12.31-34.15,3.22.54,3.8,6.32,2.19,5.78-1.6-.24-1.7,11.64-.62,12.79-.49a38.52,38.52,0,0,1,14.87,5.36,61.85,61.85,0,0,1,9.36,6.14c3.57,3,4.59,6.63,6.88,10.48,2.93,4.94,8.92,6.2,14,4,5.83-2.52,8.4-8.51,8.49-14.59.21-13.55-9.05-26.85-20.22-33.77-6.82-4.22-14.68-6-22.52-7.16-8.56-1.3-17.27-2.17-25.92-1.19-15.6,1.77-30.92,10.52-35.47,26.37-1.07,3.71,4.71,5.3,5.78,1.59Z" transform="translate(-23.85 -118.95)"/><path d="M405.39,220c-2.07,5.63-5.6,12.07-6.1,18.1-.42,5,2,10.65,5,14.59,7.67,10,20.24,6,29.87,12,3.3,2,6.31-3.16,3-5.18-7.91-4.88-19.21-2.21-26.23-8.35-3.74-3.27-6.35-9.1-5.38-14,1-5.2,3.79-10.52,5.61-15.49,1.34-3.63-4.46-5.19-5.78-1.59Z" transform="translate(-23.85 -118.95)"/><path d="M371.77,224.51c0,4.92,4.1,6,8.25,6.52,7.32.85,14.66,1.55,22,2.33,3.84.41,3.81-5.6,0-6-2.08-.22-24.24-2-24.24-2.85,0-3.86-6-3.87-6,0Z" transform="translate(-23.85 -118.95)"/><path d="M351.73,237.84c3.53,9,11.95,12.63,21,14.24,11.81,2.11,23.72,3.72,35.56,5.57,3.78.59,5.41-5.19,1.6-5.79l-28.43-4.43c-8.36-1.3-20.31-2-23.91-11.19-1.39-3.55-7.2-2-5.79,1.6Z" transform="translate(-23.85 -118.95)"/><path d="M428.61,201.09c7.51-4.18,16.2-2.84,23.8.43,3.51,1.52,6.57-3.65,3-5.18-9.65-4.15-20.31-5.74-29.86-.44-3.37,1.88-.35,7.06,3,5.19Z" transform="translate(-23.85 -118.95)"/><path d="M438.42,219.27a7,7,0,0,1,5.73,4.12c1.7,3.47,6.88.43,5.18-3a13,13,0,0,0-10.91-7.09c-3.85-.28-3.83,5.72,0,6Z" transform="translate(-23.85 -118.95)"/><path d="M436.74,241.18a15.32,15.32,0,0,0,7.49-1,3.09,3.09,0,0,0,2.1-3.69,3,3,0,0,0-3.7-2.09,11.5,11.5,0,0,1-5.89.74c-1.61-.2-3,1.52-3,3a3.08,3.08,0,0,0,3,3Z" transform="translate(-23.85 -118.95)"/><path d="M301.84,199.38c7.23-5.11,15.75-6.14,24.39-6.32,9.21-.2,18.73-.44,27.42,3,3.58,1.42,5.14-4.38,1.59-5.79-9.59-3.82-20.43-3.53-30.59-3.19-9.11.31-18.24,1.73-25.84,7.1-3.12,2.21-.13,7.41,3,5.18Z" transform="translate(-23.85 -118.95)"/><path d="M250.22,223.55c1-4.54,10.76-5,14.24-5.42,1.42-.18,13.69-2.41,14.06-1.82,2.08,3.23,7.28.23,5.18-3-1.4-2.19-3.27-2.73-5.8-2.7-5.18.06-10.62,1.17-15.76,1.85-6.19.83-16,2.18-17.71,9.52-.86,3.76,4.93,5.37,5.79,1.6Z" transform="translate(-23.85 -118.95)"/><path d="M247.33,237c4,4.86,9.9,4.2,15.48,3.29A123.41,123.41,0,0,0,286,234c3.59-1.35,2-7.15-1.59-5.79a125.35,125.35,0,0,1-15.95,4.87c-4.8,1.1-13.3,4.14-16.91-.31-2.44-3-6.66,1.27-4.25,4.24Z" transform="translate(-23.85 -118.95)"/><path d="M238.51,258.44c3.87,0,3.87-6,0-6s-3.86,6,0,6Z" transform="translate(-23.85 -118.95)"/><path d="M236.86,257.3c9.59,11.59,26.61,5.38,38.81,2.67,7.22-1.6,15-2.6,21.88-5.29,6.31-2.47,10.83-7.35,15.17-12.35,2.51-2.91-1.71-7.17-4.25-4.25-4,4.6-8.07,9.32-14,11.35-5.33,1.83-11.09,2.69-16.59,3.91-6,1.33-12,2.88-18.11,4-6.75,1.24-13.92,1.48-18.67-4.26-2.46-3-6.68,1.29-4.24,4.24Z" transform="translate(-23.85 -118.95)"/><path d="M80.47,386.48c-1.35-8.74,9.52-12,16-13.26,8.78-1.71,17.83-2.25,26.7-3.42l53.18-7c8.73-1.15,17.48-2.19,26.19-3.47,6.13-.9,16.48-4.24,21.14,1.55,3.63,4.51,2.23,12.2,2.42,17.59.32,9.28,1,18.54,1.93,27.79,2,20.59,4.85,41.08,7.1,61.65.41,3.79,6.42,3.84,6,0-2.36-21.55-5.42-43-7.38-64.62-.9-9.9-1.71-19.86-1.72-29.8,0-5.94-.06-12.93-4.57-17.45-5.12-5.12-13-4.61-19.53-3.63q-15.28,2.25-30.59,4.26c-21.17,2.8-42.33,5.93-63.54,8.36-13.52,1.55-42.34,2.43-39.14,23.07.59,3.81,6.37,2.19,5.78-1.59Z" transform="translate(-23.85 -118.95)"/><path d="M129,360.29a9.2,9.2,0,0,0,.26,4.42,3,3,0,1,0,5.78-1.59c-.06-.2-.13-.39-.17-.59s0-.2-.07-.3,0-.14,0,.29c-.13,0,.12-1.74,0-.63a3.25,3.25,0,0,0-.3-2.31,3.08,3.08,0,0,0-1.8-1.38c-1.42-.33-3.43.44-3.69,2.09Z" transform="translate(-23.85 -118.95)"/><path d="M189.23,353.65l0,.07,1.08-1.07-.07.05.72-.31-.08,0,.8-.1h-.09l.8.1-.09,0,.72.3c-.46-.23-.19.05.83.84l.41,1.52V355l-.11.79,0-.08a3,3,0,0,0-4.41-3.39,3.5,3.5,0,0,0-1.38,1.8,3.26,3.26,0,0,0,1.6,3.78,3.34,3.34,0,0,0,4.47-1.19,3,3,0,1,0-5.19-3Z" transform="translate(-23.85 -118.95)"/><path d="M170.89,260.74c3.86,0,3.86-6,0-6s-3.87,6,0,6Z" transform="translate(-23.85 -118.95)"/><path d="M193.63,261.88l6.87-4.36c3.26-2.06.25-7.25-3-5.18l-6.88,4.36c-3.25,2.07-.24,7.26,3,5.18Z" transform="translate(-23.85 -118.95)"/><path d="M217.73,222.92a6.34,6.34,0,0,0,5.76-3.29,3,3,0,1,0-5.18-3c0,.07-.18.25-.18.32,0-.11.44-.47.13-.17a1.29,1.29,0,0,0-.27.25c.1-.19.53-.35.08-.1-.08,0-.48.25-.06,0s0,0-.08,0c-.29.13.58,0,.26,0-.16,0-.31,0-.46,0a3,3,0,0,0-3,3,3.06,3.06,0,0,0,3,3Z" transform="translate(-23.85 -118.95)"/><path d="M474.7,219.42c-13.81-.2-19.14,23.9-4.19,26,5,.71,9.31-.56,14.25,1.21,3.82,1.36,8.53,3.48,12.69,3.26,2.92-.15,3.54-2.11,4.4-4.58,1.61-4.63,3.09-9.32,4.64-14a3,3,0,0,0-1.38-3.39c-4.92-2.57-10.11-3.23-15.49-4.27s-10.3-4.06-15.88-4.32c-3.86-.18-3.85,5.82,0,6,4.88.23,9.47,3.17,14.29,4.11s9.65,1.36,14.05,3.66l-1.38-3.39-2.61,7.86c-.79,2.39-1.31,5.63-2.69,7.74l2.59-1.49c-6.91.53-13-4.76-20-4.58-4,.1-9.22,1.81-10.27-3.7-.88-4.58,1.93-10.25,7-10.18,3.86.06,3.86-5.94,0-6Z" transform="translate(-23.85 -118.95)"/><path d="M467.53,159.07c-1.36,10.71-7.16,20.92-10.78,31-3.86,10.76-7.22,21.69-10.48,32.65-6.53,21.94-13,43.91-19.44,65.87-1.1,3.71,4.69,5.3,5.78,1.59,6.66-22.56,13.25-45.15,20-67.7,3.28-10.95,6.67-21.87,10.59-32.61,3.7-10.14,9-20,10.34-30.8.48-3.82-5.52-3.78-6,0Z" transform="translate(-23.85 -118.95)"/><path d="M473.64,159.27c2.19-5.87,13.12-3.09,17.37-2.25,4.45.87,8.89,1.79,13.33,2.69l28.56,5.76c19.27,3.89,38.64,7.47,57.68,12.38,2.53.66,5,1.32,7.56,2,1.07.29,2.13.61,3.18.94l1.58,5c-.11,1.65-2.74,4.56-3.61,6q-1.83,3-3.65,6.06c-4.55,7.6-8.95,15.3-12.94,23.21-7.76,15.38-13.89,31.56-16.27,48.7-.53,3.77,5.25,5.41,5.78,1.59,2.31-16.63,8.14-32.33,15.67-47.27,3.72-7.38,7.81-14.57,12-21.68,2.11-3.55,4.26-7.06,6.4-10.59,1.68-2.78,3.71-5.86,3.47-9.27-.47-6.84-8.6-8.05-13.82-9.46-8.82-2.38-17.72-4.41-26.66-6.3-17.91-3.81-35.89-7.31-53.84-10.93-9.69-2-19.48-4.54-29.29-5.72-7.08-.85-15.5,0-18.31,7.56-1.35,3.62,4.44,5.19,5.78,1.59Z" transform="translate(-23.85 -118.95)"/><path d="M74.28,388.1c.91,18.8,3.31,38.25,1.62,57-.88,9.83-3.59,19.39-6.75,28.71-3.06,9-6.21,18.21-10.16,26.9-6.87,15.13-17.57,28-24,43.45a151.45,151.45,0,0,0-10.77,47.3,184.44,184.44,0,0,0,4.67,54.61c.87,3.76,6.66,2.17,5.78-1.59-7.43-32-6.86-66.41,5.48-97.17C46.66,531.21,58,517.9,65,502s13.52-33.21,16.16-50.42c3.19-20.74.18-42.67-.83-63.52-.18-3.84-6.18-3.86-6,0Z" transform="translate(-23.85 -118.95)"/><path d="M235.5,467.77c-.45,4.18.72,8.75-.46,12.8-1.72,5.9-8.39,3.89-13,3.36-9.85-1.14-19.7-2.32-29.6-2.91-18.85-1.14-37.56.33-55.42,6.8-16,5.8-32.81,14-45,26.12C80.21,525.62,72.6,542,67.54,557.64a141.45,141.45,0,0,0-6,59c.42,3.79,6.43,3.84,6,0a137.42,137.42,0,0,1,4.73-54.11c5-16.81,13.13-34.81,26.42-46.67,13.76-12.27,32.7-20.88,50.39-25.55,19.18-5.05,39.13-4,58.66-2,5.41.56,10.81,1.21,16.21,1.83,3.76.43,7.94,1.22,11.46-.65,8-4.28,5.29-14.5,6.07-21.73.42-3.83-5.58-3.8-6,0Z" transform="translate(-23.85 -118.95)"/><path d="M61.81,616.69c2.54,47.4,37.12,84.21,77.05,105.83,20.79,11.26,43.52,17.42,67.26,16.12a118.37,118.37,0,0,0,61.25-20.87,122.14,122.14,0,0,0,42.66-53c1.49-3.56-4.31-5.11-5.79-1.6-15.64,37.26-51,64.31-91.26,68.88C169.36,737,125.75,714.8,96.89,682.91c-16.53-18.26-27.75-41.43-29.08-66.22-.2-3.84-6.2-3.87-6,0Z" transform="translate(-23.85 -118.95)"/><path d="M311.24,664.48c10.28-30.83,13.56-64.93,2.3-96-10.65-29.36-32.72-49.72-60.75-62.5-14.71-6.7-31.07-13.21-47.12-15.64-14.89-2.26-31.18,1.35-45.59,5.13-12.91,3.37-25.72,8.28-36.74,15.91-12.15,8.41-20.22,19.52-26.73,32.65-8.09,16.33-14.67,33.4-16.81,51.61a119.52,119.52,0,0,0,6.66,55.08c1.33,3.59,7.13,2,5.79-1.6-11.17-30.35-8.36-61.95,4.48-91.27,5.72-13.06,12-26.25,22.82-35.92,9.52-8.54,21.35-14.21,33.42-18.14,12.89-4.19,26.87-7.29,40.42-8,15.84-.82,32.06,5.54,46.61,11.25,27.39,10.73,51.47,27.35,64.27,54.62,15,31.92,12.07,68.53,1.19,101.2-1.23,3.67,4.57,5.24,5.78,1.59Z" transform="translate(-23.85 -118.95)"/><path d="M86.43,650.25a17.26,17.26,0,0,0,3.83,9.41A76.77,76.77,0,0,1,98,671.52a108.56,108.56,0,0,0,15.72,22.73A169.65,169.65,0,0,0,157,729.69c3.36,1.93,6.38-3.25,3-5.18a164.69,164.69,0,0,1-39.87-32c-5.8-6.4-11.42-13.21-15.45-20.88-1.9-3.63-3.49-7.4-5.89-10.74s-6.06-6.34-6.39-10.65c-.28-3.83-6.28-3.86-6,0Z" transform="translate(-23.85 -118.95)"/><path d="M222.19,358.26c8.32,2.49,17.91,9,20.38,17.6,2.64,9.14,3.58,18.87,4.2,28.32,1.29,19.28.55,38.64,2.91,57.85.46,3.79,6.47,3.83,6,0-2.74-22.28-1.27-44.81-3.71-67.12-1-8.82-1.53-20.29-6.68-27.83-4.56-6.65-13.92-12.34-21.5-14.6-3.71-1.11-5.3,4.68-1.6,5.78Z" transform="translate(-23.85 -118.95)"/><path d="M244.51,466.12c11.68-.2,23.42-.79,35.1-.56,6.14.12,11.08,1.87,14.26,7.44,2.75,4.8,3.59,10.45,5.63,15.55,6.63,16.6,23.6,25,33.08,39.5,2.11,3.22,7.3.22,5.18-3-5.2-8-12.33-14.11-19.14-20.64a69.86,69.86,0,0,1-9.91-11.14c-3.32-4.94-4.76-10.41-6.61-16-3-9.18-8.35-16.24-18.47-17.43-6-.71-12.19-.16-18.2-.06l-20.92.36c-3.85.06-3.87,6.06,0,6Z" transform="translate(-23.85 -118.95)"/><path d="M331.83,527.63c10,14.61,17.84,30.67,21.9,48,4.44,18.88,3.09,38,0,57-5.76,34.84-19.52,69.08-46.94,92.46-2.94,2.51,1.32,6.74,4.25,4.25,21.55-18.39,35.43-43.89,43.11-70.9,8.14-28.63,12.23-60.38,4.11-89.43A150.63,150.63,0,0,0,337,524.6c-2.17-3.16-7.38-.16-5.18,3Z" transform="translate(-23.85 -118.95)"/><path d="M305.11,726.18c-9.68,12-23,19.72-36.9,25.78a238.6,238.6,0,0,1-47.93,14.91c-3.79.76-2.19,6.54,1.59,5.78a243.57,243.57,0,0,0,49.37-15.51c14.35-6.27,28.13-14.4,38.11-26.72,2.41-3-1.81-7.24-4.24-4.24Z" transform="translate(-23.85 -118.95)"/><path d="M29.31,645.91c8.11,23,15.89,46.61,31.18,66,15.89,20.14,38.18,36.49,60,49.67,3.31,2,6.33-3.18,3-5.18-21-12.69-42.13-28.26-57.7-47.41C50.54,690.23,43,666.78,35.09,644.32c-1.27-3.62-7.07-2.06-5.78,1.59Z" transform="translate(-23.85 -118.95)"/><path d="M122.16,762c15.27,5.66,30.71,11.35,46.84,14a105.43,105.43,0,0,0,23.06,1.44c7.51-.42,15.92-.61,23.23-2.45,11.12-2.79,21.63-13.12,20.81-25.23a18.46,18.46,0,0,0-6.71-13.36c-5.06-4-11.66-4.11-17.8-4-3.86.07-3.87,6.07,0,6,5.49-.08,11.89-.26,15.76,4.33,3.65,4.32,3.49,10.83.87,15.58-6.49,11.76-19.75,11.6-31.46,12.76-25.42,2.52-49.55-6.14-73-14.83-3.62-1.35-5.19,4.45-1.59,5.78Z" transform="translate(-23.85 -118.95)"/><path d="M241.16,464.25l.24,15c.07,4.88.13,10.68-6.5,10.28-3.86-.23-3.84,5.77,0,6,16.62,1,12.42-21.12,12.26-31.28-.06-3.85-6.06-3.87-6,0Z" transform="translate(-23.85 -118.95)"/><path d="M160.38,375.67c-8.51-2.38-18.28,0-20.33,9.79-1,4.53,1.06,8.67,2.13,13,1.52,6,1,12.81,1.18,19,0,1.46,1.35,3.21,3,3L157,419.07c2.35-.3,5.46-.1,7.58-1.32,3.87-2.25,2.31-9.48,2.24-13.13-.07-3.29-.28-6.57-.41-9.86-.13-3,.83-5.69.94-8.64a11.57,11.57,0,0,0-7.18-11c-3.52-1.49-6.58,3.67-3,5.18,5.1,2.17,3.86,6,3.34,10.39-.51,4.27.21,8.76.31,13.05.05,2.11.08,4.22.06,6.33,0,1.21,0,2.42,0,3.62.12-1-.26-1.35-1.14-.94-4.38.8-8.91,1.13-13.33,1.69l3,3c-.19-7,.31-14.54-1.59-21.38-.92-3.3-2.78-6.83-1.6-10.3,1.89-5.58,7.84-5.62,12.62-4.28,3.72,1,5.31-4.75,1.59-5.79Z" transform="translate(-23.85 -118.95)"/><path d="M427.33,289.37a15.23,15.23,0,0,0,3.3,17c5.74,5.59,13.36,4.33,20.68,5.12a135.62,135.62,0,0,1,54.27,18.35c27.41,16.84,43.9,45.9,62,71.47,2.21,3.12,7.42.13,5.18-3-16.84-23.77-32.08-49.82-55.62-67.73-13.22-10.05-28.87-16.26-44.74-20.82a114.72,114.72,0,0,0-26.7-4.67c-4-.17-7.75.05-10.85-2.93-3.26-3.15-3.4-7.21-1.75-11.19,1.48-3.56-4.32-5.11-5.79-1.59Z" transform="translate(-23.85 -118.95)"/><path d="M427.18,303.72c8.13,24.88,39.13,22.56,59.58,28.42a119.38,119.38,0,0,1,59.38,39.4c2.44,3,6.66-1.27,4.24-4.24a125.3,125.3,0,0,0-53.07-38c-11.19-4.2-22.64-5.8-34.33-7.87-11.94-2.12-25.84-6.53-30-19.32-1.2-3.65-7-2.08-5.79,1.6Z" transform="translate(-23.85 -118.95)"/><path d="M566.84,269.78c-8,42.81,12,86.72,44.54,114.33,17,14.4,37.07,24.21,59.37,26.39,22.7,2.22,46.58-1.13,68.17-8.31,23.18-7.7,44.52-20.43,61.49-38.08,2.67-2.79-1.56-7-4.24-4.25-28.94,30.1-70.78,45.05-112.1,45.21a101.41,101.41,0,0,1-62-20.08,130.23,130.23,0,0,1-39-46.47c-10.33-20.67-14.73-44.3-10.46-67.15.71-3.77-5.07-5.39-5.78-1.59Z" transform="translate(-23.85 -118.95)"/><path d="M800.47,364.18a237.41,237.41,0,0,0,19.3-27.89c5.59-9.52,9.79-19.48,14.51-29.41,4.26-8.95,12-16.44,22.64-15.86,10.9.6,12.17,12.7,10.82,21.2-.6,3.77,5.18,5.4,5.78,1.59,1.38-8.68,1.07-19.38-6.51-25.28-8.22-6.4-20.62-3.27-28.29,2.51-9.47,7.12-12.52,20.32-17.67,30.43a226.81,226.81,0,0,1-24.82,38.46c-2.39,3,1.83,7.26,4.24,4.25Z" transform="translate(-23.85 -118.95)"/><path d="M729.08,169c31,4.74,59,17.43,79.77,41.47,19.9,23.08,31.6,53.47,25.74,84-.72,3.78,5.06,5.39,5.79,1.6,6.09-31.73-5.09-62.92-25.25-87.43-21.48-26.13-51.4-40.38-84.45-45.43-3.78-.58-5.41,5.2-1.6,5.78Z" transform="translate(-23.85 -118.95)"/><path d="M602.57,226.07c6.67-12.28,17.57-20.09,28.56-28.2s23-15.25,36.23-19.45c3.66-1.17,2.1-7-1.6-5.79-14.3,4.54-27.16,12.16-39.11,21.13-11.3,8.49-22.36,16.57-29.26,29.28-1.84,3.4,3.34,6.43,5.18,3Z" transform="translate(-23.85 -118.95)"/><path d="M582.86,337.87C580.69,321,580,304,582,287.09c2.12-17.83,7.9-34.37,15.3-50.64,1.59-3.49-3.58-6.54-5.18-3-7.49,16.46-13.4,33.07-15.79,51.07-2.35,17.74-1.8,35.67.49,53.38.49,3.78,6.49,3.83,6,0Z" transform="translate(-23.85 -118.95)"/><path d="M666.76,178.35a173.48,173.48,0,0,1,63.47-9.29c3.86.15,3.85-5.85,0-6a178.49,178.49,0,0,0-65.07,9.51c-3.63,1.24-2.07,7,1.6,5.78Z" transform="translate(-23.85 -118.95)"/><path d="M786.47,420.26c37.77-21.29,67.78-55.32,83.09-96,1.36-3.61-4.43-5.18-5.78-1.59-14.76,39.17-44,71.89-80.33,92.38-3.37,1.9-.35,7.09,3,5.18Z" transform="translate(-23.85 -118.95)"/><path d="M575,410.3c10.33,8.23,20.2,17.18,31.41,24.22,10.93,6.86,23.19,10.57,35.64,13.58,27.6,6.66,55.92,10.63,84.34,8.16,26.11-2.27,52-9.7,74.41-23.47,21.09-12.94,38.6-31.09,52.53-51.42A232.93,232.93,0,0,0,875.8,340c2.65-6.31,4.82-13.05,4.63-20s-3-13.07-6-19.2c-1.7-3.47-6.88-.43-5.18,3,2.81,5.74,5.35,11.34,5.13,17.89-.24,7-3,13.76-5.94,20.07a249.26,249.26,0,0,1-18.39,33.6c-13,19.7-29.5,37.43-49.39,50.33-44,28.53-99,29.76-148.66,18.53-13-2.93-26.38-5.85-38.14-12.29-12.7-7-23.43-17-34.68-25.93-3-2.39-7.26,1.83-4.24,4.24Z" transform="translate(-23.85 -118.95)"/><path d="M597.33,236.41a68.89,68.89,0,0,0,5.93-11.95c1.35-3.62-4.45-5.19-5.78-1.59a61.08,61.08,0,0,1-5.34,10.51c-2,3.31,3.18,6.33,5.19,3Z" transform="translate(-23.85 -118.95)"/><path d="M568.17,401.78l4,5.27c1.18,1.54,2.26,3.37,4,4.3,3.42,1.79,6.46-3.39,3-5.18-1.09-.57-1.91-2.2-2.65-3.15l-3.26-4.27a3.11,3.11,0,0,0-4.11-1.07c-1.26.74-2.06,2.81-1.07,4.1Z" transform="translate(-23.85 -118.95)"/><path d="M869.38,324.33a31.6,31.6,0,0,0,4.13-10.85c.67-3.77-5.11-5.39-5.79-1.59a26.69,26.69,0,0,1-3.52,9.41c-2,3.31,3.17,6.32,5.18,3Z" transform="translate(-23.85 -118.95)"/><path d="M589.79,174.29l11.53-20.41c3.21-5.68,6.1-12.88,11-17.32,5.45-4.89,12.59-3.08,18.95-1.4s12.28,3.23,18.8,2.36c6-.81,11.61-3.2,17.34-5.08a124.77,124.77,0,0,1,21.49-4.9,260.15,260.15,0,0,1,44.1-2.33c15.43.48,29.32,5.42,43.36,11.46,12.69,5.45,25.24,11.37,36.67,19.2a143.14,143.14,0,0,1,58.7,149.48c-.83,3.76,5,5.37,5.78,1.59,12.16-55.47-8.06-114.28-52.64-149.71-11.06-8.8-23.26-15.7-36.09-21.59-13.85-6.35-28.28-13.06-43.46-15.36-15.41-2.33-31.67-1.16-47.13.22a167.59,167.59,0,0,0-21.74,3.22c-7.31,1.64-14.16,4.46-21.33,6.56-9.18,2.68-16.5.38-25.45-1.73-6.3-1.49-13-2-18.75,1.55-5.93,3.72-9.11,10.64-12.42,16.5l-13.93,24.66c-1.9,3.36,3.28,6.39,5.18,3Z" transform="translate(-23.85 -118.95)"/></svg>