<svg id="drawing" xmlns="http://www.w3.org/2000/svg" viewBox="0 0 932.61 482.48"><title>partnersLogo</title><path d="M50.83,733.48c10.3-31.48,16.71-64.54,23-97,6.12-31.68,10.14-63.66,8.49-96-.87-16.93-2.42-34.82,5.31-50.5,1.71-3.46-3.47-6.5-5.18-3-6.29,12.75-7.2,26.72-6.74,40.73.52,15.94,1.47,31.7.48,47.66-2.13,34.23-9.62,67.83-16.92,101.25-4.07,18.6-8.29,37.17-14.21,55.28-1.21,3.68,4.58,5.26,5.78,1.6Z" transform="translate(-44.88 -253.07)"/><path d="M87.76,489.14a592.81,592.81,0,0,0,29.08-68.52c3.86-11,7.11-22.13,10.65-33.21,3.15-9.85,7.27-20.06,16.52-25.62,3.3-2,.29-7.18-3-5.19-8.21,4.95-13.1,12.86-16.59,21.59-4.36,10.94-7.12,22.54-10.88,33.69a581.49,581.49,0,0,1-30.93,74.24c-1.72,3.44,3.46,6.48,5.18,3Z" transform="translate(-44.88 -253.07)"/><path d="M145.5,360.38c1.94-2.21,4.2-4.12,5.89-6.55,1.82-2.61,3.15-5.55,4.7-8.32a169.38,169.38,0,0,1,11.72-18.13c2.29-3.11-2.92-6.11-5.18-3a172,172,0,0,0-10.84,16.56c-1.39,2.43-2.62,4.94-4,7.36-1.75,3.05-4.23,5.26-6.52,7.87-2.54,2.89,1.68,7.15,4.24,4.24Z" transform="translate(-44.88 -253.07)"/><path d="M169.72,325.75a373.79,373.79,0,0,1,22.82-54.56c1.78-3.46,4.12-10.63,8.31-11.84,5.11-1.48,9.12,3.66,10.57,7.84,3.18,9.16,2,20.05-.57,29.18-1,3.72,4.74,5.31,5.79,1.59,3-10.66,4.25-23.72-.13-34.21-3.27-7.82-13.2-14.42-21.07-8.24-4.09,3.21-6.22,9-8.51,13.49q-4.5,8.75-8.52,17.74a387.07,387.07,0,0,0-14.47,37.42c-1.21,3.67,4.58,5.25,5.78,1.59Z" transform="translate(-44.88 -253.07)"/><path d="M214.83,273c13,13.41,12.92,34.55,8.55,51.53-4.76,18.49-15,34.85-25,50.86-2.06,3.28,3.13,6.29,5.18,3,11.24-17.9,22.68-36.45,26.82-57.49,3.5-17.83,2-38.49-11.28-52.16-2.69-2.78-6.93,1.46-4.24,4.24Z" transform="translate(-44.88 -253.07)"/><path d="M142.79,435.4a150.07,150.07,0,0,1,29.49-33.79c12.28-10.4,26.28-18,40.64-25.12,14.89-7.36,29.62-14.95,43.7-23.77a71.31,71.31,0,0,0,16.75-14c5-5.89,9.41-12.25,14.61-18a152.76,152.76,0,0,1,40.35-31.62c3.39-1.84.37-7-3-5.18A158.84,158.84,0,0,0,289,311c-11.19,11.21-19.07,25.67-32.39,34.6-27.32,18.3-59.55,28.48-85.32,49.1a155.06,155.06,0,0,0-33.64,37.65c-2.08,3.26,3.11,6.27,5.18,3Z" transform="translate(-44.88 -253.07)"/><path d="M250.14,349.39c-3.09,0-3-8.47-2.86-10.18a18.63,18.63,0,0,1,3.45-9c4.29-5.84,11.9-7.75,18.22-10.51,13-5.68,23.06-15.81,33.79-24.8,11-9.19,25-18.41,40.07-15.57,15.61,3,26.12,16.72,25.79,32.43-.08,3.86,5.92,3.86,6,0a38,38,0,0,0-18.06-33.55c-11.69-7-25.47-6.55-37.64-1.08-13.29,6-23.49,16.6-34.59,25.7a80.09,80.09,0,0,1-20.56,12.58c-5.87,2.4-12.07,4.66-16.4,9.52a24.42,24.42,0,0,0-6.1,17.79c.38,5.3,2.47,12.64,8.89,12.65,3.87,0,3.87-6,0-6Z" transform="translate(-44.88 -253.07)"/><path d="M368.53,310.57c-7.15,14.82-14.59,29.07-24.77,42.07-9.78,12.5-10.44,28.76-13,43.92-.64,3.78,5.14,5.4,5.79,1.6,1.39-8.09,2.63-16.23,4.18-24.29,1.61-8.33,5.12-14.1,10.27-20.73,9.41-12.07,16.13-25.83,22.75-39.54,1.67-3.47-3.5-6.51-5.18-3Z" transform="translate(-44.88 -253.07)"/><path d="M364,332.11c11-.32,18.91,8.75,21.5,18.71,3.08,11.86.56,25-1.77,36.73-4.39,22.21-14.21,44-11.75,67.09.41,3.8,6.41,3.84,6,0-1.49-13.92,1.72-27.37,5.37-40.72,3.51-12.88,6.76-25.71,8.5-39,1.51-11.52,1.92-24.19-4.15-34.59-4.93-8.46-13.72-14.53-23.7-14.24-3.85.12-3.87,6.12,0,6Z" transform="translate(-44.88 -253.07)"/><path d="M386.3,394.71C404,407,403.85,430.86,401.36,449.89c-1.46,11.07-3.37,22.05-3.82,33.23-.36,9-1.36,20.12,4.21,27.9,2.23,3.11,7.43.12,5.18-3-3.41-4.76-3.46-10.45-3.52-16.08a174.51,174.51,0,0,1,.71-17.56c1.12-12.23,3.78-24.29,4.41-36.57.93-18-3.6-37.43-19.2-48.25-3.18-2.2-6.18,3-3,5.18Z" transform="translate(-44.88 -253.07)"/><path d="M401,496.81c18.13-.59,38-3,54.48-10.95s29-23.58,41.12-36.88c5.35-5.89,11.44-11.78,14.14-19.45,3-8.55,3-18.19,5.06-27,2.3-9.66,5.46-17.78,13.13-24.42,6.67-5.78,16.21-13.06,25.43-9.45,3.6,1.41,5.16-4.39,1.6-5.78-7.36-2.89-14.91-.31-21.36,3.64-6.91,4.22-13.89,9.8-18.19,16.76-4.71,7.62-6.58,17.21-8.11,25.91-1.61,9.2-1.62,18.29-7.57,26s-12.88,14.54-19.48,21.52S468,470.87,460,476.3c-16.62,11.3-39.39,13.87-59,14.51-3.86.12-3.87,6.12,0,6Z" transform="translate(-44.88 -253.07)"/><path d="M541.79,391.13a42,42,0,0,1,9.66-18.84c2.27-2.5,5.61-5.84,9.34-5.51,3.49.3,5.8,3.81,6.4,7,1.29,6.86-3.84,13.23-7.58,18.43-4,5.54-7.15,11-8.49,17.8-2.78,14-1.4,28.64-3.46,42.78-2,13.49-6.42,26.8-16,36.79-2.68,2.78,1.56,7,4.24,4.24,11.52-12,16.29-27.89,18.19-44,1.12-9.52,1.23-19.1,1.81-28.65.61-10.07,3-17.66,8.93-25.89,4.33-6,9-12.72,8.56-20.55-.32-5.55-3.8-11.4-9.26-13.23-14.65-4.93-25.53,17.26-28.09,28.12-.89,3.76,4.89,5.36,5.78,1.6Z" transform="translate(-44.88 -253.07)"/><path d="M296.81,676.31c-.54-8.79,7.53-15.43,13.45-20.8,6.32-5.76,13.07-11,19.75-16.37q22.2-17.73,44.83-34.94c29-22.17,58.4-43.93,87.68-65.79,3.06-2.28.07-7.49-3-5.18-31.38,23.41-62.83,46.72-93.89,70.54q-22.77,17.46-45.18,35.4c-7,5.6-14,11.24-20.2,17.65-5.23,5.37-9.9,11.64-9.42,19.49.23,3.84,6.23,3.86,6,0Z" transform="translate(-44.88 -253.07)"/><path d="M462.77,539a648.74,648.74,0,0,0,73-46.48c3.08-2.26.09-7.47-3-5.18a650.16,650.16,0,0,1-73,46.48c-3.39,1.85-.37,7,3,5.18Z" transform="translate(-44.88 -253.07)"/><path d="M478.79,462.21c-7-15.52-3.8-33.34-9.66-49.19-1.25-3.4-3-6.58-4.44-9.9a42.46,42.46,0,0,1-3.23-15.26,71.28,71.28,0,0,1,0-11.78c.79-6.39,6.49-6.39,11.59-6.06,3.86.25,3.84-5.75,0-6-8-.53-16,1.5-17.41,10.56-1.43,9.53-.58,21.11,3.16,30,2.06,4.92,4.61,9.5,6,14.7a102.86,102.86,0,0,1,2.53,16.36c1,10.17,2,20.16,6.26,29.57,1.6,3.51,6.77.47,5.19-3Z" transform="translate(-44.88 -253.07)"/><path d="M469.36,387.06c-.15-5.69,1.05-12.36,6.61-15.28,5.22-2.73,12.41.36,17,3.08a34.92,34.92,0,0,1,16.68,24.73c.61,3.8,6.39,2.19,5.79-1.59a40.62,40.62,0,0,0-25.22-31.09c-6.56-2.54-13.74-3.36-19.57,1.25s-7.5,11.85-7.32,18.9c.09,3.86,6.09,3.87,6,0Z" transform="translate(-44.88 -253.07)"/><path d="M549.59,461.27c22,15.34,44.43,30.18,65.63,46.58,3,2.34,7.29-1.88,4.24-4.24-21.61-16.72-44.45-31.88-66.84-47.52-3.17-2.22-6.17,3-3,5.18Z" transform="translate(-44.88 -253.07)"/><path d="M601,493.52c6-.83,9.38-6.93,9.1-12.63-.19-3.88-2-7.49-3.72-10.88a58.21,58.21,0,0,1-5.26-13.95,50.38,50.38,0,0,1,1.83-27.68c.8-2.21,1.67-4.63,3.41-6.28,2.22-2.1,5.14-2.32,8.09-2.64a92.94,92.94,0,0,1,15.29-.3c3.86.22,3.85-5.78,0-6-7.69-.43-19.4-1.51-26.06,3.25-6.11,4.36-8.16,14.23-9.12,21.17a56.45,56.45,0,0,0,2.3,25.64c1.81,5.37,13.6,23,2.54,24.52-3.81.53-2.19,6.31,1.6,5.78Z" transform="translate(-44.88 -253.07)"/><path d="M598.57,494.12c3.86,0,3.86-6,0-6s-3.87,6,0,6Z" transform="translate(-44.88 -253.07)"/><path d="M514.64,507c20.25,15.75,39,33.34,57.88,50.67,18.21,16.7,36.1,33.83,51.36,53.33,2.37,3,6.59-1.23,4.24-4.24-15.26-19.5-33.15-36.63-51.35-53.34-18.89-17.33-37.64-34.91-57.89-50.67-3-2.34-7.28,1.88-4.24,4.25Z" transform="translate(-44.88 -253.07)"/><path d="M624.13,611.26c6.26,12.69,19.58,19.62,26.56,31.84,3.67,6.43,7,12.71,12.46,17.86a50.67,50.67,0,0,0,17.36,10.55c16.07,6,29.39,18.35,43.08,28.5,6.71,5,13.21,9.6,20.95,12.87C751.86,716,759.36,718.43,766,723c3.19,2.2,6.19-3,3-5.18-6.34-4.35-13.49-6.86-20.56-9.74-7.48-3-13.82-7.29-20.28-12.08l-20.68-15.33c-5.94-4.41-11.78-9.57-18.67-12.46-7.26-3-14.2-5.1-20.26-10.41S659.16,645.48,655,638.6c-6.94-11.53-19.73-18.25-25.71-30.37-1.71-3.46-6.89-.43-5.18,3Z" transform="translate(-44.88 -253.07)"/><path d="M630.12,418.3l30.43,6.41c8.88,1.87,18.62,3.1,26.63,7.63,8.53,4.82,13.49,14.24,18.84,22.09,5.53,8.12,11.09,16.24,16.59,24.39,5.64,8.37,11.21,16.8,16.51,25.4q3.72,6,7.26,12.19c2.43,4.26,5.52,8.77,6.75,13.56.51,2,.75,4.88-.62,6.66-1.69,2.18-4.66,1.86-7.07,1.91a91.53,91.53,0,0,1-15.35-.59c-9.71-1.45-17.39-6.34-24.24-13.18-15.21-15.22-26.76-33.82-37.78-52.16-2-3.31-7.17-.3-5.18,3C674.16,494.4,686,513.45,701.61,529c6.83,6.82,14.68,12.25,24.26,14.25a74.6,74.6,0,0,0,15.06,1.33c4,0,9.3.59,13-1.4,7.59-4.07,5.89-13.84,2.84-20.21-5.09-10.62-11.69-20.71-18-30.6-6.49-10.09-13.26-20-20-29.92-6.12-9-11.82-18.56-18.76-26.94-7.19-8.69-17.17-12.16-27.87-14.49-13.45-2.93-26.93-5.68-40.4-8.51-3.76-.8-5.37,5-1.59,5.78Z" transform="translate(-44.88 -253.07)"/><path d="M664.63,471.48a155.2,155.2,0,0,1-46.12-6.59c-3.71-1.11-5.29,4.68-1.6,5.79a161.32,161.32,0,0,0,47.72,6.8c3.86,0,3.87-6,0-6Z" transform="translate(-44.88 -253.07)"/><path d="M664.66,474c-4.95,5.51-12,7.51-18.81,9.76-7.18,2.36-15.2,6.21-22.75,3.49-3.64-1.31-5.21,4.48-1.6,5.78,8.72,3.14,17.65-.75,26-3.49,7.79-2.57,15.8-5,21.45-11.29,2.58-2.87-1.65-7.13-4.24-4.25Z" transform="translate(-44.88 -253.07)"/><path d="M690.88,514.52c-6.17,7.21-12.4,14.57-20,20.34-8.4,6.4-18.23,9.83-28.28,12.72-3.7,1.07-2.13,6.86,1.6,5.79,10.36-3,20.61-6.54,29.35-13,8.22-6.11,14.93-13.82,21.56-21.56,2.5-2.92-1.73-7.18-4.24-4.25Z" transform="translate(-44.88 -253.07)"/><path d="M752.33,519.47c13.46,2.84,25.95-8.32,24.2-22-1.08-8.43-5.61-16.61-8.56-24.51q-5.25-14.15-9.55-28.61c-1.11-3.69-6.9-2.12-5.79,1.6q6.23,20.79,14.34,40.9c2.36,5.86,5.65,13,2.55,19.21a14.44,14.44,0,0,1-15.6,7.65c-3.77-.79-5.38,5-1.59,5.79Z" transform="translate(-44.88 -253.07)"/><path d="M757.58,444.05a233.16,233.16,0,0,0-14-34.55c-4.83-9.87-9.49-22.61-18.07-29.92-8.4-7.18-21.6-9.93-32.1-12.23A159,159,0,0,0,655,363.84c-3.85.11-3.86,6.11,0,6A152.29,152.29,0,0,1,690,372.75a150.45,150.45,0,0,1,17,4.53c5.39,1.78,11.23,3.57,15.43,7.56,3.56,3.38,5.82,7.93,8.09,12.22,2.7,5.12,5.37,10.27,7.91,15.47a223.28,223.28,0,0,1,13.36,33.12c1.12,3.68,6.91,2.11,5.79-1.6Z" transform="translate(-44.88 -253.07)"/><path d="M654.17,363.9c-9.76,2-17,9.29-21.29,18-5,10.11-8.37,22.25-7.8,33.57.19,3.84,6.19,3.86,6,0-.49-9.73,2.25-20.06,6.22-28.93,3.61-8.06,9.47-15,18.46-16.85,3.78-.77,2.18-6.55-1.59-5.78Z" transform="translate(-44.88 -253.07)"/><path d="M668.36,363.08c-3.13-3-4-8.25-4.77-12.32a35.38,35.38,0,0,1-.25-14.88c1.83-8.05,7.26-15.32,15-18.5,8.62-3.54,20-4.68,28.92-1.74,9.64,3.2,18.57,10,27.25,15.13,3.32,2,6.34-3.2,3-5.18-10.47-6.23-21.57-15-33.87-17-10.2-1.67-23.77,0-32.52,5.81A33.24,33.24,0,0,0,657,337.52a46.47,46.47,0,0,0,1.21,16.56c1.09,4.71,2.3,9.82,5.93,13.24,2.81,2.65,7.06-1.58,4.24-4.24Z" transform="translate(-44.88 -253.07)"/><path d="M734.25,331.05a114.82,114.82,0,0,1,21.27,14,85.87,85.87,0,0,1,7.68,7.09c3.41,3.65,5.13,7.69,7,12.24A467,467,0,0,1,786.66,412c1.06,3.7,6.85,2.12,5.78-1.6a444.73,444.73,0,0,0-18.19-51.76c-6.41-15-23-25.54-37-32.79-3.43-1.78-6.46,3.4-3,5.18Z" transform="translate(-44.88 -253.07)"/><path d="M786.81,413.29c2.54,6.94,5.5,13.87,7.49,21,1.31,4.66,4,17.46-1.5,20.52-2.45,1.38-7,.47-9.69.27a36.3,36.3,0,0,1-9.36-1.67c-6.72-2.34-12.37-8.36-17.82-12.77-3-2.4-7.24,1.82-4.24,4.25,6.53,5.29,13,12,21.22,14.53a49.09,49.09,0,0,0,11.8,1.76c3.64.19,7.82.73,11.12-1.19,6.54-3.79,6.28-12.4,5.71-18.92-.89-10.2-5.46-19.84-8.94-29.37-1.32-3.6-7.12-2-5.79,1.6Z" transform="translate(-44.88 -253.07)"/><path d="M797.06,455.07A24.07,24.07,0,0,0,813.93,464c3.84.36,3.81-5.64,0-6a18.24,18.24,0,0,1-12.63-7.15c-2.39-3-6.61,1.24-4.24,4.24Z" transform="translate(-44.88 -253.07)"/><path d="M823.49,497.81a104.57,104.57,0,0,1-4.77-30.61c0-10.17,4.66-19.09,5.81-29.06,2.27-19.6,2.08-40.13-3-59.28-1-3.73-6.78-2.15-5.78,1.59a127.56,127.56,0,0,1,4,30.56c.18,10.39.24,21.7-2,31.87-1,4.67-3,9.07-4,13.76a56.48,56.48,0,0,0-1,13.24,114.16,114.16,0,0,0,4.94,29.52c1.11,3.69,6.91,2.12,5.79-1.59Z" transform="translate(-44.88 -253.07)"/><path d="M821.45,379.73c-.51-6.06-3.54-10.7-6.25-16-3.73-7.3-3.21-15.13-3.32-23.08s-1.5-15.32.65-23.06a67.89,67.89,0,0,1,9.24-20.42c4.23-6.09,10.52-11.29,18-12.48,6.9-1.1,14.54,1.82,17.54,8.43s2.47,15.38,3.23,22.59q1.19,11.37,2.85,22.69c1.24,8.44,2.5,17,4.4,25.29,1.44,6.35,3.82,12.51,9,16.74,3,2.43,7.22-1.79,4.24-4.24-6.14-5-7.34-13.07-8.7-20.47Q869.8,342,868,328.12c-1.16-9-1.84-18-2.79-27-.66-6.3-2.16-12.44-7-16.86-10.14-9.25-25.1-6.29-34.72,2.05C812.7,295.66,805,313.4,805.16,327.6c.07,4.66.69,9.3.72,14a109.73,109.73,0,0,0,.5,13.81A34.29,34.29,0,0,0,810,366.77c2.16,4.19,5,8.13,5.43,13,.32,3.82,6.33,3.85,6,0Z" transform="translate(-44.88 -253.07)"/><path d="M876.82,380.41c9.74,17.89,11.58,39.48,15.63,59.15,3.91,19,8.9,37.93,18.84,54.77,2,3.32,7.14.31,5.18-3-10.29-17.42-15-37.11-18.93-56.76-3.85-19.21-6-39.71-15.54-57.15-1.84-3.4-7-.37-5.18,3Z" transform="translate(-44.88 -253.07)"/><path d="M911,493.56c9,25.51,27.41,47.72,30,75.34,1.42,15.37,1.83,30.71,3.89,46.05s4.75,30.41,7.47,45.55c.68,3.8,6.47,2.19,5.79-1.59-2.86-15.91-5.74-31.83-7.77-47.87-2-15.3-1.83-30.77-3.81-46-3.44-26.71-20.94-48.18-29.73-73-1.28-3.62-7.08-2.06-5.79,1.59Z" transform="translate(-44.88 -253.07)"/><path d="M952.61,659.62c-.71,11.06,2.61,21.54,6.32,31.82a209.79,209.79,0,0,0,13,29.68c1.85,3.39,7,.36,5.18-3a201.07,201.07,0,0,1-12.39-28.25c-3.53-9.79-6.78-19.67-6.1-30.22.25-3.86-5.75-3.84-6,0Z" transform="translate(-44.88 -253.07)"/></svg>