<svg id="Layer_1" data-name="Layer 1" xmlns="http://www.w3.org/2000/svg" viewBox="0 0 973.86 974.25"><defs><style>.cls-1{fill:#fe6674;}</style></defs><title>filledWWDlogo</title><path class="cls-1" d="M511.07,414.25c1.21,7.88,4,15.43,6.61,22.95C528.07,466.78,537,496.84,546,526.88l-.5-.16a362.41,362.41,0,0,1-68-.5l-.19.13,7.51-27.22c8-28.93,16-57.9,26.52-86" transform="translate(-14.42 -21.65)"/><path class="cls-1" d="M788.82,400.2a237.42,237.42,0,0,1,62,1.5c14.74,2.31,30.87,7.17,38.18,20.18,6.66,11.83,3.82,26.57.13,39.64-2.79,9.85-6.78,20.59-15.93,25.17-4.08,2-8.72,2.58-13.25,3a491.54,491.54,0,0,1-70.54,1.81l-.6-1.3q.83-44-.26-88.05" transform="translate(-14.42 -21.65)"/><path class="cls-1" d="M960.44,342.94A526.1,526.1,0,0,0,817.2,138l1.17,1.43A492.85,492.85,0,0,0,595.21,30.93l2.87-.29A495,495,0,0,0,376.2,38.48l9.5-2C346.44,43.59,309,59,274.3,78.66s-66.85,43.55-98,68.47l.83-1.64c-16.21,15.4-32.38,30.92-46.91,47.93-30.37,35.55-53,77-73.33,119.11L52.35,322l-.1,1.71L123,322.38l.27-.06q35.38,75.45,75.74,148.45l.27.33c11.3-15.39,18.64-33.25,26.24-50.76q20.88-48.1,45.33-94.53L272,324.5q53-2.21,105.93.66v1.4L276,505.25l-12.35,21.64q-8.52,14.88-17.08,29.74l.19-1.88q.06,73.59-.29,147.18l-.77.43-98.82.56.35-.14q1.23-71.26-.47-142.55h-.12a9.23,9.23,0,0,0-2.23-8.31l.22.46c-13.08-24.66-27-48.85-41.34-72.81-14.41-24.11-28.9-48.19-42.2-72.93q-11.23-20.92-21.68-42.27l-.78.57c-6.82,14.63-10.73,30.45-13.91,46.28C4.75,510.73,13,617.14,56.56,708.81l.28.6a504.85,504.85,0,0,0,72,111.94c3.2,3.78,6.46,7.51,9.72,11.23,17.61,20.09,35.75,40.36,58.64,54.14l.66.47A498.75,498.75,0,0,0,487,995.26l.44.65c42.22-.56,84.73-2.7,125.73-12.74,15.4-3.77,30.51-8.64,45.56-13.62,22.08-7.31,44.42-15,63.44-28.43l-1.39.55c9.75-5.53,20-10.22,29.75-15.67,16.74-9.31,32.19-20.77,47.58-32.2,10-7.45,20.1-14.92,29.33-23.37,3.91-3.57,7.66-7.32,11.37-11.1q25.27-25.77,48-53.9l.14,0a476.16,476.16,0,0,0,79-152.55l0,.27a430.82,430.82,0,0,0,17.21-68.11q1.47-8.73,2.54-17.53A358.2,358.2,0,0,0,987.22,497l0-1.86c-5.27,14-11.41,28.17-21.9,38.87-11.05,11.27-26,17.77-40.45,24-8.86,3.8-17.8,7.63-27.27,9.47a128.19,128.19,0,0,1-19.58,1.8q-45.66,1.74-91.38.21l.47,2.13q.86,65.22-.27,130.43l-1.4-.06-180.76.13L603.44,701c-6.72-15.33-13.46-30.68-18.8-46.53-3.09-9.16-5.71-18.46-8.32-27.75l-5.93-21.06-.51-.13-116.26-.21-1.57-.19q-14.42,39.33-25.7,79.72c-1.66,6-3.28,12-6.07,17.47l-.49-.22c-20.36.77-40.74.68-61.12.59l-43-.18.47.16q64.88-189.57,135-377.27l1,.16a483.76,483.76,0,0,1,118.85.28l1.3.31c5.62,19,12.72,37.52,19.8,56q4.26,11.1,8.51,22.22l45.87,119.8-.13,1.24Q667,581.83,688,638.07c-1.7-18.64-.49-37.41.72-56.09l.87-.75q-2.22-128.37-.63-256.78l.64-.58,94.08-.88c36.74-.34,73.64-.67,110,4.57,19.05,2.75,38.71,7.42,53.38,19.88l.67.13c6.85,3.69,14,7.65,18.19,14.2a153.39,153.39,0,0,0-6.78-19.86" transform="translate(-14.42 -21.65)"/></svg>