<svg id="Layer_1" data-name="Layer 1" xmlns="http://www.w3.org/2000/svg" viewBox="0 0 190.66 293.83"><defs><style>.cls-1{fill:#dec3cd;stroke:#171414;stroke-width:8px;}.cls-1,.cls-2{stroke-miterlimit:10;}.cls-2{fill:none;stroke:#f16674;stroke-width:13px;}</style></defs><title>mapPin</title><path class="cls-1" d="M192,97.5a91,91,0,0,0-182,0c0,1.34,0,2.67.09,4H10c.07.94.17,1.88.25,2.83s.16,1.85.25,2.77a287.68,287.68,0,0,0,77,169.1L101,290.5l13.48-14.3a287.68,287.68,0,0,0,77-169.1c.09-.92.18-1.84.25-2.77s.18-1.89.25-2.83h-.09C192,100.17,192,98.84,192,97.5ZM100.5,156a55,55,0,1,1,55-55A55,55,0,0,1,100.5,156Z" transform="translate(-5.67 -2.5)"/><path class="cls-2" d="M100.59,156a55,55,0,1,1,55-55A55,55,0,0,1,100.59,156Z" transform="translate(-5.67 -2.5)"/></svg>