<svg id="Layer_1" data-name="Layer 1" xmlns="http://www.w3.org/2000/svg" viewBox="0 0 902 398"><defs><style>.cls-1{fill:none;stroke:#000;stroke-miterlimit:10;stroke-width:2px;}</style></defs><title>reproductiveJustice</title><path d="M53.66,315c-11.23,6.53-10,20.13-6.86,30.91,1.49,5,3.09,10.43,6.9,14.21,4.2,4.18,10.68,5.11,14.72,9.35,2.43,2.55,3.26,6.18,5.22,9a22.1,22.1,0,0,0,4.71,5,33.81,33.81,0,0,0,14.52,6.18c5.94,1.15,12.47.26,18.23,2,6.34,2,10.36,8.08,16.4,10.74,8.67,3.81,19.63,2.62,26.88-3.65,4.36-3.78,5.72-9.55,9.87-13.43,3.95-3.7,9.08-6.18,10.6-11.83,1.31-4.85-1.31-8.69-4.49-12.06-2.45-2.61-4.15-4.73-5.07-8.3-.89-3.41-.95-7-2-10.36-1.21-4-3.42-7.87-7.21-9.86-2.49-1.31-5.2-.84-7.75-1.77-3.07-1.13-4.54-4.5-6.08-7.13-3.14-5.34-6.87-9.09-12.89-11.05-7.19-2.33-15-1-22.16-3.16s-12.72-7.73-20.36-8.54S71.77,303.94,65,307.27c-3.46,1.7-.43,6.88,3,5.18,6-2.94,12.88-6.39,19.78-4.94,5.29,1.12,9.64,4.93,14.57,7,9.84,4.07,24.89-.23,32.22,8.78,2.42,3,3.75,6.68,6.25,9.61,2.68,3.15,5.67,4.11,9.64,4.72,6.38,1,7.29,7.13,8.18,12.51.77,4.65,1.69,9,4.77,12.76,3.37,4.05,8.39,7.35,3.38,12.72-3.42,3.67-7.77,5.66-10.52,10-2.59,4.13-4.19,8.15-8.68,10.64a20.36,20.36,0,0,1-14.06,1.9c-5.25-1.15-8.8-4.65-12.9-7.85a23.4,23.4,0,0,0-12-5.13C99,384,88,385,80.51,377.45c-3.91-3.94-4.79-9.7-9.13-13.35-3.82-3.22-8.95-4.34-12.71-7.6C54,352.44,52.15,344.08,51,338.2c-1.3-6.6-.74-14.28,5.68-18,3.34-1.94.32-7.12-3-5.18Z" transform="translate(1 -147)"/><path d="M57.76,319.32c3.34-1.57,5.85-4.85,9.47-5.8s2.15-6.77-1.6-5.78c-4.26,1.11-7,4.58-10.9,6.4-3.49,1.64-.45,6.81,3,5.18Z" transform="translate(1 -147)"/><path d="M105,312.18c.51-3,3.86-3.45,6.27-4.54a12.71,12.71,0,0,0,5.29-4.13c1.24-1.63-.15-3.87-1.79-4.4-7.62-2.46-15.41-4.24-23.22-6-7-1.57-14.38-2.76-21.23-4.94-13-4.13-23.87-12.34-26.21-26.42-2-11.94,3-25.07,13.93-31,15.44-8.32,32.68-3.94,48.76-.57,8.67,1.82,17.32,3.75,26,5.53,4.29.88,8.59,1.73,12.89,2.51s8.93,1,12.92,2.85c3.48,1.6,6.54-3.57,3-5.18-7.47-3.42-16.48-3.79-24.51-5.41-9.3-1.87-18.56-3.94-27.84-5.89-17.73-3.73-35.15-7.89-52.46.07C45,230.13,38.11,242.63,37.74,255.37c-.41,14,6.52,26.08,18.5,33.13,8,4.7,16.3,6.07,25.1,8.23,10.63,2.6,21.44,4.79,31.86,8.16l-1.79-4.4c-1.72,2.26-5.61,2.67-8,4.09a8.45,8.45,0,0,0-4.21,6c-.64,3.78,5.14,5.4,5.79,1.6Z" transform="translate(1 -147)"/><path d="M36.32,363.52c-.39-6.34.12-12.72-1.07-19a207,207,0,0,0-5.56-21.23c-4.2-13.87-8.51-27.74-9-42.34-.86-26.29,9.24-54.87,33.36-68.15s53-6.54,78.61-1.61c29,5.6,58,11.51,86.9,17.52,31.61,6.57,63.2,13.26,94.82,19.77,3.77.77,5.38-5,1.6-5.79-60.57-12.46-121-25.57-181.72-37.28-25.72-5-53.58-11.34-78.61-.09-24.2,10.87-37.25,35.45-40.3,60.86-2,16.4.79,32.5,5.38,48.24,2.22,7.58,4.71,15.09,6.69,22.74,1.15,4.47,2.39,9.05,2.57,13.68.16,4.22.06,8.43.32,12.65.23,3.84,6.23,3.86,6,0Z" transform="translate(1 -147)"/><path d="M67.92,362.08l-11.07-1.69c-1.75-.26-4,.75-3.79,2.9a49.52,49.52,0,0,0,4.08,16.22l4.11-4.11a61.78,61.78,0,0,1-9.69-7.82c-1.66-1.67-2.93-3.69-4.64-5.29-3.17-3-6.87-2.75-8.45,1.56-1.33,3.63,4.47,5.2,5.78,1.6l-1.91.76.67.64c.13.45,1.23,1.4,1.58,1.83a40.65,40.65,0,0,0,2.73,3.14,69.62,69.62,0,0,0,10.9,8.76c2.77,1.85,5.18-1.64,4.1-4.1a40.69,40.69,0,0,1-3.26-13.19l-3.8,2.89,11.07,1.69c3.77.57,5.4-5.21,1.59-5.79Z" transform="translate(1 -147)"/><path d="M171.3,243.12q27,5.92,54,11.81c17.36,3.8,34.75,8.6,52.34,11.18,3.78.55,5.41-5.23,1.6-5.78-17.59-2.58-35-7.38-52.34-11.19q-27-5.92-54-11.8c-3.76-.83-5.37,4.95-1.6,5.78Z" transform="translate(1 -147)"/><path d="M172.8,237.36c-3.69-1.46-7.52-.56-11.22-1.72s-5.27,4.63-1.59,5.79,7.6.28,11.21,1.72,5.15-4.38,1.6-5.79Z" transform="translate(1 -147)"/><path d="M39,363c-.46.58-1.19,1.86-2,2,0,0,.29.3.11,0a14.87,14.87,0,0,1-.68-1.87,3.08,3.08,0,0,0-3.7-2.09,3,3,0,0,0-2.09,3.69c1,2.7,1.95,5.54,5.13,6.18s5.64-1.36,7.43-3.68a3.1,3.1,0,0,0,0-4.24c-1-1-3.25-1.29-4.24,0Z" transform="translate(1 -147)"/><path d="M278,266.12c6.82,2.07,13.67,4.57,20.61,6.19,6.17,1.44,11-.25,16.37-3.27,3.37-1.89.34-7.07-3-5.18-2.41,1.35-5,2.93-7.84,3.13-3.11.23-6.44-1.17-9.35-2.05l-15.16-4.61c-3.71-1.12-5.29,4.67-1.6,5.79Z" transform="translate(1 -147)"/><path d="M170.56,365.24a283.12,283.12,0,0,0,81.37-8.53c12.54-3.17,26.36-5.9,38.08-11.48,11.34-5.41,21.77-13.41,31.16-21.67,2.91-2.55-1.35-6.78-4.24-4.24-9,7.91-19.05,15.59-29.95,20.73-5.9,2.78-12.54,4.22-18.8,6-6.55,1.88-13.12,3.7-19.73,5.33a275.32,275.32,0,0,1-77.89,7.85c-3.86-.16-3.85,5.84,0,6Z" transform="translate(1 -147)"/><path d="M171.22,384.9c7-2.5,13.91-5.46,21.18-7.08s14.75-1.4,22-1.87a335,335,0,0,0,39.86-4.47,145.78,145.78,0,0,0,38-12.26c12.22-6,24.06-14.88,38.2-15,3.86,0,3.87-6,0-6-13.06.11-23.86,6.76-35.07,12.65a149.05,149.05,0,0,1-41.06,14.5c-14,2.75-28.34,3.86-42.6,4.75-6.68.41-13.53.36-20.11,1.73-7.59,1.58-14.79,4.67-22.07,7.26-3.61,1.29-2.06,7.09,1.59,5.79Z" transform="translate(1 -147)"/><path d="M724.73,369.3c-.07-4.29,4.67-7.15,6.93-10.38,3.23-4.61,1.66-8.71,2.58-13.84,1-5.38,7-4.91,11.15-6.38s6.72-4.29,8.83-7.95c2.57-4.48,4.09-9.17,9.52-10.87,5.08-1.58,10.77-1.27,16-2.23a99.56,99.56,0,0,0,17.71-5.19c2.55-1,5.06-2,7.58-3.1,4.08-1.7,6.73-2.41,10.72.15,8.61,5.52,20.41,7.58,25.16,17.52,5.15,10.79.31,23.41-9.23,29.93-4.25,2.91-8.57,5-11.83,9.09s-5.33,9.49-9.29,13.16c-3.79,3.52-9,4.91-14.07,5.39s-10.82-.66-15.81,1c-5.28,1.78-9.38,6.71-14.07,9.58-6.3,3.88-14.6,6.3-21.15,1.52-4.41-3.22-7.26-8.18-11.31-11.81-5.52-5-10.41-9.2-9.06-17.46.61-3.77-5.17-5.4-5.79-1.59a21.74,21.74,0,0,0,2.89,15.66c3.25,5,8.73,8.32,12.64,12.86s7.86,8.86,13.79,10.38,12.07.16,17.44-2.41a49.79,49.79,0,0,0,8.3-5.24c2.88-2.18,5.73-5.32,9.36-6.12,6.06-1.32,12.57.09,18.76-1.31A25.45,25.45,0,0,0,817,381c4.16-5.13,6.4-11.61,12.07-15.41,5.18-3.48,10-6.19,13.87-11.31A30.47,30.47,0,0,0,849,338.09c.73-11.91-6.29-22.29-17-27a89.53,89.53,0,0,1-9-4c-2.67-1.55-5-3.62-7.88-4.77-5.87-2.34-11.3,1.14-16.67,3.31-7.57,3-15.42,5.66-23.55,6.7-5.88.75-12.27.51-17.45,3.85s-6.2,9.12-9.72,13.63c-3.92,5-11,3.4-15.74,7.27-6.1,5-1.38,12.75-5.31,18.46-3.18,4.63-8,7.52-7.94,13.73.06,3.85,6.06,3.87,6,0Z" transform="translate(1 -147)"/><path d="M829.57,363.52a13,13,0,0,0,16.79,2.3L842,362.43c-2.21,5.75-5.74,11.73-2.92,17.79.83,1.79,3.44,1.86,4.71.61l8-8c1.51-1.5,4.7-6.09,6.7-6.64-4.56,1.27,1.53,9.06,4.46,9.72,4.05.92,6.58-2.55,7.2-6.06,1.15-6.53.62-13.44,1.55-20,1.84-13.12,8.35-24.95,10.11-38,1.89-14.05,1.66-28.62,2.33-42.77.18-3.86-5.82-3.85-6,0-.62,13.11-.71,26.38-2,39.45-1.21,12.66-7.55,24-9.77,36.52a140.83,140.83,0,0,0-1.82,17.27c-.06,1.07-.15,7.59-1,7-1.21-.83-1.47-5.38-2.61-6.81-2.35-2.94-5-2.1-7.43.15-4.82,4.49-9.38,9.31-14.06,13.95l4.72.61c-1.56-3.35,2.36-10.13,3.52-13.17.95-2.46-2.31-4.73-4.4-3.38a7,7,0,0,1-9.52-1.36c-2.57-2.9-6.8,1.36-4.24,4.24Z" transform="translate(1 -147)"/><path d="M798.19,304.58c-2-.84-4.22-2.18-6.33-2.67a1.83,1.83,0,0,0-2.61-.22,22.22,22.22,0,0,1,4.2-.79,97.72,97.72,0,0,0,10.92-1.6c9.2-2.2,18.51-4.85,27.46-7.92,13.91-4.77,27.93-13.56,30.85-29.1.71-3.78-5.08-5.39-5.79-1.6-4.13,22-31.24,26.47-49.16,31.5A100.91,100.91,0,0,1,792.61,295c-2.92.36-7.15.67-9.12,3.19-5.29,6.78,9.49,10.65,13.1,12.18s5.11-4.31,1.6-5.79Z" transform="translate(1 -147)"/><path d="M862.83,260.89c.94-11-5.14-21.52-13.62-28.29-3-2.39-7.26,1.83-4.24,4.24,7.28,5.82,12.67,14.52,11.86,24-.33,3.85,5.67,3.83,6,0Z" transform="translate(1 -147)"/><path d="M848.57,232.26a41.33,41.33,0,0,0-7-5.1c-2.69-1.42-5.62-1.79-8.49-2.66-6.69-2-12.1-4.05-19.24-3.25-3.79.42-3.84,6.43,0,6,5.92-.67,10.69.62,16.18,2.53,2.09.73,4.26,1,6.35,1.69,3.05,1,5.51,3,7.92,5,2.94,2.47,7.2-1.76,4.24-4.25Z" transform="translate(1 -147)"/><path d="M836,209.45c13.6,2.82,23.67,12.47,31.37,23.56,3.9,5.62,7.55,11.44,9.3,18.11,1.84,7,2,14.26,2.11,21.45,0,3.86,6.06,3.87,6,0-.1-7.7-.34-15.55-2.32-23-2-7.71-6.28-14.52-10.89-20.94-8.42-11.75-19.44-21.91-34-24.93-3.77-.78-5.38,5-1.59,5.79Z" transform="translate(1 -147)"/><path d="M570.53,345.42c6.4,1.14,11.71,4.77,17.42,7.64a156.36,156.36,0,0,0,17.32,7.38c12.81,4.61,26.08,7.79,39.34,10.84,13.09,3,26.37,5.85,39.86,6,7.14.08,14.53-1.4,21.53.49s13.65,5.17,20.31,7.87c3.58,1.44,5.14-4.36,1.6-5.79-6.42-2.59-12.83-5.7-19.48-7.64-6.38-1.86-12.73-1.22-19.26-1-14.57.52-28.85-2.48-43-5.73-13-3-26-6.08-38.5-10.54a141.77,141.77,0,0,1-19.14-8.32c-5.33-2.82-10.43-5.93-16.44-7-3.78-.67-5.4,5.11-1.6,5.78Z" transform="translate(1 -147)"/><path d="M577,330.5c20.44,14.14,44.87,21.84,68.93,27.22a312,312,0,0,0,77.79,7.3c3.86-.12,3.87-6.12,0-6a305.93,305.93,0,0,1-76.2-7.08c-23.59-5.28-47.44-12.75-67.5-26.62-3.18-2.2-6.18,3-3,5.18Z" transform="translate(1 -147)"/><path d="M520.75,503.28c.14-.77,4-2.78,4.66-4a9.88,9.88,0,0,0,0-8.32c-1.21-3-3.48-5.39-5-8.21a36.26,36.26,0,0,1-4-13.21c-1.83-16.8,4.56-33.95,10.49-49.36,6.94-18,14.2-36.64,26.34-51.82a231,231,0,0,0,28-43.69,79.9,79.9,0,0,0,8-26.53c1.1-10.3.2-20.68-.7-31-.33-3.81-6.33-3.85-6,0,1.61,18.34,2.22,35.85-5.73,52.92-7.63,16.37-17.7,31.39-28.92,45.48-10.89,13.67-17.38,30-23.95,46.05C517.66,427,511.36,443.28,510.33,460c-.48,7.77.4,15.76,3.59,22.92a38,38,0,0,0,3,5.47c1.16,1.76,3.55,4.2,3.36,6.41-.27,3.13-4.68,3.41-5.28,6.84-.67,3.78,5.11,5.4,5.78,1.6Z" transform="translate(1 -147)"/><path d="M518.43,497.81c-3.75,1.47-5.61,4.13-7.48,7.59a21.7,21.7,0,0,1-13.39,11.17c-9.58,2.87-30,3.3-33.7-8.8-1.72-5.61,2.1-11.69,3.07-17.13a27.57,27.57,0,0,0-1.48-14c-1.84-5.32-4.66-10.36-5.78-15.93a29,29,0,0,1,3-19.42c1.8-3.42-3.37-6.45-5.18-3a35.37,35.37,0,0,0-4.31,19.14c.46,6.36,3,12,5.35,17.84a34.47,34.47,0,0,1,2.76,9.83c.29,3.9-1,7.42-2.12,11.09-1.69,5.46-2.66,11.19.27,16.43,6.23,11.11,21.84,12.37,33.13,11a32.61,32.61,0,0,0,16.25-6.16,24.19,24.19,0,0,0,5.27-5.51c1.69-2.48,2.92-7.21,5.93-8.39,3.56-1.39,2-7.2-1.59-5.79Z" transform="translate(1 -147)"/><path d="M462.83,440.3c3.33-8.45,7.5-16.51,11.4-24.71s6.7-16.72,10.39-24.94a358.53,358.53,0,0,1,25.44-46.22c17.75-27.74,37.22-57.8,66-75.13,3.3-2,.29-7.18-3-5.18-29.22,17.58-49.06,47.63-67.17,75.71a361.87,361.87,0,0,0-26.81,48.6c-3.79,8.51-6.79,17.37-10.82,25.77-3.89,8.11-7.91,16.13-11.21,24.5-1.42,3.6,4.38,5.16,5.78,1.6Z" transform="translate(1 -147)"/><path d="M583.72,268.63c9,.59,16.57.43,25.22-2.06,8.36-2.4,16.29-6,24.35-9.17,7.82-3.1,15.94-6.07,24.37-6.84,8.71-.8,17.4.52,26.1.64,9.35.13,17.14-2.9,26-5.31,8.5-2.3,17.47-3.41,26.16-4.82,9.21-1.5,18.44-2.89,27.62-4.56,4.4-.8,8.88-1.53,13.22-2.62s8.52-3.55,13.15-3.6c3.86,0,3.87-6,0-6-4.2.05-7.63,1.62-11.54,2.91A98.13,98.13,0,0,1,765.72,230c-9.19,1.75-18.44,3.18-27.68,4.66-8.7,1.39-17.39,2.84-26,4.61-9.68,2-18.17,6-28.26,5.9-8.7-.12-17.39-1.44-26.1-.64-7.85.71-15.41,3-22.75,5.8-8.09,3.07-16,6.72-24.21,9.4A69.32,69.32,0,0,1,597.9,263c-4.68.55-9.5-.1-14.18-.41-3.85-.25-3.84,5.75,0,6Z" transform="translate(1 -147)"/><path d="M813.88,221.27l-24.69,3.12c-3.78.48-3.83,6.49,0,6l24.69-3.12c3.78-.48,3.83-6.48,0-6Z" transform="translate(1 -147)"/><path d="M313.8,248.92c14.6,8.15,31.51,5.77,47.28,3.15a173.33,173.33,0,0,0,29.18-7.15c8.9-3.12,17.56-6.89,26.6-9.61a108.78,108.78,0,0,1,57.56-1.39c8.87,2.24,17.33,5.58,26.4,7.09,9.92,1.65,19.93,2.82,29.89,4.19,3.78.53,5.41-5.25,1.6-5.78-10-1.38-20-2.55-29.9-4.2-9.06-1.51-17.52-4.85-26.4-7.08a115,115,0,0,0-51.9-.89c-18.39,3.92-35.12,13-53.54,17-16.82,3.58-37.82,8.41-53.74-.48-3.37-1.88-6.4,3.3-3,5.18Z" transform="translate(1 -147)"/><path d="M583,252.66c34.81-11.32,69.65-24.68,106.64-26,17.44-.62,34.48.94,51.68-3,18-4.12,35.78-10,53.56-15.14,3.7-1.07,2.13-6.86-1.6-5.78-17.77,5.13-35.52,11-53.56,15.14s-35.8,2-53.94,3c-36.15,2-70.26,14.94-104.37,26-3.66,1.19-2.09,7,1.59,5.78Z" transform="translate(1 -147)"/><path d="M836.29,203.43c-7.35-.79-14.72-1.43-22.1-1.76-6.67-.31-13.84-.86-20.3,1.13-3.68,1.14-2.11,6.93,1.6,5.79,6.45-2,13.91-1.18,20.57-.83s13.5,1,20.23,1.67c3.84.42,3.81-5.59,0-6Z" transform="translate(1 -147)"/><path d="M581.85,246.93a84.82,84.82,0,0,1-26.31-1.55c-7.73-1.68-15.14-4.12-22.8-6-3.75-.9-5.35,4.88-1.59,5.79,8.23,2,16.24,4.53,24.54,6.34a85.66,85.66,0,0,0,26.16,1.38c3.82-.32,3.85-6.32,0-6Z" transform="translate(1 -147)"/><path d="M583.73,246.7c-4.58-15.58-13.35-29.18-23.43-41.76-5.39-6.74-10.85-12.64-18.27-17.16a169.94,169.94,0,0,0-21.77-11.28,76.38,76.38,0,0,0-10.6-3.58,87.51,87.51,0,0,1-11.25-4.13c-7.71-3.14-16.75-3.93-25-4.79a197,197,0,0,0-53.39,1.89c-3.79.64-2.18,6.42,1.6,5.78a191.47,191.47,0,0,1,49.92-1.86c7.79.74,16.35,1.45,23.76,4.18,3.56,1.32,6.7,3.15,10.4,4.14a94.73,94.73,0,0,1,10.58,3.19,155.87,155.87,0,0,1,21.21,10.77c7.08,4.14,12.32,9.42,17.45,15.74,9.86,12.13,18.53,25.35,23,40.47,1.09,3.69,6.88,2.12,5.79-1.6Z" transform="translate(1 -147)"/><path d="M322.8,247.46c.05-6.06,3.47-11.1,6.44-16.16,2.75-4.69,5.54-9.35,8.58-13.85,6.37-9.41,13.91-17.72,23.54-23.85,19-12.09,41.85-18.95,63.89-22.71,3.79-.65,2.18-6.43-1.6-5.79-23.92,4.09-49.86,11.83-69.7,26.3-9,6.6-16.13,15.16-22.26,24.44-3.3,5-6.36,10.19-9.36,15.38s-5.48,10.19-5.53,16.24c0,3.87,6,3.87,6,0Z" transform="translate(1 -147)"/><path d="M316.46,269.08c9.72-1.29,17.78,6,24.63,11.95a184.13,184.13,0,0,1,18.36,18.38c11.85,13.6,21.82,28.71,30.85,44.3,8.89,15.34,16.87,31.18,24.82,47,4.57,9.07,9.1,18.17,13.25,27.44,4.24,9.46,8.82,19.4,10.38,29.74,1.71,11.35-3.35,20.68-5.62,31.46A29,29,0,0,0,432.9,492c1.12,4.84,5.89,9.9,4.79,15-.81,3.77,5,5.38,5.79,1.6s.09-6.78-1.44-10.18c-2.37-5.28-4.32-9.46-3.47-15.4,1.38-9.61,6.37-18.3,6.64-28.16.29-10.5-3.65-20.64-7.59-30.18-4.1-9.92-8.71-19.62-13.48-29.23-16.94-34.15-34-69.14-58.86-98.36a184.08,184.08,0,0,0-22.43-22.33c-7.47-6.2-16.08-13-26.39-11.6-3.77.5-3.82,6.51,0,6Z" transform="translate(1 -147)"/><path d="M437.15,510.17c-4.43,13.15-24.52,11.92-34.92,7.38-6.52-2.84-8.86-8.66-13.68-13.38-2-1.92-6.55-4.38-7.4-7.15-.95-3.14,1.78-7.39,3.35-9.84,2.09-3.26-3.1-6.28-5.18-3-4.21,6.58-6.68,14.91.36,20.34,7.52,5.8,11.21,14.68,20.22,18.58,14.14,6.1,37.28,5.77,43-11.31,1.23-3.67-4.56-5.24-5.79-1.59Z" transform="translate(1 -147)"/><path d="M333.06,338.6a133.32,133.32,0,0,1-7.85-16.18c-1.4-3.55-7.21-2-5.78,1.6a143.76,143.76,0,0,0,8.45,17.61c1.89,3.37,7.08.35,5.18-3Z" transform="translate(1 -147)"/><path d="M387.68,476.34c2.54-12.25,1-24.38-2.39-36.31a229.32,229.32,0,0,0-12.44-34.5c-10.26-22.15-24.62-42-37.35-62.74-2-3.28-7.2-.27-5.18,3,11.81,19.24,25,37.69,35.05,57.95a222.63,222.63,0,0,1,12.8,33.34c3.79,12.26,6.37,24.86,3.72,37.63-.78,3.77,5,5.38,5.79,1.6Z" transform="translate(1 -147)"/><path d="M325.35,322.48c-8.84-16.25-8.41-36.43-7.32-54.43.24-3.86-5.76-3.84-6,0-1.17,19.17-1.26,40.18,8.14,57.46,1.84,3.39,7,.37,5.18-3Z" transform="translate(1 -147)"/><path d="M315.05,269.26c3.86,0,3.86-6,0-6s-3.87,6,0,6Z" transform="translate(1 -147)"/><path d="M315.25,263.67l-.56,0,2.12,5.12c.29-.27-.06,0-.17.12.43-.29-.46.09-.13,0,.11,0,.54-.11.06,0s.06,0,.16,0a3,3,0,0,0,.8-5.9,6.35,6.35,0,0,0-5.86,1.48,3,3,0,0,0,0,4.24,3.07,3.07,0,0,0,4.24,0c.24-.21.18-.16-.19.15a1.87,1.87,0,0,1,.31-.17l-.4.16.34-.1c.24-.05.23-.05-.06,0s-.3,0-.05,0a2,2,0,0,1,.35,0c-.5-.08-.6-.08-.28,0l.8-5.89a5.63,5.63,0,0,0-4.16,1.62,3,3,0,0,0-.62,3.28,3,3,0,0,0,2.74,1.84l.56,0a3,3,0,0,0,3-3,3.07,3.07,0,0,0-3-3Z" transform="translate(1 -147)"/><path d="M328,341.45a17,17,0,0,0,2.7,4.43,3,3,0,0,0,4.24,0,3.06,3.06,0,0,0,0-4.24c-.23-.25-.24-.25,0,0-.1-.15-.19-.3-.28-.45s-.29-.55-.43-.82c-.34-.66-.68-1.31-1-2a3,3,0,0,0-4.11-1.08,3.07,3.07,0,0,0-1.07,4.11Z" transform="translate(1 -147)"/><path d="M169.53,359.52l-1.24-.16v6h2a3,3,0,1,0,0-6h-2a3,3,0,0,0-2.13,5.12,3.54,3.54,0,0,0,2.13.88l1.24.16a3,3,0,0,0,2.12-.87,3,3,0,0,0,0-4.25,3.54,3.54,0,0,0-2.12-.88Z" transform="translate(1 -147)"/><path d="M169.39,379.31c-2.11.51-4.12,2-6,3L157,385.8c-3.39,1.84-.37,7,3,5.18l5.56-3c1.67-.91,3.55-2.41,5.38-2.86,3.75-.92,2.16-6.7-1.59-5.78Z" transform="translate(1 -147)"/><path d="M575.26,269.35a36.58,36.58,0,0,1,4.15-.67c1.56,0,3.12,0,4.68.09,3.87.17,3.86-5.83,0-6-1.56-.07-3.12-.11-4.68-.09a16,16,0,0,0-2.29.17c-.62.09-1.27.43-1.86.5a3.1,3.1,0,0,0-3,3c0,1.46,1.38,3.21,3,3Z" transform="translate(1 -147)"/><path d="M443.17,510.71a20.85,20.85,0,0,0,.56-3,3,3,0,0,0-.88-2.12,3,3,0,0,0-4.24,0,3.6,3.6,0,0,0-.88,2.12l0,.19.11-.8a15.56,15.56,0,0,1-.44,2.05,3,3,0,0,0,5.79,1.6Z" transform="translate(1 -147)"/><path d="M385,486a16.77,16.77,0,0,0,1.62-4.51,39,39,0,0,0,1.11-5.1c.21-1.61-1.53-3-3-3a3.08,3.08,0,0,0-3,3,26.83,26.83,0,0,1-.9,3.5,11.43,11.43,0,0,1-1,3.09c-2,3.32,3.2,6.34,5.18,3Z" transform="translate(1 -147)"/><path d="M381.73,488.55c3.86,0,3.87-6,0-6s-3.87,6,0,6Z" transform="translate(1 -147)"/><path d="M385.36,484.91v-.45a3,3,0,1,0-6,0v.45a3,3,0,0,0,6,0Z" transform="translate(1 -147)"/><path d="M382.18,487.91c3.86,0,3.87-6,0-6s-3.86,6,0,6Z" transform="translate(1 -147)"/><path d="M381.64,488.46c3.86,0,3.87-6,0-6s-3.87,6,0,6Z" transform="translate(1 -147)"/><path d="M381.46,489.45c3.86,0,3.87-6,0-6s-3.87,6,0,6Z" transform="translate(1 -147)"/><rect class="cls-1" x="1" y="1" width="900" height="396"/></svg>