<svg id="Layer_1" data-name="Layer 1" xmlns="http://www.w3.org/2000/svg" viewBox="0 0 979.78 980.16"><title>wwdlogo</title><path d="M52.25,326.69,123,325.38c3.86-.07,3.87-6.07,0-6l-70.79,1.31c-3.86.07-3.87,6.07,0,6Z" transform="translate(-11.42 -18.75)"/><path d="M120.72,323.83q35.43,75.45,75.74,148.45c1.86,3.38,7,.36,5.18-3q-40.3-73-75.73-148.46c-1.64-3.49-6.82-.45-5.19,3Z" transform="translate(-11.42 -18.75)"/><path d="M201.91,472.61c15.36-21.26,24.17-46.56,34.9-70.29q17.2-38,36.67-75c1.79-3.42-3.38-6.46-5.18-3q-19.44,36.94-36.67,75c-10.74,23.73-19.54,49-34.9,70.29-2.26,3.14,2.94,6.14,5.18,3Z" transform="translate(-11.42 -18.75)"/><path d="M272,327.5q53-2.16,105.93.66c3.86.21,3.85-5.79,0-6Q325,319.34,272,321.5c-3.84.16-3.86,6.16,0,6Z" transform="translate(-11.42 -18.75)"/><path d="M249.18,558.14c34.3-59.48,68.13-119.24,102.15-178.89l29.18-51.17c1.92-3.36-3.26-6.39-5.18-3L272,506.23q-14,24.46-28,48.88c-1.93,3.35,3.25,6.38,5.18,3Z" transform="translate(-11.42 -18.75)"/><path d="M249.49,701.93q.36-73.59.29-147.18c0-3.86-6-3.87-6,0q.06,73.59-.29,147.18c0,3.86,6,3.87,6,0Z" transform="translate(-11.42 -18.75)"/><path d="M245.72,699.36l-98.82.56c-3.86,0-3.87,6,0,6l98.82-.56c3.86,0,3.87-6,0-6Z" transform="translate(-11.42 -18.75)"/><path d="M150.25,702.78q1.22-71.28-.47-142.55c-.09-3.86-6.09-3.87-6,0q1.68,71.26.47,142.55c-.07,3.86,5.93,3.86,6,0Z" transform="translate(-11.42 -18.75)"/><path d="M147.24,550.85c-17-32-35.6-63-54.1-94.19C74.93,426,57.79,394.84,42,362.85c-1.71-3.46-6.88-.43-5.18,3C52.61,397.87,69.75,429,88,459.69c18.5,31.15,37.1,62.2,54.1,94.19,1.81,3.41,7,.39,5.18-3Z" transform="translate(-11.42 -18.75)"/><path d="M149.56,561a12.69,12.69,0,0,0-3-11.24c-2.57-2.89-6.8,1.37-4.24,4.25a6.24,6.24,0,0,1,1.46,5.4c-.77,3.76,5,5.38,5.79,1.59Z" transform="translate(-11.42 -18.75)"/><path d="M545.49,523.72a372,372,0,0,1-68-.5c-3.84-.38-3.82,5.62,0,6a372,372,0,0,0,68,.5c3.82-.32,3.86-6.32,0-6Z" transform="translate(-11.42 -18.75)"/><path d="M480.21,527.14c10.49-38,20.27-76.27,34-113.22,1.35-3.62-4.45-5.19-5.78-1.59-13.76,36.95-23.55,75.25-34,113.22-1,3.73,4.76,5.32,5.78,1.59Z" transform="translate(-11.42 -18.75)"/><path d="M508.18,415.05c1.55,9.2,4.85,17.88,7.9,26.65q5,14.34,9.57,28.82c6.06,19,11.75,38.07,17.44,57.16,1.1,3.69,6.89,2.12,5.79-1.59-5.69-19.09-11.38-38.19-17.44-57.17q-4.47-14-9.26-27.89C519,432,515.57,423,514,413.46c-.64-3.8-6.42-2.19-5.78,1.59Z" transform="translate(-11.42 -18.75)"/><path d="M453.62,608.34l116.26.21c3.86,0,3.86-6,0-6l-116.26-.21c-3.86,0-3.87,6,0,6Z" transform="translate(-11.42 -18.75)"/><path d="M567.5,606.48c4.67,16.61,9,33.38,14.56,49.72,5.38,15.78,12.09,31.07,18.79,46.33,1.54,3.53,6.72.48,5.18-3-6.75-15.38-13.49-30.78-18.8-46.73-5.26-15.76-9.44-31.89-13.94-47.88-1-3.71-6.84-2.14-5.79,1.59Z" transform="translate(-11.42 -18.75)"/><path d="M422.87,703.85c3.66-7.6,5.66-15.73,8-23.8s4.73-16.22,7.24-24.28Q445.89,630.65,455,606c1.33-3.64-4.47-5.2-5.79-1.6q-8.7,23.79-16.3,48-3.78,12.07-7.28,24.26c-2.34,8.15-4.2,16.57-7.89,24.24-1.66,3.47,3.51,6.51,5.18,3Z" transform="translate(-11.42 -18.75)"/><path d="M419.79,699.12c-34.67,1.26-69.42.56-104.11.41-3.86,0-3.87,6,0,6,34.69.15,69.44.85,104.11-.41,3.85-.14,3.87-6.14,0-6Z" transform="translate(-11.42 -18.75)"/><path d="M319,703.49q50.5-147.54,104.19-294,15.3-41.7,30.85-83.3c1.35-3.62-4.45-5.19-5.79-1.6q-54.59,146.08-106,293.32-14.64,41.92-29,83.95c-1.25,3.66,4.54,5.24,5.79,1.6Z" transform="translate(-11.42 -18.75)"/><path d="M452.19,328.58a491.25,491.25,0,0,1,118.85.28c3.83.48,3.79-5.53,0-6a491.25,491.25,0,0,0-118.85-.28c-3.79.45-3.84,6.45,0,6Z" transform="translate(-11.42 -18.75)"/><path d="M569.44,327c10,33.48,23.6,65.91,36.08,98.52q19.07,49.76,38.11,99.53c1.37,3.56,7.17,2,5.79-1.6q-19.06-49.77-38.11-99.53c-12.49-32.6-26.07-65-36.08-98.52-1.1-3.69-6.9-2.12-5.79,1.6Z" transform="translate(-11.42 -18.75)"/><path d="M643.5,526.25q20.61,56.38,41.58,112.62c1.1,2.92,6.21,2.82,5.9-.8-1.61-18.7-.49-37.41.72-56.09.25-3.86-5.75-3.84-6,0-1.21,18.68-2.33,37.39-.72,56.09l5.89-.8q-21-56.24-41.59-112.61c-1.31-3.6-7.11-2-5.78,1.59Z" transform="translate(-11.42 -18.75)"/><path d="M604.72,705.15,785.48,705c3.86,0,3.87-6,0-6l-180.76.13c-3.86,0-3.86,6,0,6Z" transform="translate(-11.42 -18.75)"/><path d="M789.88,702.08q1.11-65.21.27-130.43c0-3.86-6-3.87-6,0q.84,65.22-.27,130.43c-.07,3.86,5.93,3.86,6,0Z" transform="translate(-11.42 -18.75)"/><path d="M791.8,490.22q.81-44-.26-88.05c-.09-3.86-6.09-3.87-6,0q1.07,44,.26,88.05c-.07,3.86,5.93,3.86,6,0Z" transform="translate(-11.42 -18.75)"/><path d="M789.4,494.52a497.87,497.87,0,0,0,63.7-1.19c8.55-.71,17.93-.87,25.07-6.24,5.49-4.14,8.8-10.35,11.21-16.66,5.54-14.49,10.11-33.14,3.29-47.9-6.35-13.77-21.51-19.89-35.49-22.73-22.34-4.54-45.74-4.93-68.36-2.6-3.81.4-3.85,6.4,0,6a241.57,241.57,0,0,1,54.29.42c13.5,1.67,29.35,4.12,39.26,14.37,11.67,12.07,7.56,30.4,3.26,44.76-2,6.53-4.45,13.53-9.57,18.29-6.53,6.08-16.56,5.79-24.92,6.45a498.83,498.83,0,0,1-61.74,1c-3.86-.18-3.85,5.82,0,6Z" transform="translate(-11.42 -18.75)"/><path d="M692.57,581.23q-1.71-100-1.14-200,.17-28.37.51-56.73c0-3.86-6-3.86-6,0q-1.22,100-.16,200.05.3,28.37.79,56.73c.07,3.86,6.07,3.87,6,0Z" transform="translate(-11.42 -18.75)"/><path d="M689.58,326.87q52-.5,103.92-1c34.75-.27,69.88-.32,104.27,5.31,16.77,2.74,33.8,7.33,47.14,18.35,3,2.44,7.23-1.78,4.25-4.24-24.36-20.13-59.5-22.31-89.72-24.21-36-2.26-72.11-1.15-108.12-.82l-61.74.58c-3.86,0-3.87,6,0,6Z" transform="translate(-11.42 -18.75)"/><path d="M946.2,350.16c6.36,3.44,13,7,17.11,13.12,1.85,2.73,6.41,1.11,5.48-2.31A163.62,163.62,0,0,0,962,341.11c-1.46-3.51-7.26-2-5.79,1.6A163.67,163.67,0,0,1,963,362.57l5.48-2.31C963.71,353.2,956.58,349,949.23,345c-3.4-1.83-6.43,3.35-3,5.18Z" transform="translate(-11.42 -18.75)"/><path d="M786.68,572.52q25.82.84,51.65.68c16.76-.11,33.75,0,50.46-1.49,15-1.33,28.48-7.07,42.14-13,12.9-5.62,25.88-11.91,36-21.95,11.29-11.23,17.7-26.09,23.24-40.76,1.37-3.62-4.43-5.18-5.78-1.6-6.38,16.89-14.19,33.53-29.14,44.47-7,5.15-14.89,9.09-22.82,12.67a265.78,265.78,0,0,1-25.11,10.31c-18.67,6.2-39.6,5-59,5.28q-30.81.45-61.59-.58c-3.87-.13-3.86,5.87,0,6Z" transform="translate(-11.42 -18.75)"/><path d="M968.82,654c17.11-50.41,25.35-103.74,21.4-157-.28-3.82-6.29-3.85-6,0,3.92,52.73-4.23,105.4-21.19,155.36-1.24,3.66,4.55,5.23,5.79,1.59Z" transform="translate(-11.42 -18.75)"/><path d="M889.06,807.59a483.91,483.91,0,0,0,79.79-153.88c1.14-3.7-4.65-5.28-5.79-1.59a476,476,0,0,1-78.24,151.23c-2.34,3,1.88,7.29,4.24,4.24Z" transform="translate(-11.42 -18.75)"/><path d="M722.31,944.26c15.74-8.83,32-16.32,47.14-26.3s29.69-20.88,44-32c28.6-22.16,52.81-50.42,75.49-78.45,2.4-3-1.82-7.24-4.25-4.24-22.5,27.81-46.52,56-74.88,78-14.09,10.94-28.49,21.67-43.38,31.5-15.1,10-31.4,17.47-47.14,26.29-3.36,1.89-.34,7.08,3,5.19Z" transform="translate(-11.42 -18.75)"/><path d="M815.07,140.1A522.76,522.76,0,0,1,957.55,343.73c1.38,3.56,7.18,2,5.78-1.59a528,528,0,0,0-144-206.28c-2.89-2.54-7.15,1.69-4.25,4.24Z" transform="translate(-11.42 -18.75)"/><path d="M594.42,33.82a492.68,492.68,0,0,1,177.25,73.86,484.78,484.78,0,0,1,44.57,33.86c2.93,2.49,7.19-1.74,4.25-4.25A498.55,498.55,0,0,0,650.11,42.11,490.08,490.08,0,0,0,596,28c-3.77-.76-5.38,5-1.59,5.78Z" transform="translate(-11.42 -18.75)"/><path d="M377,41.38a494.59,494.59,0,0,1,220.28-7.85c3.77.73,5.39-5.06,1.59-5.79a501.7,501.7,0,0,0-223.46,7.85c-3.73,1-2.15,6.78,1.59,5.79Z" transform="translate(-11.42 -18.75)"/><path d="M178.41,149.25C226.73,110.65,278.1,74,336.74,52.9A313.84,313.84,0,0,1,386.5,39.39c3.79-.7,2.19-6.48-1.59-5.79C323,45,267,76.05,216.46,112.63,202.08,123,188,133.92,174.17,145c-3,2.4,1.26,6.63,4.24,4.24Z" transform="translate(-11.42 -18.75)"/><path d="M54.94,323.49c15.34-32.1,31.48-63.9,51.36-93.48,20.71-30.79,46.14-56.92,72.94-82.4,2.81-2.67-1.44-6.9-4.24-4.24-26.73,25.41-52.1,51.5-72.87,82.13-20.34,30-36.77,62.32-52.37,95-1.65,3.47,3.52,6.52,5.18,3Z" transform="translate(-11.42 -18.75)"/><path d="M36.06,363.41c-10,21.89-14.54,45.91-18.24,69.55a530.2,530.2,0,0,0-6.22,67.51c-1.23,46,3.7,92.23,15.55,136.69A430.5,430.5,0,0,0,54,710.32c1.65,3.49,6.82.45,5.18-3-38.64-81.72-49.25-174.92-36.83-264,3.61-25.88,8-52.9,18.92-76.83,1.6-3.49-3.57-6.54-5.18-3Z" transform="translate(-11.42 -18.75)"/><path d="M54.25,710.92C80,765.46,115.58,814.77,157.58,858c11.5,11.83,24,22.72,38.07,31.34,3.31,2,6.33-3.17,3-5.18-16.2-9.9-30-22.89-42.88-36.75s-25.12-27.9-36.69-42.62a506.11,506.11,0,0,1-59.68-96.87c-1.65-3.49-6.82-.45-5.18,3Z" transform="translate(-11.42 -18.75)"/><path d="M195.71,889.31A500.54,500.54,0,0,0,487,998.26c3.86.16,3.86-5.84,0-6a497.11,497.11,0,0,1-230-68,489.62,489.62,0,0,1-57-39.19c-3-2.39-7.26,1.83-4.24,4.24Z" transform="translate(-11.42 -18.75)"/><path d="M487.46,998.91c32.89-.46,65.85-1.86,98.36-7.15,31.7-5.16,62.62-14.87,92.75-25.85,15.81-5.76,31.26-12.58,45.13-22.2,3.15-2.19.16-7.39-3-5.18-24.62,17.07-54.3,25.78-82.64,34.55a428.53,428.53,0,0,1-95.86,17.71c-18.21,1.34-36.46,1.86-54.71,2.12-3.86.05-3.87,6.05,0,6Z" transform="translate(-11.42 -18.75)"/></svg>