<svg xmlns="http://www.w3.org/2000/svg" viewBox="0 0 897 274.04"><defs><style>.cls-1{fill:#fe6674;}.cls-2{fill:#dfc4ce;}.cls-3{font-size:100px;font-family:FiftyFiftyBlackItalic, "5050";}</style></defs><title>logo</title><g id="bText"><path d="M66.41,75.64h-7.2v-49H40.65V20H84.89L82.81,26.6H66.41Z" transform="translate(-2 -19.08)"/><path d="M114.73,36.44a13.32,13.32,0,0,1,7.6,8,18,18,0,0,1,1,6v25.2h-6.88v-25a10.58,10.58,0,0,0-2.08-6.88,7.2,7.2,0,0,0-5.92-2.56c-3.25,0-5.77.82-7.56,2.44a12.34,12.34,0,0,0-3.64,6.12V75.64H90.33V21l6.88-1.92v21.2a13.73,13.73,0,0,1,5.64-3.92,16.24,16.24,0,0,1,5.8-1A16,16,0,0,1,114.73,36.44Z" transform="translate(-2 -19.08)"/><path d="M140.77,67.48q3.24,3.21,9.8,3.2A10.51,10.51,0,0,0,156,69.36a13.71,13.71,0,0,0,4-3.64l6.08,2.48a16.24,16.24,0,0,1-6.48,6.16,19.62,19.62,0,0,1-9.44,2.24,24.56,24.56,0,0,1-9.08-1.48,15.22,15.22,0,0,1-6-4.16,16.4,16.4,0,0,1-3.36-6.48,32,32,0,0,1-1-8.44v-.88c0-1.33,0-2.62.08-3.88a23.38,23.38,0,0,1,.48-3.72,16.64,16.64,0,0,1,1.28-3.64A15.85,15.85,0,0,1,135,40.36a17.1,17.1,0,0,1,6.48-4.52,21.18,21.18,0,0,1,7.76-1.48,20.66,20.66,0,0,1,8,1.44,16.33,16.33,0,0,1,5.84,4,16.87,16.87,0,0,1,3.56,6.08,24,24,0,0,1,1.2,7.76v3.6H137.53Q137.53,64.29,140.77,67.48Zm20.12-15.84v-.72a10.28,10.28,0,0,0-3.12-7.32,12.09,12.09,0,0,0-3.68-2.4,12.38,12.38,0,0,0-4.88-.92,12.55,12.55,0,0,0-4.72.88,12,12,0,0,0-3.72,2.36,10.43,10.43,0,0,0-2.4,3.4,9.9,9.9,0,0,0-.84,4v.72Z" transform="translate(-2 -19.08)"/><path d="M44.73,221H70.41a17.51,17.51,0,0,1,7,1.32,14,14,0,0,1,5,3.6,14.79,14.79,0,0,1,3,5.48,22.89,22.89,0,0,1,1,6.88,24.39,24.39,0,0,1-.92,6.92,14.6,14.6,0,0,1-2.88,5.48,13.3,13.3,0,0,1-5,3.64,18.17,18.17,0,0,1-7.28,1.32H51.93v21h-7.2Zm7.2,28h17.2q5.45,0,7.8-3a12.07,12.07,0,0,0,2.36-7.72,11.38,11.38,0,0,0-2.6-7.68c-1.73-2-4.25-3-7.56-3H51.93Z" transform="translate(-2 -19.08)"/><path d="M105.17,236.68a8.86,8.86,0,0,1,4.92-1.32,14.93,14.93,0,0,1,6.64,1.76l-2.4,6.4a10.08,10.08,0,0,0-4.56-1.28,6.25,6.25,0,0,0-3.64,1.08,8.38,8.38,0,0,0-2.56,2.92,15.19,15.19,0,0,0-1.48,4.36,28.85,28.85,0,0,0-.48,5.4v20.64H94.73v-30.4a17.46,17.46,0,0,0-1.84-7.92l6.32-3a20.67,20.67,0,0,1,1.16,2.36,11.89,11.89,0,0,1,.76,2.68h.48A12,12,0,0,1,105.17,236.68Z" transform="translate(-2 -19.08)"/><path d="M147.77,276.2a20.46,20.46,0,0,1-7.6,1.4,20.08,20.08,0,0,1-7.52-1.44,18.4,18.4,0,0,1-6.4-4.32,14.26,14.26,0,0,1-4-7,37.16,37.16,0,0,1-.92-8.32V255a28.36,28.36,0,0,1,1-7.44,16.48,16.48,0,0,1,4.08-6.56,17.9,17.9,0,0,1,6.24-4.24,21.21,21.21,0,0,1,14.84,0,18,18,0,0,1,6.2,4.12,18.4,18.4,0,0,1,4.16,6.4,21.76,21.76,0,0,1,1.28,7.6v1.68a33.55,33.55,0,0,1-1,8.16,16.14,16.14,0,0,1-4.16,7.2A17.49,17.49,0,0,1,147.77,276.2Zm5-21.32a14.46,14.46,0,0,0-3-9.52,11,11,0,0,0-4-3,13.33,13.33,0,0,0-5.52-1.08,13.56,13.56,0,0,0-5.36,1,10.88,10.88,0,0,0-3.92,2.84q-3.19,3.69-3.2,9.84v1.84a25.68,25.68,0,0,0,.72,6.24,12.09,12.09,0,0,0,2.48,5,9.38,9.38,0,0,0,3.72,2.72,14.31,14.31,0,0,0,5.56,1,13.7,13.7,0,0,0,5.2-.88,10.27,10.27,0,0,0,3.68-2.48,11,11,0,0,0,2.88-5.2,26.79,26.79,0,0,0,.8-6.64Z" transform="translate(-2 -19.08)"/><path d="M174.81,236.32v46a11.28,11.28,0,0,1-.8,4.28,10.12,10.12,0,0,1-2.24,3.4,11,11,0,0,1-3.32,2.28,9.78,9.78,0,0,1-4,.84,20.41,20.41,0,0,1-2.8-.24,16,16,0,0,1-3-.72v-5H163q5,0,5-4.8v-46Zm-.8-15.16a3.77,3.77,0,0,1,0,5.36,4,4,0,0,1-5.44,0,3.77,3.77,0,0,1,0-5.36,4,4,0,0,1,5.44,0Z" transform="translate(-2 -19.08)"/><path d="M193.41,268.48q3.24,3.21,9.8,3.2a10.54,10.54,0,0,0,5.44-1.32,13.84,13.84,0,0,0,4-3.64l6.08,2.48a16.37,16.37,0,0,1-6.48,6.16,19.51,19.51,0,0,1-9.44,2.24,24.56,24.56,0,0,1-9.08-1.48,15.22,15.22,0,0,1-6-4.16,16.15,16.15,0,0,1-3.36-6.48,32,32,0,0,1-1-8.44v-.88c0-1.33,0-2.62.08-3.88a21.29,21.29,0,0,1,.48-3.72,16.14,16.14,0,0,1,1.28-3.64,15.53,15.53,0,0,1,2.48-3.56,16.94,16.94,0,0,1,6.48-4.52,21.14,21.14,0,0,1,7.76-1.48,20.66,20.66,0,0,1,8,1.44,16.33,16.33,0,0,1,5.84,4,17,17,0,0,1,3.56,6.08,24,24,0,0,1,1.2,7.76v3.6H190.17Q190.17,265.29,193.41,268.48Zm20.12-15.84v-.72a10.28,10.28,0,0,0-3.12-7.32,12.09,12.09,0,0,0-3.68-2.4,13.25,13.25,0,0,0-9.6,0,12,12,0,0,0-3.72,2.36,10.43,10.43,0,0,0-2.4,3.4,9.9,9.9,0,0,0-.84,4v.72Z" transform="translate(-2 -19.08)"/><path d="M253.61,236.64a16.58,16.58,0,0,1,6.08,3.84l-4.24,4.16a15.38,15.38,0,0,0-3.88-2.44,15.25,15.25,0,0,0-10.44,0,10.8,10.8,0,0,0-4,2.76,12.53,12.53,0,0,0-2.64,4.64,17.79,17.79,0,0,0-.88,5.52v1.28a23.65,23.65,0,0,0,1,6.76,12.16,12.16,0,0,0,3.2,5.4,11.43,11.43,0,0,0,3.56,2.28,12.66,12.66,0,0,0,4.84.84,17.56,17.56,0,0,0,5.08-.8,8.59,8.59,0,0,0,4.28-2.72l4.24,4.08a15.69,15.69,0,0,1-6.2,4.08,21.53,21.53,0,0,1-7.4,1.28,25.12,25.12,0,0,1-6.68-1,16.31,16.31,0,0,1-6-3,15.85,15.85,0,0,1-3.56-4,16.76,16.76,0,0,1-2-5.32,26.62,26.62,0,0,1-.52-3.84q-.12-1.92-.12-3.84V255c0-1.28,0-2.5.12-3.68a18.15,18.15,0,0,1,.56-3.4,16.71,16.71,0,0,1,1.28-3.28,17.93,17.93,0,0,1,2.36-3.4,13.38,13.38,0,0,1,3-2.64,19.28,19.28,0,0,1,3.76-1.84,24.85,24.85,0,0,1,8.16-1.44A20.79,20.79,0,0,1,253.61,236.64Z" transform="translate(-2 -19.08)"/><path d="M265,241.68v-5.36h4.56v-8.64l6.88-1.92v10.56h7.36l-1.68,5.36h-5.68v25.2q0,4.8,5,4.8h3v5a17.21,17.21,0,0,1-2.36.68,10.31,10.31,0,0,1-2.12.2,12.32,12.32,0,0,1-4.12-.68,9.23,9.23,0,0,1-3.4-2,8,8,0,0,1-2.12-3.4,14.58,14.58,0,0,1-.68-4.6v-25.2Z" transform="translate(-2 -19.08)"/></g><g id="_YoiuArePower" data-name="#YoiuArePower"><polygon id="bg" class="cls-1" points="875 175.92 0 175.92 15 106.92 897 106.92 875 175.92"/><g id="txt"><path class="cls-2" d="M129.06,154.92l-6.37,35.75H99.56l6.25-36L79.44,101.3h26.87l15.25,32.37,26.38-32.37h26.62Z" transform="translate(-2 -19.08)"/><path class="cls-2" d="M181.06,192.17a42,42,0,0,1-17.75-3.75c-10.75-5.37-15.37-16.12-12.87-30.5a39,39,0,0,1,7.25-16.87,39.89,39.89,0,0,1,15.5-12.5,47.46,47.46,0,0,1,19.75-4.25c10.87,0,19.37,3.25,25,9.5s7.62,14.5,5.87,24.5a39.56,39.56,0,0,1-14.75,24.62C201.31,189.05,191.69,192.17,181.06,192.17Zm9-51.25a16.29,16.29,0,0,0-11.37,4.38c-3.25,3-5.38,7.5-6.38,13s-.37,10,1.88,13.12c2,2.75,5.12,4.25,9.75,4.25a16,16,0,0,0,11.37-4.25c3.38-3,5.5-7.62,6.38-13.12s.5-10-1.75-13C197.94,142.55,194.81,140.92,190.06,140.92Z" transform="translate(-2 -19.08)"/><path class="cls-2" d="M269.31,190.67l1-6a5.31,5.31,0,0,1-1.37,1,34.27,34.27,0,0,1-19.88,6.5,29.2,29.2,0,0,1-13.12-2.62,13.78,13.78,0,0,1-7.5-8.63c-1.25-4-1.13-9.12-.13-15l7-40h21.88l-5.88,33.13c-1.25,7-1.25,11.12-.62,12.87,1,2.38,3.12,4,7.37,4a15.57,15.57,0,0,0,7-1.5,12.44,12.44,0,0,0,4.75-4c1.63-2.12,3.13-6.5,4.38-13.75l5.37-30.75h21.88l-11.5,64.75Z" transform="translate(-2 -19.08)"/><path class="cls-2" d="M362.94,190.67l-4.25-19.25H325.06l-11,19.25H289.94l53-89.37h22.87l22,89.37Zm-13.5-62.25-14.25,25.13h19.5Z" transform="translate(-2 -19.08)"/><path class="cls-2" d="M438.06,145.17c-3.62-1.5-5.5-2.12-6.75-2.12-11.62,0-15.62,12.87-17.37,22.62l-4.38,25H387.69l11.5-64.75h20.62l-1.12,6.75c5-4.5,11.37-8.37,18.25-8.37a18.8,18.8,0,0,1,5,.75Z" transform="translate(-2 -19.08)"/><path class="cls-2" d="M457.56,164.55c-.25,3.75.63,6.5,2.38,8.5,2,2.12,5,3.25,9.25,3.25,5.87,0,10.5-3,13.25-8.5l20.5,1.62c-8.88,16.25-21.38,22.75-37,22.75-12.13,0-21-3.75-26-11.12-3.88-6-5.13-13.63-3.5-22.5a40.8,40.8,0,0,1,40.5-34.25c10.62,0,18.5,3.5,23.37,9.62,5.5,7,6.75,17.13,3.75,30.63Zm16.88-24a14.35,14.35,0,0,0-9.25,3,12.86,12.86,0,0,0-5,7h24.37c0-3.25-.87-5.63-2.37-7.25C480.44,141.42,477.94,140.55,474.44,140.55Z" transform="translate(-2 -19.08)"/><path class="cls-2" d="M550.31,159.17H535.06l-5.5,31.5H506.31l15.75-89.37h38c9.63,0,16.38,1,20.63,2.75a20.9,20.9,0,0,1,10.75,9.37c2.62,4.63,3.12,10.38,2.12,16.63-2.37,13.87-12.62,23.37-24.37,26.87C564.19,158.42,557.94,159.17,550.31,159.17Zm2.5-39.62H542.06l-3.75,21.37h11.38c6.12,0,10.62-.5,13.37-1.75a11.75,11.75,0,0,0,7.25-9c.88-5.25-1.5-8.37-5.75-9.62A50.11,50.11,0,0,0,552.81,119.55Z" transform="translate(-2 -19.08)"/><path class="cls-2" d="M622.43,192.17a42,42,0,0,1-17.75-3.75c-10.75-5.37-15.37-16.12-12.87-30.5a39,39,0,0,1,7.25-16.87,39.89,39.89,0,0,1,15.5-12.5,47.46,47.46,0,0,1,19.75-4.25c10.87,0,19.37,3.25,25,9.5s7.62,14.5,5.87,24.5a39.56,39.56,0,0,1-14.75,24.62C642.68,189.05,633.06,192.17,622.43,192.17Zm9-51.25a16.29,16.29,0,0,0-11.37,4.38c-3.25,3-5.38,7.5-6.38,13s-.37,10,1.88,13.12c2,2.75,5.12,4.25,9.75,4.25a16,16,0,0,0,11.37-4.25c3.38-3,5.5-7.62,6.38-13.12s.5-10-1.75-13C639.31,142.55,636.18,140.92,631.43,140.92Z" transform="translate(-2 -19.08)"/><path class="cls-2" d="M742.31,190.67H721.56l-4.25-35.75-16.5,35.75H679.93l-11.25-64.75h22.25l4.88,36.5,16.62-36.5h20.38l3.75,36.5,17.75-36.5h22.25Z" transform="translate(-2 -19.08)"/><path class="cls-2" d="M789.06,164.55c-.25,3.75.62,6.5,2.37,8.5,2,2.12,5,3.25,9.25,3.25,5.88,0,10.5-3,13.25-8.5l20.5,1.62c-8.87,16.25-21.37,22.75-37,22.75-12.12,0-21-3.75-26-11.12-3.87-6-5.12-13.63-3.5-22.5a40.82,40.82,0,0,1,40.5-34.25c10.63,0,18.5,3.5,23.38,9.62,5.5,7,6.75,17.13,3.75,30.63Zm16.87-24a14.39,14.39,0,0,0-9.25,3,12.91,12.91,0,0,0-5,7h24.38c0-3.25-.88-5.63-2.38-7.25C811.93,141.42,809.43,140.55,805.93,140.55Z" transform="translate(-2 -19.08)"/><path class="cls-2" d="M886.68,145.17c-3.62-1.5-5.5-2.12-6.75-2.12-11.62,0-15.62,12.87-17.37,22.62l-4.38,25H836.31l11.5-64.75h20.62l-1.12,6.75c5-4.5,11.37-8.37,18.25-8.37a18.8,18.8,0,0,1,5,.75Z" transform="translate(-2 -19.08)"/><path d="M125.06,150.92l-6.37,35.75H95.56l6.25-36L75.44,97.3h26.87l15.25,32.37L143.94,97.3h26.62Z" transform="translate(-2 -19.08)"/><path d="M177.06,188.17a42,42,0,0,1-17.75-3.75c-10.75-5.37-15.37-16.12-12.87-30.5a39,39,0,0,1,7.25-16.87,39.89,39.89,0,0,1,15.5-12.5,47.46,47.46,0,0,1,19.75-4.25c10.87,0,19.37,3.25,25,9.5s7.62,14.5,5.87,24.5a39.56,39.56,0,0,1-14.75,24.62C197.31,185.05,187.69,188.17,177.06,188.17Zm9-51.25a16.29,16.29,0,0,0-11.37,4.38c-3.25,3-5.38,7.5-6.38,13s-.37,10,1.88,13.12c2,2.75,5.12,4.25,9.75,4.25a16,16,0,0,0,11.37-4.25c3.38-3,5.5-7.62,6.38-13.12s.5-10-1.75-13C193.94,138.55,190.81,136.92,186.06,136.92Z" transform="translate(-2 -19.08)"/><path d="M265.31,186.67l1-6a5.31,5.31,0,0,1-1.37,1,34.27,34.27,0,0,1-19.88,6.5,29.2,29.2,0,0,1-13.12-2.62,13.78,13.78,0,0,1-7.5-8.63c-1.25-4-1.13-9.12-.13-15l7-40h21.88l-5.88,33.13c-1.25,7-1.25,11.12-.62,12.87,1,2.38,3.12,4,7.37,4a15.57,15.57,0,0,0,7-1.5,12.44,12.44,0,0,0,4.75-4c1.63-2.12,3.13-6.5,4.38-13.75l5.37-30.75h21.88l-11.5,64.75Z" transform="translate(-2 -19.08)"/><path d="M358.94,186.67l-4.25-19.25H321.06l-11,19.25H285.94l53-89.37h22.87l22,89.37Zm-13.5-62.25-14.25,25.13h19.5Z" transform="translate(-2 -19.08)"/><path d="M434.06,141.17c-3.62-1.5-5.5-2.12-6.75-2.12-11.62,0-15.62,12.87-17.37,22.62l-4.38,25H383.69l11.5-64.75h20.62l-1.12,6.75c5-4.5,11.37-8.37,18.25-8.37a18.8,18.8,0,0,1,5,.75Z" transform="translate(-2 -19.08)"/><path d="M453.56,160.55c-.25,3.75.63,6.5,2.38,8.5,2,2.12,5,3.25,9.25,3.25,5.87,0,10.5-3,13.25-8.5l20.5,1.62c-8.88,16.25-21.38,22.75-37,22.75-12.13,0-21-3.75-26-11.12-3.88-6-5.13-13.63-3.5-22.5a40.8,40.8,0,0,1,40.5-34.25c10.62,0,18.5,3.5,23.37,9.62,5.5,7,6.75,17.13,3.75,30.63Zm16.88-24a14.35,14.35,0,0,0-9.25,3,12.86,12.86,0,0,0-5,7h24.37c0-3.25-.87-5.63-2.37-7.25C476.44,137.42,473.94,136.55,470.44,136.55Z" transform="translate(-2 -19.08)"/><path d="M546.31,155.17H531.06l-5.5,31.5H502.31L518.06,97.3h38c9.63,0,16.38,1,20.63,2.75a20.9,20.9,0,0,1,10.75,9.37c2.62,4.63,3.12,10.38,2.12,16.63-2.37,13.87-12.62,23.37-24.37,26.87C560.19,154.42,553.94,155.17,546.31,155.17Zm2.5-39.62H538.06l-3.75,21.37h11.38c6.12,0,10.62-.5,13.37-1.75a11.75,11.75,0,0,0,7.25-9c.88-5.25-1.5-8.37-5.75-9.62A50.11,50.11,0,0,0,548.81,115.55Z" transform="translate(-2 -19.08)"/><path d="M618.43,188.17a42,42,0,0,1-17.75-3.75c-10.75-5.37-15.37-16.12-12.87-30.5a39,39,0,0,1,7.25-16.87,39.89,39.89,0,0,1,15.5-12.5,47.46,47.46,0,0,1,19.75-4.25c10.87,0,19.37,3.25,25,9.5s7.62,14.5,5.87,24.5a39.56,39.56,0,0,1-14.75,24.62C638.68,185.05,629.06,188.17,618.43,188.17Zm9-51.25a16.29,16.29,0,0,0-11.37,4.38c-3.25,3-5.38,7.5-6.38,13s-.37,10,1.88,13.12c2,2.75,5.12,4.25,9.75,4.25a16,16,0,0,0,11.37-4.25c3.38-3,5.5-7.62,6.38-13.12s.5-10-1.75-13C635.31,138.55,632.18,136.92,627.43,136.92Z" transform="translate(-2 -19.08)"/><path d="M738.31,186.67H717.56l-4.25-35.75-16.5,35.75H675.93l-11.25-64.75h22.25l4.88,36.5,16.62-36.5h20.38l3.75,36.5,17.75-36.5h22.25Z" transform="translate(-2 -19.08)"/><path d="M785.06,160.55c-.25,3.75.62,6.5,2.37,8.5,2,2.12,5,3.25,9.25,3.25,5.88,0,10.5-3,13.25-8.5l20.5,1.62c-8.87,16.25-21.37,22.75-37,22.75-12.12,0-21-3.75-26-11.12-3.87-6-5.12-13.63-3.5-22.5a40.82,40.82,0,0,1,40.5-34.25c10.63,0,18.5,3.5,23.38,9.62,5.5,7,6.75,17.13,3.75,30.63Zm16.87-24a14.39,14.39,0,0,0-9.25,3,12.91,12.91,0,0,0-5,7h24.38c0-3.25-.88-5.63-2.38-7.25C807.93,137.42,805.43,136.55,801.93,136.55Z" transform="translate(-2 -19.08)"/><path d="M882.68,141.17c-3.62-1.5-5.5-2.12-6.75-2.12-11.62,0-15.62,12.87-17.37,22.62l-4.38,25H832.31l11.5-64.75h20.62l-1.12,6.75c5-4.5,11.37-8.37,18.25-8.37a18.8,18.8,0,0,1,5,.75Z" transform="translate(-2 -19.08)"/></g><text id="txt-2" data-name="txt" class="cls-3" transform="translate(8.28 159.53)">#</text></g></svg>