<svg id="Layer_1" data-name="Layer 1" xmlns="http://www.w3.org/2000/svg" viewBox="0 0 850.59 742.43"><title>wwalogo</title><path d="M287.64,362.22a204.29,204.29,0,0,0,15-38c3.68-13.11,4.58-27.18,9.58-39.89,5.36-13.62,14.24-26.21,21.6-38.81l22.66-38.8c2-3.34-3.24-6.36-5.18-3l-22.66,38.8c-7.24,12.39-15.55,24.66-21.22,37.87-5.29,12.29-6.27,25.89-9.62,38.75a195.9,195.9,0,0,1-15.32,40c-1.76,3.43,3.42,6.47,5.18,3Z" transform="translate(-3.5 -100.23)"/><path d="M283.41,359l-30.75,33.52c-8.54,9.31-17.84,18.63-22.93,30.39-2.44,5.63-3,11.43-4.35,17.35-1.6,7.11-5.84,12.7-9.29,19a45.37,45.37,0,0,0-4,34.46c1,3.71,6.82,2.13,5.78-1.6-3.68-13.2,0-24.29,6.88-35.62,3-4.92,5.45-9.81,6.6-15.47,1.27-6.25,2.06-12.23,4.95-18,5.41-10.85,14.52-19.56,22.61-28.39l28.75-31.34c2.61-2.84-1.62-7.09-4.24-4.24Z" transform="translate(-3.5 -100.23)"/><path d="M212.26,493.84a36.58,36.58,0,0,0,14.82,11.82c3.51,1.51,6.57-3.66,3-5.18a30.87,30.87,0,0,1-12.67-9.67c-2.31-3-7.52-.05-5.18,3Z" transform="translate(-3.5 -100.23)"/><path d="M228.11,495.78c-3,16.26-4.91,34.25,3,49.52,6.43,12.48,19.58,22.11,34,20.69,2-.19,4.08-2.49,2.59-4.51a10.21,10.21,0,0,1-2.27-5.38l-2.2,2.9c5.94-1.18,8.85,8.68,11.65,12.35a34.5,34.5,0,0,0,10.86,9.39c10.49,5.71,23,3.1,33.52,8.27,9.64,4.73,16.56,13.64,26.66,17.6,8.08,3.16,17.78,2.47,23.78-4.33,2.55-2.89-1.68-7.15-4.24-4.25-8,9.05-20.11,2.53-27.79-3.3-8.92-6.78-16.57-12.93-28-14.56-11-1.56-21.42-2.23-29.11-11.29-5.55-6.53-8-17.83-18.92-15.67a3,3,0,0,0-2.2,2.89,15.9,15.9,0,0,0,3.09,8.41l2.59-4.52c-13,1.27-24.23-7.63-29.52-19-6.27-13.5-4.34-29.45-1.72-43.58.7-3.77-5.08-5.39-5.78-1.59Z" transform="translate(-3.5 -100.23)"/><path d="M362.67,606.21a51.3,51.3,0,0,0,32,2c3.74-1,2.15-6.74-1.59-5.79a45.77,45.77,0,0,1-28.77-2c-3.59-1.43-5.15,4.37-1.6,5.78Z" transform="translate(-3.5 -100.23)"/><path d="M356.71,205.59c23.93-24.87,49.5-50.54,83-61.88a99.65,99.65,0,0,1,25.21-5.21c6.65-.44,13.71,0,19.9-2.86,6.88-3.23,11.16-10.15,17.9-13.84,7.39-4,15.72-6.07,23.83-8.09,3.74-.94,2.16-6.73-1.6-5.79-7.62,1.91-15.26,3.9-22.39,7.26a48,48,0,0,0-10.13,6.32c-3.17,2.61-5.67,6.28-9.29,8.28-7.15,4-17.2,2.37-25.06,3.43a108.24,108.24,0,0,0-23.21,5.87c-33,12.27-58.41,37.38-82.36,62.27-2.68,2.78,1.56,7,4.24,4.24Z" transform="translate(-3.5 -100.23)"/><path d="M528.26,115.1c41.71-15.61,89.77-10.55,125,17.61,16.75,13.39,28,30.55,36.62,50,9.12,20.67,17.71,42.89,30.94,61.38,5,7,12,14.13,21.25,14.39,10.3.29,17.21-8.15,22.75-15.68l-4.71.61c9.36,9.89-4.51,21.28-12,26.52a3,3,0,0,0-.6,4.71C768.22,296.11,777.1,328,769.86,357c-3.73,15-10,28.61-3.81,43.95,5.2,12.88,16.36,18.46,26.42,26.9,6.28,5.27,10.56,12.15,7.63,20.55-3.34,9.56-12.88,14.85-21.15,19.57-3.35,1.91-.34,7.09,3,5.18,12.62-7.2,28.57-18.35,24.55-35.28-3.09-13-17.19-18.54-26.21-26.76a33.84,33.84,0,0,1-11.15-23.21c-.47-9.35,3.4-18.14,5.86-27a93.81,93.81,0,0,0,1.05-45,94.9,94.9,0,0,0-24.28-45.47l-.61,4.71c6.41-4.52,13.23-9.42,16.24-17,2.6-6.5,1.8-13.83-3.08-19-1.45-1.53-3.62-.89-4.71.6-5.75,7.82-13.8,16.58-24.14,10.62-8.58-4.94-13.4-15.22-18-23.54q-8.32-15.15-15.4-30.94c-4.69-10.47-8.84-21.21-14.33-31.3-18.12-33.32-52.11-56.54-89.41-62.62a140.52,140.52,0,0,0-71.73,7.32c-3.58,1.34-2,7.14,1.6,5.78Z" transform="translate(-3.5 -100.23)"/><path d="M778.58,473.61c6.39,8.82,7.59,19.08,4.42,29.42-2.51,8.2-8.49,15.24-7.83,24.25.51,7,5.9,13,13.22,12.81,7.78-.21,13.53-7.17,16.18-13.82h-5.78a11.65,11.65,0,0,1,.89,2.63q4.7.92,4.89-2.63h-5.78c3.23,9.65-1.58,18.78-9.14,24.88-3,2.41-5.51,3.51-6.26,7.53-.33,1.75-.22,3.55-.45,5.31-.32,2.49-1.75,4.33-3.48,6.11-3.43,3.54-7.75,4.09-12.36,5.11a122,122,0,0,0-13,3.48c-8.32,2.82-15.89,7.11-21.6,13.89-2.47,2.94,1.75,7.21,4.24,4.25,7-8.28,16.62-12.08,26.87-14.64,4.55-1.14,9.62-1.56,13.93-3.42a22.82,22.82,0,0,0,9.26-8.17,11.68,11.68,0,0,0,2.05-5.4c.25-1.78-.22-4.39.55-6,.9-1.87,4.17-3.44,5.69-4.8a36.52,36.52,0,0,0,4.39-4.66c5.71-7.21,8.09-16.2,5.12-25.07-.92-2.74-5-3-5.78,0s-1.06,8,3,8.37c4.87.45,3.84-5.66,2.75-8.37a3,3,0,0,0-5.78,0c-2.56,6.42-14,15.07-17.29,4.26-2.07-6.7,2.89-13.21,5.35-19,5.51-13.09,5.44-27.55-3.09-39.32-2.25-3.09-7.45-.1-5.18,3Z" transform="translate(-3.5 -100.23)"/><path d="M708,617.12c-10.21,9.63-24.27,11.31-37.49,7.88a64.1,64.1,0,0,1-18.37-8.1,60.7,60.7,0,0,1-7.57-5.67c-2.69-2.39-4.42-2.39-8.1-2.32-7.9.15-15.67,1.88-23.3,3.8-7.44,1.87-15.93,2.87-22.75,6.5-5.47,2.91-6.52,10.77-7,16.44-.6,7.83.82,15.68,1.53,23.45.35,3.82,6.35,3.85,6,0-.71-7.77-2.15-15.62-1.53-23.45.25-3.18.77-9,3.41-11,3-2.24,7.53-2.55,11.09-3.43,8.23-2,16.39-4.51,24.8-5.71,3-.42,8.09-1.69,11.06-.53,2.23.88,4.93,4.1,7,5.53,19.2,13.39,47.09,18.1,65.43.82,2.82-2.66-1.43-6.89-4.24-4.25Z" transform="translate(-3.5 -100.23)"/><path d="M363.79,606.64a37.45,37.45,0,0,0,24.63,3.07c1.07-.24,2.1-.62,3.16-.88,2.11-.52.91-.94.48.22a29.7,29.7,0,0,1-3.25,6.59c-3.18,4.65-7,9-10.46,13.39-2.37,3,1.85,7.27,4.25,4.24,3.81-4.82,7.94-9.51,11.39-14.6,2.32-3.43,6.08-10,3.87-14.29s-7-1.48-10.24-.66a30.68,30.68,0,0,1-20.81-2.26c-3.46-1.66-6.51,3.51-3,5.18Z" transform="translate(-3.5 -100.23)"/><path d="M330.7,671A134.61,134.61,0,0,1,364,640.51a97.58,97.58,0,0,1,9.28-5.41c5.71-2.83,9.48-1.3,14.93,1.27q10.94,5.18,21.78,10.54c28.81,14.33,57.14,30.26,82.16,50.64,6.76,5.5,14.37,11.25,18.49,19.11,4.31,8.25,5,17.79,5.59,26.9.26,3.83,6.26,3.86,6,0-.56-8-1.12-16.27-3.8-23.91-2.77-7.87-7.79-14-13.95-19.5a316.88,316.88,0,0,0-42.86-31.6c-15.18-9.51-31-18-47-26q-12.44-6.21-25-12.1c-3.09-1.45-6.24-3-9.71-3.17-4.07-.18-7.65,1.55-11.15,3.45a137.92,137.92,0,0,0-42.28,36.06c-2.36,3,1.86,7.28,4.24,4.24Z" transform="translate(-3.5 -100.23)"/><path d="M587.39,662.48c14.94,4.35,24.54,17,31.51,30.23,3.53,6.67,7.24,13.67,9.51,20.88,1.17,3.7,2,7.83.77,11.63-1.39,4.36-5.6,7.32-9.27,9.69-12.55,8.12-27.81,10.5-42.41,11.85-2.94.27-7.51,1.51-10.36.8-3.8-.95-1.95-8.14-1.24-10.83,1.91-7.24,6.24-13.62,10.46-19.7,10-14.43,18.8-29.18,25.65-45.41,1.49-3.55-4.31-5.1-5.79-1.59a211.44,211.44,0,0,1-14.43,28.14c-4.88,8-10.71,15.32-15.54,23.32-4.14,6.85-7.58,14.67-7.25,22.84.37,9.28,6.65,9.42,14.42,8.78,17-1.39,34.88-3.57,49.52-13,6.59-4.25,12.3-9.57,12.79-17.85.51-8.48-3.9-16.64-7.43-24.07-8.38-17.63-19.43-35.69-39.31-41.48-3.72-1.08-5.3,4.71-1.6,5.79Z" transform="translate(-3.5 -100.23)"/><path d="M628.58,705a82.24,82.24,0,0,0,28.3,6.2,51.05,51.05,0,0,0,13.17-1.1c5.51-1.25,11.37-2.2,16.9-.51,8.7,2.65,15.63,9.11,24.78,10.9,7.41,1.45,15.18,1.67,22.69,2.28,15.07,1.23,30.54,2.51,44.77,8a59.75,59.75,0,0,1,19.73,12.31c6.93,6.66,11.14,15.23,16.44,23.12,6.43,9.57,13.69,18.68,19.48,28.66,5.94,10.22,9.16,21.76,13.8,32.58,1.52,3.53,6.69.48,5.18-3-4.17-9.72-7.16-20-12-29.37-5-9.69-11.94-18.4-18.13-27.34-5.54-8-10-16.85-16.25-24.31a61,61,0,0,0-17.63-14.31c-13.42-7.28-28.76-9.76-43.77-11.3-7.67-.78-15.38-1.29-23.06-2-4.29-.4-8.65-.65-12.79-1.9-4.95-1.49-9.42-4.15-13.95-6.58-4.32-2.32-8.51-4.19-13.46-4.56-5.47-.41-10.62.9-15.92,1.93-12.05,2.34-25.5-.94-36.64-5.49-3.58-1.45-5.13,4.35-1.6,5.79Z" transform="translate(-3.5 -100.23)"/><path d="M591.79,625.39l7.93-30q2-7.48,4-15c1.39-5.24,2.69-9.62,7.42-12.8,7.27-4.89,15.79-7.9,23.24-12.59A91.81,91.81,0,0,0,655,537.67c11.34-13,18.79-28.76,25.55-44.49,7.6-17.65,14.85-35.16,17.28-54.37a136.48,136.48,0,0,0-7.26-63.74c-1.31-3.6-7.11-2-5.79,1.6a132.31,132.31,0,0,1,7.63,56.77c-1.74,20.09-9.14,38.36-17,56.71-6.86,15.94-14.36,32.18-26.23,45.09a92.17,92.17,0,0,1-22.37,17.34c-6.85,3.93-15,6.58-21.11,11.61-7.46,6.11-8.46,17.13-10.78,25.9L586,623.8c-1,3.74,4.8,5.33,5.78,1.59Z" transform="translate(-3.5 -100.23)"/><path d="M508.63,170.82c-29.25,6.46-49.8,29.22-63.7,54.57-7.48,13.64-13.25,28.16-18.52,42.78-5.64,15.63-11.37,31.3-15.91,47.29-2.33,8.24-4.6,16.51-7.68,24.51-3.26,8.48-11.34,17.84-21.44,15-11.6-3.25-18.07-19.8-31.13-18.51-6.63.65-8.66,5.59-10.87,11.23A70.39,70.39,0,0,0,335,369.42a200.48,200.48,0,0,0,.48,23.38c.41,6.73.66,13.46,2.11,20.07,3.06,14,10.85,27.59,23.22,35.31,13.53,8.45,28.4-.24,36.74-11.67l-3.39,1.38c5,1.92,6.92,6.17,7.68,11.13.59,3.81,6.38,2.19,5.79-1.59-1.13-7.27-5-12.66-11.87-15.32a3,3,0,0,0-3.39,1.38c-4,5.47-9.67,10.43-16.48,11.8-7.55,1.52-13.83-2.78-18.94-7.89-8.88-8.87-13.55-21.29-14.77-33.64-1.35-13.57-2.53-28.23-.43-41.77.78-5,2.64-17.8,8.26-19.42,5.47-1.58,10.92,4.87,14.31,8.24,8.08,8,20.17,14.86,31.15,7.78,12.29-7.92,15.52-23.07,19.27-36.19,4.13-14.48,9-28.62,13.94-42.83,4.86-13.91,9.86-27.79,16.24-41.09,13.36-27.87,33.5-54.86,65.26-61.87,3.77-.83,2.18-6.62-1.59-5.79Z" transform="translate(-3.5 -100.23)"/><path d="M511,174.9c19.59,2.45,37.21-7.76,56.07-10.8a44.1,44.1,0,0,1,31,6.21c9.51,5.79,18,13.41,26.61,20.38,8.83,7.12,17.79,14.11,26.5,21.38,8.44,7.05,14.5,14.74,17,25.63,2.26,9.69,2.32,19.74,3.74,29.56,1.62,11.14,5.69,21.56,9.32,32.15A116.5,116.5,0,0,1,688,336.88c.1,13.23-1.58,26.39-3.26,39.49-.49,3.82,5.51,3.79,6,0,3.07-23.89,5.69-48.09-1.39-71.55-3.37-11.15-8.15-21.87-10.57-33.29-2.31-10.89-2.1-22.13-4.26-33a47.93,47.93,0,0,0-13.1-25.26c-8.26-8.27-18.11-15.17-27.19-22.49s-18-15-27.48-21.83c-8.15-5.85-17.13-10.41-27.25-11.32-23.66-2.13-44.75,14.28-68.47,11.32-3.82-.48-3.79,5.53,0,6Z" transform="translate(-3.5 -100.23)"/><path d="M399.86,609.86c5.85-24.62,11-50.08,11.85-75.45s-4.63-50.17-11-74.46c-1-3.73-6.78-2.15-5.79,1.59,6.29,23.8,11.63,48.11,10.84,72.87s-5.91,49.73-11.64,73.85c-.89,3.76,4.9,5.36,5.79,1.6Z" transform="translate(-3.5 -100.23)"/><path d="M603.51,564c-33.17,14.5-67.64-7-98.68-17.3-15.51-5.16-31.37-9.87-45.6-18.1-14.6-8.45-25.32-20.88-33.7-35.36-1.93-3.35-7.12-.33-5.18,3,8.57,14.81,19.62,27.79,34.4,36.66,15,9,32,14.07,48.49,19.56,33.21,11,67.93,32.16,103.3,16.71,3.53-1.55.48-6.72-3-5.19Z" transform="translate(-3.5 -100.23)"/><path d="M419,479.1c-5.08-10.75-7.13-22.6-11.81-33.52-1.51-3.54-6.68-.48-5.18,3,4.68,10.92,6.72,22.74,11.81,33.52,1.65,3.49,6.82.44,5.18-3Z" transform="translate(-3.5 -100.23)"/><path d="M423.9,490.23a68.29,68.29,0,0,0-5.3-11.45c-2-3.33-7.14-.32-5.18,3a59.73,59.73,0,0,1,4.69,10c1.29,3.61,7.09,2.05,5.79-1.6Z" transform="translate(-3.5 -100.23)"/><path d="M418.31,492.45c.72,1.49,1.48,3,2.26,4.43a3,3,0,0,0,4.1,1.08,3.07,3.07,0,0,0,1.08-4.11c-.78-1.46-1.54-2.94-2.26-4.43a3,3,0,0,0-4.11-1.08,3.08,3.08,0,0,0-1.07,4.11Z" transform="translate(-3.5 -100.23)"/><path d="M712.82,620.86c7.24-7.21,14.61-14.29,21.67-21.68,2.67-2.79-1.57-7-4.24-4.24-7.06,7.39-14.43,14.47-21.67,21.68-2.74,2.73,1.5,7,4.24,4.24Z" transform="translate(-3.5 -100.23)"/><path d="M733.31,599c3.86,0,3.87-6,0-6s-3.87,6,0,6Z" transform="translate(-3.5 -100.23)"/><path d="M734.13,598.41c3.86,0,3.87-6,0-6s-3.87,6,0,6Z" transform="translate(-3.5 -100.23)"/><path d="M327.58,671.59c28.32,20.39,59.47,36.22,90.88,51.23,15.62,7.47,31.2,15.35,47.5,21.28,15.11,5.49,33.17,10.58,49.22,6.46,8.64-2.22,17.25-9,26.54-7.36,8.67,1.53,10.94,11.61,16.79,17a3,3,0,0,0,4.24,0c3.38-3.38,4.44-7.27,3.8-11.93-.53-3.81-6.31-2.19-5.79,1.6a6.77,6.77,0,0,1-2.25,6.09h4.24c-4.8-4.43-6.83-11.1-12-15.2-5.33-4.24-12.38-4.43-18.75-2.8-8.6,2.19-15.88,7.14-24.94,7.86s-18.57-1.19-27.37-3.61c-17.41-4.77-33.67-12.92-49.92-20.63-16-7.6-32-15.29-47.68-23.62a444.17,444.17,0,0,1-51.48-31.55c-3.14-2.26-6.14,2.94-3,5.18Z" transform="translate(-3.5 -100.23)"/><path d="M558.21,760.92c12.22,25.08,16.06,53.1,23.94,79.64,1.09,3.69,6.89,2.12,5.78-1.6-8-27.07-12.07-55.47-24.54-81.07-1.69-3.47-6.87-.43-5.18,3Z" transform="translate(-3.5 -100.23)"/><path d="M326.29,668.66c-8.51,7.94-21.69,7.94-32.6,9a383.58,383.58,0,0,1-39.5,2.39c-12.83,0-25.57-1.63-38.39-2a116.9,116.9,0,0,0-34.67,4.17c-23,6.46-44,19.13-63.65,32.39-20.15,13.59-38.37,29.66-56,46.33C41.4,780,20.82,798.9,4.09,821c-2.33,3.08,2.88,6.07,5.18,3,15-19.74,33.27-36.64,51.12-53.69,18.26-17.43,36.91-34.55,57.77-48.86C137.8,708,158.83,695,181.89,688.33c25.26-7.28,50.44-1.91,76.16-2.26,14.17-.19,28.28-1.57,42.36-3.07,10.76-1.14,21.86-2.39,30.12-10.09,2.83-2.64-1.42-6.88-4.24-4.25Z" transform="translate(-3.5 -100.23)"/><path d="M566.41,297.88c-18.73-4-36.42-12.77-55.6-14.68-4.28-.43-8.8,1.8-12.79,3.26-4.21,1.53-8.36,3.22-12.45,5a189,189,0,0,0-26.86,14.69l4.1,4.1c1.26-1.65,2.86-3.26,4-5,1-1.43,1.81-.86,0-.9l-2.89-2.21c-.8-1.94.54-1.48-.23-1a13.08,13.08,0,0,0-1.1,1.47,19,19,0,0,1-3.86,3.52l4.1,4.1c12.41-16.24,32.93-34,54.56-33.48,11.33.29,22.86,2.46,34.08,3.92,7.16.92,31.52,3.48,21,16.16-2.45,2.95,1.77,7.22,4.24,4.25,7.31-8.78,4-18.62-6.39-22.89-6.38-2.62-13.92-2.91-20.71-3.77-7.77-1-15.53-2-23.3-2.92-7-.86-14.21-1.31-21.11.5-6.35,1.66-12.52,4.89-18.1,8.28a107.61,107.61,0,0,0-29.42,26.92c-1.83,2.39,1.72,5.75,4.1,4.11s9.51-7,7.95-10.77a3.14,3.14,0,0,0-2.89-2.2c-3.81-.09-7.32,6.45-9.16,8.86s1.71,5.68,4.1,4.11a190.73,190.73,0,0,1,23.56-13.18c7.94-3.72,19.35-10,28.32-8.59,17.55,2.8,33.86,10.4,51.2,14.06,3.77.8,5.38-5,1.6-5.78Z" transform="translate(-3.5 -100.23)"/><path d="M566,303.75c3.78.17,8.08,1.15,10.67-2.25,1-1.29.21-3.36-1.07-4.11a3.09,3.09,0,0,0-4.11,1.08c.62-.81.62-.36,0-.48a15.73,15.73,0,0,0-1.68-.07l-3.76-.17c-3.86-.18-3.85,5.82,0,6Z" transform="translate(-3.5 -100.23)"/><path d="M628.21,291.1c-2.45,4.73-4.81,10.53-1.5,15.51s12,5.77,17.21,7.31c7.16,2.1,13.65,3.63,21.13,3.34,8.24-.32,15.36,1.39,22.13,6.24,3.15,2.25,6.15-2.95,3-5.18A37.34,37.34,0,0,0,676.07,312c-5.25-1.1-10.32-.4-15.6-.56-6.1-.19-12-2.39-17.8-4.09-2.41-.71-6.94-1.15-9-2.67-4.09-3-2.12-6.95-.28-10.5s-3.39-6.46-5.18-3Z" transform="translate(-3.5 -100.23)"/><path d="M631.72,295.9c9.4-1.17,18.5,3,27.84,3.65,4.91.36,10,.35,14.56,2.45,4.14,1.9,7.43,5.21,10.62,8.37,2.74,2.72,7-1.52,4.24-4.24-7.12-7.06-14-11.36-24.15-12.22a115.63,115.63,0,0,1-17-2.37c-5.36-1.27-10.61-2.32-16.13-1.64-3.78.47-3.82,6.48,0,6Z" transform="translate(-3.5 -100.23)"/><path d="M478.26,324.15a25.69,25.69,0,0,1-3.71.42,3,3,0,0,0-.79,5.9c5.89,2,11.44,3.43,17.66,2.11l-1.6-5.79a23.47,23.47,0,0,1-9.47.64c-3.72-.51-5.45,5.07-1.59,5.79,8,1.49,12.87-5.28,20.31-5.26l-1.51-5.59a73.86,73.86,0,0,1-8.11,4.05c-3.11,1.32-.89,6.56,2.32,5.48,11-3.67,23.08-8.06,34.74-5.17,9.79,2.42,16.54,10.62,24.16,16.63,3,2.36,7.28-1.86,4.25-4.24-8.49-6.7-15.92-15.47-26.82-18.18-12.8-3.19-25.86,1.14-37.93,5.18l2.31,5.48a73.86,73.86,0,0,0,8.11-4.05,3,3,0,0,0-1.52-5.59c-6.61,0-12.39,6.66-18.72,5.47l-1.59,5.79a31.42,31.42,0,0,0,12.66-.64c3.75-1,2.16-6.59-1.6-5.79-5.07,1.08-9.72-.47-14.47-2.11l-.8,5.89c1.79-.13,3.54-.35,5.3-.63,3.81-.62,2.19-6.4-1.59-5.79Z" transform="translate(-3.5 -100.23)"/><path d="M487.62,329.68c16.2-4.42,34.88-6.51,48.74,5a3,3,0,0,0,4.71-3.63c-1.18-2.66-4.91-8.49-8.48-5.14s2.06,7.54,4.37,9.24c2.69,2,5.21-1.71,4.11-4.1-8.09-17.63-36.62-12.86-51.36-9.6-3.77.83-2.18,6.62,1.59,5.78,8.77-1.94,17.71-3.13,26.7-2.4,7,.57,14.68,2.25,17.89,9.24L540,330a10.76,10.76,0,0,1-2-1.62q-1.8-2.18-3.89,2.64c.08.74,1.42,2.37,1.74,3.08l4.71-3.63c-15.66-13-36-11.58-54.57-6.53-3.72,1-2.15,6.81,1.59,5.79Z" transform="translate(-3.5 -100.23)"/><path d="M556.47,339.71c-13.9-6.41-25.35-17.88-41.53-18-8.15-.06-14.91,2.83-22.13,6.21-4.3,2-8.15,3.34-12.87,1.79-4.21-1.38-7.93-4.1-11.86-6.08l-2.31,5.48a48.58,48.58,0,0,0,16.69,1.26c3.82-.34,3.85-6.34,0-6a43.86,43.86,0,0,1-15.1-1c-3.19-.83-5.43,3.9-2.31,5.48,6.37,3.22,12.66,8.08,20.17,7.68,7.91-.43,14.45-6.24,22-7.95,18.28-4.11,30.89,9.31,46.17,16.35,3.49,1.61,6.54-3.56,3-5.18Z" transform="translate(-3.5 -100.23)"/><path d="M625.89,354.5c10.84-6,24-7.79,35.66-3,5.68,2.35,9.39,7.27,14.8,9.75s10.11,1.05,14.5-2.41c2.66-2.1-.39-5.38-2.92-5-1.74.26-4,.37-5,2.13a3,3,0,0,0,1.8,4.4,8.59,8.59,0,0,0,5.47-1c2.7-1.27,1.37-5.75-1.51-5.59-6,.31-10.78-3.51-15.84-6.12a139.56,139.56,0,0,0-15.63-6.8l-1.6,5.79a31.38,31.38,0,0,1,10.8,3.72c3.41,1.92,6.17-3,3-5.18a20.43,20.43,0,0,0-8.44-3.47l-1.6,5.78c10.14,1.53,18.47,14.21,29.34,11.93,3.39-.71,2.5-5.82-.8-5.89-8-.18-13.78-7.68-21.62-9.21-2.64-.51-5.46,2.95-2.92,5A84.77,84.77,0,0,0,680,360l2.31-5.48c-10-3.84-17.41-12.5-28.36-14.34s-22,1.34-31.08,7.69c-3.14,2.2-.14,7.41,3,5.18,8.83-6.22,20.41-9.64,31-6,8.63,3,15.24,9.95,23.82,13.22,3.16,1.21,5.37-4,2.32-5.48a78.27,78.27,0,0,1-15.32-9.72l-2.92,5c8.52,1.66,14.15,9.22,23.22,9.42l-.79-5.9c-4,.85-9.19-3.56-12.47-5.47-4.4-2.56-8.53-5.68-13.68-6.45-3.75-.57-5.43,5.11-1.6,5.78a16.72,16.72,0,0,1,7,2.87l3-5.18a36.28,36.28,0,0,0-12.23-4.33,3,3,0,0,0-1.6,5.79,127,127,0,0,1,18.47,8.52c4.64,2.6,9.14,4.9,14.6,4.61l-1.52-5.59c-.83,0-1.11.11-.85.44l1.79,4.4c-1.48.95-1.72,1.27-.72,1a16.54,16.54,0,0,1,2.09-.34l-2.92-5c-6.91,5.44-12.7-3.35-18.46-6.56a41.83,41.83,0,0,0-14.63-4.86,49.53,49.53,0,0,0-30.65,6.1c-3.39,1.87-.36,7.05,3,5.19Z" transform="translate(-3.5 -100.23)"/><path d="M641.59,347.29q6.61.19,13.2.85c3.84.38,3.81-5.62,0-6q-6.59-.64-13.2-.85c-3.86-.11-3.86,5.89,0,6Z" transform="translate(-3.5 -100.23)"/><path d="M660.21,341.37c-2-.09-3.92-1.24-6-1.39a13.56,13.56,0,0,0-5.94.92l3.39,1.38-.6-.93-1.79,4.4a12,12,0,0,1,6.41.48A31.14,31.14,0,0,0,661,348a3,3,0,0,0,2.31-5.48,14.91,14.91,0,0,0-8.82-2.42c-3.21.12-4.28,5.29-.79,5.89a30.81,30.81,0,0,1,7,2c3.5,1.54,6.56-3.63,3-5.18a36.69,36.69,0,0,0-8.48-2.62l-.8,5.89a9.3,9.3,0,0,1,5.79,1.6l2.31-5.48c-2.45-.45-4.57-1.76-7-2.34a20.08,20.08,0,0,0-8,.06c-1.89.29-2.74,2.91-1.79,4.4l.6.94a3.05,3.05,0,0,0,3.39,1.38,8.49,8.49,0,0,1,5.42-.48,22.35,22.35,0,0,0,4.91,1.16c3.86.16,3.85-5.84,0-6Z" transform="translate(-3.5 -100.23)"/><path d="M623.37,348.25a8.93,8.93,0,0,0-3,2.38,3.24,3.24,0,0,0-.88,2.12,3,3,0,0,0,.88,2.12c1.09,1,3.18,1.31,4.24,0,.15-.19.31-.37.48-.55s.39-.46.55-.49c-.06,0-.57.4-.22.17l.28-.18c.23-.14.47-.27.71-.39a3,3,0,0,0,1.08-4.1,3.08,3.08,0,0,0-4.11-1.08Z" transform="translate(-3.5 -100.23)"/><path d="M683.73,360.34c3.86,0,3.87-6,0-6s-3.86,6,0,6Z" transform="translate(-3.5 -100.23)"/><path d="M490.54,322a49.83,49.83,0,0,0-16.29,3.08c-3.56,1.32-2.19,6.86,1.59,5.79,8.25-2.34,16.48-5,24.83-6.92s16.79-2.28,24.05,2.72c3.18,2.2,6.19-3,3-5.18-15.79-10.89-37.17-1-53.49,3.59l1.59,5.79a44.8,44.8,0,0,1,14.7-2.87c3.85-.09,3.87-6.09,0-6Z" transform="translate(-3.5 -100.23)"/></svg>