<svg id="Layer_1" data-name="Layer 1" xmlns="http://www.w3.org/2000/svg" viewBox="0 0 189.58 292.6"><defs><style>.cls-1{fill:#f16674;stroke:#fff;stroke-miterlimit:10;stroke-width:7px;}</style></defs><title>mapPin</title><path class="cls-1" d="M192,98A91,91,0,0,0,10,98c0,1.34,0,2.67.09,4H10c.07.94.17,1.88.25,2.83s.16,1.85.25,2.77a287.68,287.68,0,0,0,77,169.1L101,291l13.48-14.3a287.68,287.68,0,0,0,77-169.1c.09-.92.18-1.84.25-2.77s.18-1.89.25-2.83h-.09C192,100.67,192,99.34,192,98Zm-91.5,58.5a55,55,0,1,1,55-55A55,55,0,0,1,100.5,156.5Z" transform="translate(-6.21 -3.5)"/></svg>