<svg id="Layer_1" data-name="Layer 1" xmlns="http://www.w3.org/2000/svg" viewBox="0 0 858.53 423.92"><title>environmentalProtection</title><path d="M33.59,579.06C45,567.45,60.87,562.69,74.37,554.12c12.19-7.73,20.45-17.9,27.78-30.16,3.69-6.16,7.39-12.42,12.32-17.69,5.57-5.95,12.56-9.07,19.46-13.13,14.32-8.44,25.7-21.57,36.94-33.62,6-6.48,12.1-13,17.64-19.93,4.81-6,9.07-13.1,15.44-17.59,5.66-4,13.08-3.94,18.53-8.46,5.61-4.66,8.87-11.61,12.15-18,5.68-11,14.78-24.17,28.86-16.37,10.71,5.93,15.06,19.38,19.55,29.94,5.89,13.85,14.8,25.91,28.42,32.92,16.14,8.3,34.93,10.15,52.77,8.21,3.8-.41,3.84-6.42,0-6-17.27,1.88-35.71.34-51.18-8.16-13.27-7.28-20.58-19.62-26.13-33.24-4.21-10.31-9.31-21.57-18.93-28a22.8,22.8,0,0,0-30,4.1c-9.09,10.36-11.5,28.39-25.72,33.17-7.29,2.45-12.68,4.77-18,10.59s-9.82,12.52-15.05,18.51C167.29,455,154.89,469.2,141,481c-6.37,5.39-13.84,8.7-20.9,13a52.54,52.54,0,0,0-14.6,13.79c-5,6.65-8.78,14-13.29,21a66.18,66.18,0,0,1-18.35,18.56c-14.5,9.89-32,14.79-44.51,27.53-2.72,2.75,1.52,7,4.24,4.24Z" transform="translate(-27.22 -172.91)"/><path d="M330.92,445.77c23.21-16.06,36.17-40.93,44-67.44a428.65,428.65,0,0,0,9.83-42.81c1.43-7.66,2.21-16.91,11-19.14,6.64-1.69,12.91-1.46,19-5.1,14.07-8.43,26.39-19.49,37.74-31.25a230.58,230.58,0,0,0,16.15-17.81c4.93-6.32,8.74-13.34,12.83-20.2,8.36-14.05,22.43-30.7,40.52-21.79,13.33,6.57,24.75,16.17,34.62,27.2,10.22,11.42,18.78,24.2,27,37.08,6.23,9.74,14.13,28.2,28.2,27.67,12.83-.49,15.7-16.22,20.13-25.42,3.1-6.45,7.92-11.62,15.62-11.45,8.24.17,16,6.43,21.47,12.07a191.82,191.82,0,0,1,29.69,38.94c4.17,7.38,8.17,15.17,10,23.51,1.64,7.66,1.43,17,5.4,23.95,6.91,12.07,23,13.58,29.84,25.48,7.24,12.54,3.95,27.77,9.64,40.82a60,60,0,0,0,12.19,17.58c5.48,5.67,11.73,10,15.72,17,7,12.3,6.82,27.44,18.83,36.52,5.52,4.18,12.83,5.64,18.11,9.88,6.25,5,7.93,14.08,11.64,21a86.71,86.71,0,0,0,29.8,31.91c6.51,4.22,13.69,7.33,19,13.16,2.6,2.86,6.83-1.39,4.24-4.25C878,577.24,871.33,574,865,570a82.41,82.41,0,0,1-18.23-14.64,86.38,86.38,0,0,1-13.63-20.68c-1.67-3.52-2.64-7.41-4.35-10.88-1.59-3.23-4.79-6.17-7.64-8.28-5.44-4-12.49-5.34-17.91-9.69-6.61-5.32-8.05-12.65-10.6-20.31-2.23-6.69-4.94-13.29-9.24-18.94-4.59-6-10.94-10.31-15.91-16A46.94,46.94,0,0,1,756.57,430c-1.52-6.87-1.26-14.06-2.75-21-1.42-6.58-4-13-8.5-18s-10.73-7.73-16.36-11.2a32,32,0,0,1-7.73-6.26c-3.07-3.62-3.81-8.32-4.61-12.86-1.51-8.58-2.79-16.65-6.33-24.68-6.46-14.66-15.5-27.94-25.74-40.19-9-10.73-20.33-25.07-35.42-26.39-13.72-1.19-20.61,9.53-25.06,20.74-2.18,5.49-5,15.62-12.23,16.05-8.16.48-13.6-9.81-17.21-15.54-8-12.59-15.94-25.19-25.08-37-8.9-11.48-19-22.09-30.88-30.49s-25-15.34-39.39-8.42S478,236.61,470,249.63c-8.95,14.6-22.12,27.42-34.81,38.83a156,156,0,0,1-20.55,15.83c-3.56,2.26-6.88,4.08-11.07,4.83-3.34.6-6.77.73-10.05,1.64-14.31,4-14.27,22-16.73,34.08-5.73,28.17-12.87,58.26-32.07,80.61a88.78,88.78,0,0,1-16.84,15.14c-3.16,2.18-.16,7.38,3,5.18Z" transform="translate(-27.22 -172.91)"/><path d="M191.35,519.11l19.08-12.6-4.52-2.59.54,12.17a3,3,0,0,0,3.8,2.89c7.91-2.23,10.84,3.69,13.85,9.62a24.17,24.17,0,0,0,9.81,10.07c10.21,5.73,22.33,4.53,33.56,4,3.84-.18,3.86-6.19,0-6-12.12.56-29.34,2.79-37.07-9.12-2.8-4.31-3.74-9.18-8.19-12.3a15.86,15.86,0,0,0-13.56-2.07l3.8,2.9-.54-12.17c-.09-2.14-2.52-3.9-4.51-2.59l-19.08,12.59c-3.2,2.12-.2,7.32,3,5.19Z" transform="translate(-27.22 -172.91)"/><path d="M248.57,557.07c15.37-12,31.9-22.37,47.77-33.69,14.42-10.28,28.71-25.56,48-23.63,8.47.84,16.36,5,24.79,6.29,7.31,1.16,14.77.79,21.44-2.69,6.46-3.36,10-9.78,12.64-16.32,2.91-7.36,5.1-17.15,13.57-20.14,8.29-2.92,16.81-4.24,24.91-7.91,6.89-3.13,11.73-7.93,16.49-13.72,5.24-6.37,10.3-13.57,19.17-14.48s16,4.06,21.53,10.39C509.32,453.09,513.15,469,522,481.89c4.06,5.88,9,10.1,14.83,14.17,5.34,3.74,11.16,7.34,15,12.7,4.27,5.88,3,13.84,9.24,18.22,7.75,5.41,9.83,13.09,12.57,21.7,2.36,7.4,5.33,14.09,11.16,19.43,6,5.54,13.54,9,21.38,11.21,3.73,1,5.32-4.76,1.6-5.79-7.72-2.13-15.19-5.65-20.71-11.62s-7.22-13.93-9.74-21.52c-2.08-6.28-4.91-12.32-10.21-16.51-1.41-1.1-3.24-1.93-4.31-3.39-1.19-1.62-1.13-3.74-1.62-5.66a27.69,27.69,0,0,0-4.18-9.1c-8.07-11.48-22.48-15.84-30.36-27.59C518.14,465.31,514.05,450,504.06,438c-9.24-11.08-24.66-18.16-38.05-9.46-6.51,4.23-10.69,11.28-15.84,16.92-6.28,6.86-14.53,10.11-23.32,12.64-7.55,2.18-15.19,2.84-20.55,9.2-5,6-6.47,12.83-9.56,19.78-4.18,9.4-11.81,14.06-22.13,13.56-8.85-.43-16.78-4.34-25.32-6.15a42.14,42.14,0,0,0-25.19,2.73c-9.89,4.17-17.66,11.41-26.22,17.68-17.65,12.94-36.3,24.45-53.56,37.93-3,2.37,1.24,6.59,4.25,4.24Z" transform="translate(-27.22 -172.91)"/><path d="M513.82,452.44c13.17-2.25,30.35-4.86,41.1,5.22,4.81,4.52,7.73,10.7,14,13.5,5.88,2.61,18,1,19.72,9,.68,3.15,4.83,2.54,5.79,0,1.56-4.12,10.06,4.25,11.36,5.34l8.69,7.28c6,5,11.84,10.11,18.07,14.78,11,8.25,24,14.92,38,11.53,3.75-.91,2.16-6.7-1.6-5.79-18.4,4.44-34.48-11.59-47.33-22.34l-10.15-8.49c-3.17-2.65-6.32-5.91-10-7.93-4.92-2.71-10.79-1.46-12.87,4h5.79c-1.64-7.55-9.06-10-15.84-11.18-5.44-.92-9.44-2.31-13.11-6.57-2.7-3.14-5-6.5-8.28-9.1-12.59-10-30.3-7.62-45-5.11-3.8.65-2.19,6.43,1.6,5.79Z" transform="translate(-27.22 -172.91)"/><path d="M513.19,446.32l-3.05.39a3.22,3.22,0,0,0-2.12.88,3,3,0,0,0-.88,2.12c.06,1.45,1.33,3.21,3,3l3.05-.39a3.32,3.32,0,0,0,2.12-.88,3.08,3.08,0,0,0,.88-2.12c-.06-1.46-1.33-3.22-3-3Z" transform="translate(-27.22 -172.91)"/><path d="M455.57,278c4.08-.36,12.94-2.74,16.21-.32s.8,9.4,1.78,13.27a3,3,0,0,0,3.69,2.09,31.44,31.44,0,0,0,13.39-8.73l-5.12-2.12c0,3.27.62,7.19,3.39,9.33a6.07,6.07,0,0,0,4,1.3,12.76,12.76,0,0,0,2.34-.6c2.56-.62,2.88-.15,4,2,2,3.75,2.33,8.29,4.13,12.18a24.23,24.23,0,0,0,7.81,9.8c2.8,2,6.76,3.72,10.12,2,3.73-1.86,4.32-6.68,5-10.3A126.79,126.79,0,0,0,527.72,272l-3.8,2.89c6.67,1.24,7.79,10.6,11.44,15.21,3.1,3.92,8.25,7.44,13.37,5.19,3.08-1.36,4.63-4.47,7.42-6.23,2.56-1.62,5.65-2.33,8.54-3.16,5.59-1.61,10.5-3.4,14.13-8.16,2.34-3.08-2.87-6.07-5.18-3-3.25,4.28-9.4,4.92-14.18,6.47a29.79,29.79,0,0,0-6.34,2.7c-2.23,1.34-3.57,3.75-5.64,5.12-6.36,4.19-10.12-8.06-12.26-11.89s-5.15-7.16-9.7-8c-1.72-.32-4,.8-3.8,2.9a124.85,124.85,0,0,1,.06,25.93q-.45,4.21-1.22,8.38c-.23,1.28-.21,3.88-1,4.81-3.6,4.13-8.65-3.43-10-5.87-2.89-5.25-2.79-12.15-6.82-16.76a7.82,7.82,0,0,0-5.63-2.93c-1.1,0-2.52.9-3.42.83-2.37-.19-2.15-2.09-2.17-4.24,0-2.49-3.33-4.1-5.12-2.12a25.12,25.12,0,0,1-10.75,7.19l3.69,2.09c-1.41-5.6,2.17-12.54-3.28-16.91-2.13-1.71-4.51-1.75-7.11-1.63-4.46.2-8.94.8-13.38,1.19-3.82.34-3.85,6.34,0,6Z" transform="translate(-27.22 -172.91)"/><path d="M628.57,293.91c4.16,1.18,7.34,5.13,6.61,9.64-.47,2.88-2.41,5.42-3.46,8.1-1.66,4.25-1.73,9.9,2.27,12.94,11.5,8.72,18.18-15.68,20.6-21.85l-3.69,2.1c2.56.61,3.7,4.65,6,6a6.23,6.23,0,0,0,6.52.27c2.4-1.51,1.95-3.66,2.56-6,1.4-5.49,7.33-5.64,12.07-5.8,3.85-.13,3.87-6.14,0-6-6.37.21-13.68,1.12-17,7.4-.7,1.34-.64,2.75-1.12,4.09-.42,1.17.87,2.13-1.4-.72-1.84-2.32-3-4.29-6.07-5a3.09,3.09,0,0,0-3.69,2.1q-1.81,4.59-3.62,9.19c-1,2.48-2,6.39-4.16,8.19-3.43,2.81-5-.69-4-3.91.75-2.58,2.41-4.86,3.32-7.38a14.72,14.72,0,0,0-10.14-19.11c-3.72-1.05-5.31,4.74-1.6,5.78Z" transform="translate(-27.22 -172.91)"/><path d="M218.65,417a28.67,28.67,0,0,1,25.92,7c4.67,4.45,11,12.88,18.31,7.43,1.68-1.26,3.57-6.26,5.35-5.66,1,.35,2.1,2.57,3.25,3.26a6.48,6.48,0,0,0,3.14,1c5.74.22,7.82-8.41,12.62-8,3.85.34,3.83-5.67,0-6a8.55,8.55,0,0,0-6.42,2.38c-1.18,1-4.2,5.67-5.88,5.63-1.17,0-2.57-2.76-3.5-3.51a6.29,6.29,0,0,0-3.22-1.46c-3-.37-5,1.58-6.52,3.9-1.37,2.12-2.64,4.45-5.63,3.6-2.57-.73-4.46-3.93-6.22-5.75a33.45,33.45,0,0,0-9.54-7,35.28,35.28,0,0,0-23.25-2.61c-3.77.83-2.17,6.62,1.59,5.78Z" transform="translate(-27.22 -172.91)"/><path d="M431.67,464.69c8.75.16,11,14.12,15.65,19.72a3,3,0,0,0,4.71-.61l4.33-8.35c.46-.88,3.4-8.19,4.34-8.35,1.64-.27,4.51,4.11,5.39,5.2a48.64,48.64,0,0,1,5,7.89,3,3,0,0,0,5.18,0c1-1.7,2.31-6,3.91-6.95.25-1,.56-1,.93-.1a12.44,12.44,0,0,1,.93,1.35,27.9,27.9,0,0,1,1.58,2.75,29,29,0,0,1,3,15.44c-.29,3.3-1.93,7.25-.06,10.38,1.7,2.85,5.08,3.12,7.86,1.94,7.17-3.05,11-11.31,13-18.28.84-2.93,1.58-4.93,4.52-6.22,1.61-.71,3.07-.91,4.52-2.06a10.37,10.37,0,0,0,3.84-9.35c-.38-3.81-6.38-3.85-6,0,.56,5.73-5.13,5-8.34,7.77-2.44,2.12-3.46,5.26-4.33,8.27-1.28,4.45-2.94,8.93-6.56,12.07-.49.43-2.75,2.46-3.39,2-.24-.17.5-2.95.56-3.35a36.36,36.36,0,0,0,.47-6.34c-.16-7.18-2.56-16-7.8-21.17-6.83-6.81-11,3.91-13.78,8.82h5.18A54.36,54.36,0,0,0,469,466.48c-2-2.32-5.16-6.32-8.68-6.09-3.06.2-4.43,3-5.69,5.35-2.63,5-5.2,10-7.8,15l4.71-.61c-6.38-7.72-7.27-21.24-19.89-21.47-3.86-.06-3.86,5.94,0,6Z" transform="translate(-27.22 -172.91)"/><path d="M517.23,464.61a17.57,17.57,0,0,1,16.4,5,3,3,0,0,0,5.12-2.12l.48-13.08L534.72,457c5.78,2.65,11.84,2.45,17.19-1.17,3.18-2.16.18-7.36-3-5.18-3.44,2.32-7.24,3-11.13,1.17a3,3,0,0,0-4.52,2.59l-.48,13.08,5.12-2.13a23.76,23.76,0,0,0-22.24-6.54c-3.77.79-2.18,6.57,1.6,5.78Z" transform="translate(-27.22 -172.91)"/><path d="M34.09,588c109.57,2,219.15,4.22,328.73,6,109,1.74,218.06,3,327.11,2.87q92.72-.08,185.43-1.56c3.85-.07,3.87-6.07,0-6-109.67,1.84-219.37,1.9-329.05,1-109-.91-218-2.78-327-4.81q-92.61-1.73-185.2-3.45c-3.87-.07-3.87,5.93,0,6Z" transform="translate(-27.22 -172.91)"/><path d="M34.79,582.66c-1.61-.71-2-1.91-1-3.4a3,3,0,0,0-5.18-3,7.87,7.87,0,0,0,3.14,11.6,3.1,3.1,0,0,0,4.11-1.08c.74-1.27.41-3.45-1.08-4.1Z" transform="translate(-27.22 -172.91)"/><path d="M875.2,595c3.65.51,7.56-.2,9.62-3.6,1.84-3,.94-7.49-2.44-9a3.09,3.09,0,0,0-4.1,1.07,3,3,0,0,0,1.07,4.11c.51.23.6.38.29.82-.57.84-1.92,1-2.85.83a3.11,3.11,0,0,0-3.69,2.1c-.38,1.4.48,3.46,2.1,3.69Z" transform="translate(-27.22 -172.91)"/><path d="M325.19,248c-14.08,9.47-32.33,13.05-48.5,6.94-14.84-5.59-26-20.24-26.95-36.16-1-16.27,10-31.08,24.89-36.88,17.28-6.71,39.57-1.8,51.93,12.21,14.13,16,11.69,40.14-4,54-2.9,2.56,1.36,6.79,4.25,4.24a44.32,44.32,0,0,0,9.85-54.21c-10.11-18.71-33.61-27.8-54.08-24.56-18.48,2.93-35.17,17.24-38.32,36.12-2.93,17.56,6,35.66,20.41,45.65,18.92,13.14,45.13,10.19,63.57-2.19,3.19-2.15.19-7.35-3-5.19Z" transform="translate(-27.22 -172.91)"/></svg>