<svg id="Layer_1" data-name="Layer 1" xmlns="http://www.w3.org/2000/svg" viewBox="0 0 856.58 632.86"><title>mentalHealthAwareness</title><path d="M45.74,328.28c-11-13.58,3.51-33.62,11.44-44.92a280.54,280.54,0,0,1,33.35-38.77c24.56-24.12,52.31-44.84,80-65.16,7-5.11,14.21-10.26,22.36-13.32,8.58-3.22,17.77-3.16,26.59-5.33,16.11-4,29-15,43-23.26,30.38-17.86,66.09-22.92,100.65-25.73,37.45-3.05,86.11-10.49,114.3,20.85,2.58,2.87,6.82-1.38,4.24-4.25-26-28.95-67.85-26.16-103.15-23.74-36.31,2.49-73.68,5.77-107.08,21.39-16.45,7.7-30.29,20.6-47.31,27-9.06,3.42-18.76,3.26-28,5.73-8.66,2.31-16.48,6.9-23.77,12-29.6,20.69-58.94,43.16-84.83,68.38a284.25,284.25,0,0,0-38.81,46c-8.93,13.44-19.14,32.61-7.18,47.34,2.44,3,6.66-1.27,4.24-4.24Z" transform="translate(-24.85 -103.24)"/><path d="M446.56,113.15a140.45,140.45,0,0,1,71.89,8.34c3.6,1.41,5.16-4.39,1.6-5.78A146.28,146.28,0,0,0,445,107.36c-3.81.57-2.19,6.35,1.6,5.79Z" transform="translate(-24.85 -103.24)"/><path d="M481.32,132.87c15-10.78,35.18-10.25,52.87-11,20-.85,40.58-.48,59.39,7.21,9,3.66,17.39,8.51,26.7,11.35s18.94,4.16,28.42,6.19c17.36,3.73,33,11.31,47.59,21.39,14.16,9.82,27,21.47,39.72,33,12.56,11.33,25.59,22,38.55,32.88,13.11,11,25.85,23.24,32.21,39.49,3.39,8.66,5.75,17.56,11.39,25.13,5.79,7.77,12.47,14.64,17.77,22.82,12,18.46,23.58,38.44,31.48,59,8,20.82,11.25,43.82,3.35,65.18-1.35,3.63,4.45,5.19,5.78,1.6,14.56-39.32-6.25-78.7-25.49-112.2-5.2-9.06-10.45-18.11-16.84-26.39s-13.59-15.29-17.51-25.32c-3.33-8.52-5.91-17.05-10.89-24.83A105.56,105.56,0,0,0,789.38,239c-12.93-12.31-27.47-22.88-40.81-34.77s-26.25-24.06-40.38-34.91c-13.59-10.44-28.34-19.52-44.68-25-9.55-3.18-19.47-4.68-29.3-6.69a132.75,132.75,0,0,1-30.34-10.53c-20.81-9.8-42.31-12.17-65.12-11.45-19.89.63-43.55-.14-60.46,12-3.11,2.23-.11,7.43,3,5.18Z" transform="translate(-24.85 -103.24)"/><path d="M861.18,436.56c15.42,11.24,15.12,32.22,13,49.21-2.23,18.28-6.77,36.73-18.32,51.49-10.58,13.53-25.11,23.77-39,33.56-7,4.93-14.48,9.63-23,11.43-9.19,2-18.73.53-28,2.38-3.78.76-2.18,6.54,1.6,5.79,8.24-1.66,16.68-.65,25-1.85a54,54,0,0,0,19.71-7.5,234.11,234.11,0,0,0,35.62-26.57c11.05-9.91,19.74-21.57,25-35.52,5.48-14.5,8.13-30.94,8.49-46.41.36-15.64-3.93-31.6-17.08-41.19-3.12-2.27-6.12,2.93-3,5.18Z" transform="translate(-24.85 -103.24)"/><path d="M478.9,573.91A94,94,0,0,0,504,603.1a35.2,35.2,0,0,1,3.93,2.85c2.35,2.42,1.53,2.59.71,5a29.74,29.74,0,0,0-1.6,7.91A33.07,33.07,0,0,0,511.18,636c5.95,11.1,16.87,17.81,28.32,22.17,13.2,5,27.38,8,41.17,10.91,30.22,6.31,61.37,9.57,92.21,6.75,14.32-1.31,29.16-3.47,42.77-8.3a65.08,65.08,0,0,0,29.2-21.21c8.63-10.77,14.72-23.22,20.32-35.76,2.66-5.94,6.2-12.69,4.46-19.39-1.4-5.38-5.83-9.35-11.43-9.35-3.86,0-3.87,6,0,6,13.88,0-1.83,27.81-4.63,33.34-4.81,9.46-10.35,18.74-17.77,26.41-9,9.32-19.93,14.22-32.4,17.24a217.51,217.51,0,0,1-39.83,5.69c-27.28,1.43-54.62-1.64-81.31-7.21-12.78-2.66-25.75-5.54-38.1-9.81-11.1-3.83-22.09-9.78-27.8-20.51-3.08-5.8-4.41-12.58-2.46-19,1.54-5,2.94-8.54-1.76-12.33-5.53-4.45-11-8.37-15.85-13.64a89.29,89.29,0,0,1-12.21-17.12c-1.87-3.38-7.05-.36-5.18,3Z" transform="translate(-24.85 -103.24)"/><path d="M758.18,581.46c-14-5.17-28.86-5.31-43.57-5.76-15.92-.49-31.38-3.59-47.19-5.08-16.29-1.52-32.68-1.54-49-1.37-13.46.13-27,.19-40.33,2-14.52,2-28.7,6.37-40.46,15.36-3,2.31-.05,7.53,3,5.18,13.6-10.38,30.24-14.21,47-15.58,17.84-1.46,36-1.29,53.87-1,9.93.19,19.87.66,29.74,1.74,9.65,1,19.18,3,28.84,3.89,18.92,1.8,38.33-.37,56.5,6.34,3.63,1.34,5.2-4.45,1.6-5.78Z" transform="translate(-24.85 -103.24)"/><path d="M433.83,576c5.66,7.78,11.45,15.07,19.05,21.07,8.09,6.39,14.86,12.65,20.49,21.4,12,18.68,23.31,37.89,34.93,56.84,9.75,15.9,18.89,33.05,32.23,46.31,8.77,8.72,30.12,24.16,38.09,6.11,3.79-8.59,2.16-19.88.27-28.72-2.53-11.82-8-22.93-8.14-35.19,0-3.86-6-3.87-6,0,.22,18.35,10.43,34.67,9.88,53.25-.11,3.86-.56,8.68-3.71,11.34-4,3.42-9.86,1-13.84-1.31-7-4.1-13-9.93-18.15-16.14-11.33-13.58-19.88-29.61-29.1-44.64-10.41-17-20.5-34.16-31.27-50.88a78.69,78.69,0,0,0-18.07-20A108,108,0,0,1,439,573c-2.25-3.09-7.46-.1-5.18,3Z" transform="translate(-24.85 -103.24)"/><path d="M210.16,432.07c-20,17.68-22.76,48.93-2.95,67.89,2.78,2.67,7-1.57,4.24-4.25-17.55-16.79-14.66-43.85,3-59.39,2.9-2.57-1.36-6.8-4.24-4.25Z" transform="translate(-24.85 -103.24)"/><path d="M207.48,497.9c-7.63,24.32,13.88,43.32,35,49.57,13.81,4.08,28.35,4.35,42.52,6.31a207.88,207.88,0,0,1,43.1,10.87c3.63,1.33,5.19-4.47,1.59-5.79A210.58,210.58,0,0,0,293.06,549c-12.93-2.22-26.09-2.64-39-5-11-2-22.35-5.62-30.84-13.24-8.72-7.82-13.57-19.76-10-31.26,1.16-3.69-4.63-5.27-5.78-1.6Z" transform="translate(-24.85 -103.24)"/><path d="M245.21,548c29.74,23.78,66.24,37.35,104.09,40.56a230.18,230.18,0,0,0,62.21-3.47c10.54-2,20.78-5,31.15-7.68a142.9,142.9,0,0,1,32.68-4.23c23.88-.52,49.13-.7,72.15,6.33,3.71,1.13,5.29-4.66,1.6-5.79-19.61-6-40.2-6.31-60.54-6.55-10.36-.13-20.75-.08-31.05,1.24-9.93,1.28-19.45,4.08-29.1,6.66-39.95,10.69-82.71,11.58-122.32-1.14a177.66,177.66,0,0,1-56.63-30.17c-3-2.39-7.26,1.83-4.24,4.24Z" transform="translate(-24.85 -103.24)"/><path d="M60.52,317.07C54,322.65,45.77,325.45,39,330.66a36.93,36.93,0,0,0-12.74,18.69c-4.45,15,1.74,30.71,14.11,39.89,3.1,2.3,6.1-2.91,3-5.19-11.76-8.72-16-24.86-9.41-38.07,6.45-12.83,20.53-15.87,30.74-24.67,2.93-2.53-1.33-6.75-4.24-4.24Z" transform="translate(-24.85 -103.24)"/><path d="M36.54,361.07c-4.37,36.51,25.2,63.64,53.34,81.12,7.9,4.9,16,9.5,24,14.18s16,10.13,24.6,13.55c8.9,3.52,18.9,3.34,28.23,5a188.31,188.31,0,0,1,28.33,7.34c3.66,1.24,5.23-4.55,1.59-5.79a188.26,188.26,0,0,0-26.52-7c-8.28-1.53-17-1.64-25.1-3.69-8.89-2.24-16.93-8.05-24.77-12.61-7.64-4.45-15.32-8.84-22.89-13.4-27.94-16.82-59.21-42.13-54.83-78.66.46-3.82-5.55-3.79-6,0Z" transform="translate(-24.85 -103.24)"/><path d="M102.32,407.46c-4.74-6.8-9.56-13.56-14.21-20.43s-8.83-14-8.73-22.42c.19-16.78,13.53-29.24,24.89-39.86,2.83-2.64-1.42-6.87-4.24-4.24C87.7,332,74.58,345.1,73.44,363c-.53,8.25,2.44,15.87,6.69,22.8,5.22,8.51,11.31,16.54,17,24.72,2.19,3.15,7.39.15,5.18-3Z" transform="translate(-24.85 -103.24)"/><path d="M93.55,327.47c-9.24-1.29-20.56-5-26.59-12.67-6.56-8.3,1.48-20.62,7.88-26.41,7.6-6.87,17.61-10.57,27.06-14.11q15.22-5.7,30.85-10.29c3.7-1.09,2.13-6.88-1.59-5.78a407,407,0,0,0-39.3,13.57c-10.25,4.2-20.27,9.55-26.92,18.69-5.54,7.62-9.28,19.46-3,27.71,6.71,8.81,19.41,13.6,30,15.08,3.78.52,5.41-5.26,1.6-5.79Z" transform="translate(-24.85 -103.24)"/><path d="M65.36,320.2l.43-.43a3,3,0,0,0,0-4.24,3.07,3.07,0,0,0-4.25,0l-.42.42a3,3,0,1,0,4.24,4.25Z" transform="translate(-24.85 -103.24)"/><path d="M134,276.2c-.68-11.28,3.91-21.5,9-31.28a191,191,0,0,1,15.18-24.59c11.69-15.9,26.82-29.65,45-37.64,8.94-3.93,19-4.54,27.76-8.69,8.92-4.22,16.52-10.39,25.82-14.05,18.26-7.16,38-9.17,57.5-9.66,10.88-.27,21.81-.2,32.69.17s24.83,1.57,31.09,12.09c2,3.31,7.16.3,5.18-3-10.65-17.88-36.77-15.25-54.52-15.34-21.22-.12-42.87.66-63.39,6.56A108.62,108.62,0,0,0,237.55,163c-4.5,2.84-8.63,5.79-13.81,7.29-5.55,1.6-11.22,2.49-16.69,4.44-19.64,7-36.38,20.42-49.37,36.55a184.71,184.71,0,0,0-19.41,29.83c-5.75,10.89-11,22.46-10.24,35.06.22,3.84,6.23,3.86,6,0Z" transform="translate(-24.85 -103.24)"/><path d="M299.73,173.66a424.82,424.82,0,0,1,50.48,27.49c3.26,2.08,6.28-3.11,3-5.18a423.91,423.91,0,0,0-50.47-27.49c-3.48-1.6-6.54,3.57-3,5.18Z" transform="translate(-24.85 -103.24)"/><path d="M347.83,307.08c1.25-30.36-8.37-60.42.77-90.22a105,105,0,0,1,47.92-60.24c3.36-1.91.34-7.09-3-5.18a111.17,111.17,0,0,0-49.76,61,107.1,107.1,0,0,0-5.35,40.47c1.06,18.2,4.2,35.88,3.45,54.2-.16,3.86,5.84,3.85,6,0Z" transform="translate(-24.85 -103.24)"/><path d="M384.56,150.62l7.41-8.36c1.68-1.89,4.37-4.08,5.31-6.53,1.84-4.75-2.82-11-5.49-14.53-7.42-9.91-18.7-15.48-31.14-14.42-3.82.33-3.86,6.33,0,6a28.78,28.78,0,0,1,25,10.27,37.65,37.65,0,0,1,3.9,5.63q.75,1.32,1.41,2.7,1.49,2.44-.76,3.85c-2.2,4-6.85,7.72-9.88,11.14-2.56,2.88,1.67,7.14,4.24,4.25Z" transform="translate(-24.85 -103.24)"/><path d="M428.07,268.18c-.29-14.57-1.7-29.63-.74-44.17.82-12.39,12.17-18.18,20.9-25,9.38-7.36,15.37-17.3,21.7-27.22,6.64-10.4,14.63-21,27.2-24.2,3.74-.95,2.15-6.74-1.6-5.79-11.84,3-20.43,11.82-27.21,21.55-8.19,11.76-14.4,24.08-26.19,32.8-8.69,6.42-18.49,12.83-20.4,24.3-1.23,7.37-.31,15.25-.16,22.68l.5,25.07c.08,3.86,6.08,3.87,6,0Z" transform="translate(-24.85 -103.24)"/><path d="M479.05,129.41a29.84,29.84,0,0,0-3.93,24.91c1,3.71,6.83,2.13,5.79-1.6a23.87,23.87,0,0,1,3.32-20.28c2.16-3.21-3-6.22-5.18-3Z" transform="translate(-24.85 -103.24)"/><path d="M514.66,284.11a124.4,124.4,0,0,1,3.1-52.87c4.64-16.46,12.94-31.48,22.28-45.69,4.57-7,9.39-13.76,14.23-20.54,4.49-6.31,9.08-12.77,15.14-17.68,13.27-10.74,31.16-9.18,47.06-7.63,3.84.37,3.81-5.63,0-6-16.8-1.64-35.17-2.77-49.44,7.93-6,4.51-10.71,10.4-15.12,16.42-5.52,7.54-10.9,15.2-16.06,23-10,15.08-18.94,31.09-23.88,48.61a131.41,131.41,0,0,0-3.09,56.07c.59,3.8,6.37,2.19,5.78-1.6Z" transform="translate(-24.85 -103.24)"/><path d="M567.5,169.46c44-6.41,91.23,2.13,124.16,33.76,2.79,2.67,7-1.56,4.25-4.24-34.61-33.24-83.8-42-130-35.3-3.8.55-2.18,6.33,1.6,5.78Z" transform="translate(-24.85 -103.24)"/><path d="M685.85,195c22.34-4.45,41,17.08,55.4,31a570.25,570.25,0,0,1,45,49.12c2.45,3,6.67-1.28,4.25-4.25a571.77,571.77,0,0,0-50.39-54.23c-15.2-14.34-33-31.95-55.89-27.4-3.78.75-2.18,6.54,1.6,5.78Z" transform="translate(-24.85 -103.24)"/><path d="M646.13,186.47c7,9.88,17.08,16.27,26.37,23.77,4.68,3.78,9.26,7.92,12.51,13,4.17,6.6,5.67,14.27,6.53,21.93.42,3.79,6.42,3.83,6,0-1.58-14.08-5.84-25.86-16.49-35.54-9.77-8.89-22-15.29-29.74-26.23-2.22-3.12-7.42-.13-5.18,3Z" transform="translate(-24.85 -103.24)"/><path d="M597.36,196.17c-4.62,6-8.46,12.9-8.28,20.72.16,7.39,3.52,14.33,8.3,19.85,11,12.63,29.59,17.35,45,22,9.2,2.79,18.63,5.68,28.11,7.31,6.79,1.17,12.52-.38,17.59-5s8.38-11.34,14.67-14.46c7.79-3.85,19.75-3.18,28.11-1.85,21.6,3.44,34.21,23.1,44.49,40.41,2,3.32,7.16.31,5.19-3-8.13-13.69-17-27.66-30.67-36.38A48.63,48.63,0,0,0,728,238.35c-7.66-.71-16.41-.9-23.87,1.29-6.3,1.86-10.62,6.05-14.75,11-5.15,6.1-9.43,11-18.16,9.51-8.88-1.54-17.73-4.28-26.35-6.87-8.89-2.66-17.94-5.39-26.42-9.18S602,235,597.64,226.56c-5.07-9.92-1.42-19.12,4.9-27.36,2.35-3.06-2.86-6.06-5.18-3Z" transform="translate(-24.85 -103.24)"/><path d="M697.51,247.33v-2.12a3,3,0,0,0-6,0v2.12a3,3,0,1,0,6,0Z" transform="translate(-24.85 -103.24)"/><path d="M586.46,246.34a178.81,178.81,0,0,0-26.72,24.57c-2.55,2.89,1.67,7.14,4.24,4.25a171.55,171.55,0,0,1,25.51-23.64c3-2.29.06-7.51-3-5.18Z" transform="translate(-24.85 -103.24)"/><path d="M579,355.64c2.54-11.23,10.55-19.48,18.82-27,9.32-8.45,19-16.48,28.92-24.23,3-2.37-1.23-6.59-4.24-4.24-10.74,8.4-21.34,17.08-31.29,26.4-8.12,7.62-15.48,16.34-18,27.44-.85,3.76,4.94,5.37,5.79,1.6Z" transform="translate(-24.85 -103.24)"/><path d="M503.67,309.19c-2,4.94-5.32,9-6.73,14.26a35.52,35.52,0,0,0-.57,14.94c.6,3.81,6.38,2.19,5.79-1.59a28,28,0,0,1,2-15.78c1.58-3.53,3.87-6.63,5.32-10.24s-4.36-5.14-5.79-1.59Z" transform="translate(-24.85 -103.24)"/><path d="M499.4,341.37a223.76,223.76,0,0,1,57,6.65c4.53,1.15,9.25,2.33,13.26,4.84,3.7,2.33,6.47,5.67,9.45,8.82,4.94,5.22,10.56,9.66,18.08,9.68,3.86,0,3.87-6,0-6-9.51,0-14.53-9.83-21.08-15.21-6.22-5.11-14.17-7-21.84-8.82a231.61,231.61,0,0,0-54.91-6c-3.86,0-3.87,6,0,6Z" transform="translate(-24.85 -103.24)"/><path d="M409.81,337.72c-2,10.87,5.45,18.56,13.57,24.51,3.12,2.29,6.12-2.92,3-5.18-5.64-4.13-12.28-9.9-10.81-17.73.71-3.78-5.07-5.4-5.79-1.6Z" transform="translate(-24.85 -103.24)"/><path d="M390.19,392.09c3.35-9.74,15.24-16.19,23.7-21a123.69,123.69,0,0,1,29.79-12c9.86-2.59,19.87-4.49,29.19-8.74,5.07-2.31,9.84-5,15.31-6.25s11.14-1.8,16.63-3.17c3.75-.93,2.16-6.71-1.59-5.78-5.78,1.43-11.74,1.89-17.5,3.36-5.37,1.37-10.1,4-15.09,6.3-11.24,5.18-23.63,6.72-35.34,10.45A127.48,127.48,0,0,0,405.67,369c-8.43,5.37-17.87,11.6-21.26,21.46-1.26,3.66,4.53,5.23,5.78,1.6Z" transform="translate(-24.85 -103.24)"/><path d="M275.62,183.67c1.15,6-1.57,11.62-3.12,17.3A40.4,40.4,0,0,0,271,215.22c.74,8,4.63,15.18,11.49,19.48,3.28,2.06,6.3-3.13,3-5.18-8.09-5.07-9.71-14.88-8-23.65,1.59-8.15,5.54-15.27,3.92-23.79-.72-3.79-6.5-2.19-5.79,1.59Z" transform="translate(-24.85 -103.24)"/><path d="M193.67,210.33c-1.1,9.41,4.85,17.38,10.9,23.95,6.67,7.22,14.52,13.2,22.3,19.16,3.06,2.35,6-2.86,3-5.18a187,187,0,0,1-18.68-15.73c-5.91-5.93-12.59-13.23-11.54-22.2.45-3.83-5.56-3.8-6,0Z" transform="translate(-24.85 -103.24)"/><path d="M162.44,303c8.29-.17,16.76-.4,24.81-2.6s14.79-6.59,21.33-11.48c11.92-8.92,22.54-20.79,22.32-36.55-.06-3.85-6.06-3.86-6,0,.21,14.73-10.83,25.33-22,33.29-5.86,4.18-11.84,7.69-18.91,9.37s-14.35,1.82-21.56,2c-3.85.07-3.87,6.07,0,6Z" transform="translate(-24.85 -103.24)"/><path d="M216.88,282.9c15.76-11.68,26.85-28.91,43.56-39.32,17.83-11.11,40.85-10.44,58.3,1.06,3.24,2.13,6.24-3.06,3-5.18a60.56,60.56,0,0,0-59-4.05c-19.83,9.56-31.62,29.46-49,42.31-3.07,2.27-.08,7.48,3,5.18Z" transform="translate(-24.85 -103.24)"/><path d="M266.43,257.75c.41,4.67,2.45,8.17,4.9,12.08a90.43,90.43,0,0,1,7.77,15.29,93.55,93.55,0,0,1,6,32.05c.24,10.86,1.59,20.72,5.58,30.91,3.69,9.42,7.53,19.95,14.57,27.41,2.66,2.81,6.89-1.44,4.24-4.24-6.91-7.33-11-18.86-14.32-28.21-3.67-10.38-3.64-20.42-4.24-31.23a93.61,93.61,0,0,0-5.42-26.68A95.08,95.08,0,0,0,280,272.71c-2.49-4.68-7.06-9.53-7.53-15-.32-3.82-6.33-3.85-6,0Z" transform="translate(-24.85 -103.24)"/><path d="M175.78,347.6c8.73-.12,16.73,4.81,24.15,8.89a242.2,242.2,0,0,1,22.72,14.18c12.74,9,24.24,20.7,39.61,25.05,3.72,1,5.31-4.73,1.59-5.79-16.35-4.63-28.92-18.31-42.74-27.58a243.55,243.55,0,0,0-23-13.66c-7-3.65-14.19-7.2-22.29-7.09-3.86,0-3.87,6,0,6Z" transform="translate(-24.85 -103.24)"/><path d="M213.63,437.65c6.29-3.75,10.87-9.88,16.56-14.44,7.16-5.76,14.54-11.24,21.82-16.85,13.24-10.19,26.13-20.19,42-25.93a110.22,110.22,0,0,1,48.45-5.89c17.73,1.75,35,6.52,52.91,6.8,3.86.06,3.86-5.94,0-6-18.52-.29-36.43-5.41-54.81-7a113.46,113.46,0,0,0-48.15,6.28c-15.81,5.71-28.74,15.2-41.94,25.36q-10.56,8.14-21.13,16.27c-3,2.35-6.06,4.71-8.86,7.33-3.26,3.06-6,6.54-9.91,8.86-3.31,2-.29,7.17,3,5.18Z" transform="translate(-24.85 -103.24)"/><path d="M119,328.63c4,5.84,8.15,11.79,10.35,18.59,2.13,6.6,2.3,13.57,2.14,20.45-.29,12.75-1.88,26.06,3.61,38,11.45,24.93,42.24,27,65.71,22.46,3.79-.73,2.19-6.51-1.59-5.78-13.45,2.59-28.12,3.52-40.88-2.37-10.84-5-18.48-14-20.54-25.88-2.09-12,.43-24.33-.48-36.44-.93-12.33-6.29-22.07-13.14-32.09-2.16-3.17-7.36-.17-5.18,3Z" transform="translate(-24.85 -103.24)"/><path d="M106.66,432.7a170.06,170.06,0,0,1,48.66-7.38c3.86,0,3.87-6,0-6a175.69,175.69,0,0,0-50.25,7.59c-3.69,1.12-2.11,6.91,1.59,5.79Z" transform="translate(-24.85 -103.24)"/><path d="M170.22,430.49c5.16,4.18,10.25,8.47,15.5,12.53,4.47,3.44,9.05,6.09,14.82,6,3.86,0,3.87-6,0-6-5.64.06-9.83-3.65-14-7s-8.06-6.53-12.09-9.8c-3-2.41-7.24,1.81-4.24,4.25Z" transform="translate(-24.85 -103.24)"/><path d="M663.92,275.47c6.46,3.44,10.63,12,12.58,18.79,2.28,7.92,1.81,16.15,1.16,24.26-.3,3.85,5.7,3.83,6,0,.78-9.72,1.06-19.57-2.37-28.87-2.67-7.24-7.31-15.62-14.35-19.37-3.4-1.81-6.44,3.37-3,5.19Z" transform="translate(-24.85 -103.24)"/><path d="M736.08,328.8C734.21,336,730,342,729,349.53s-.2,15.06.7,22.53c.46,3.78,6.46,3.83,6,0-.9-7.47-1.9-15.21-.65-22.7,1.14-6.79,5.15-12.38,6.86-19,1-3.74-4.82-5.34-5.79-1.6Z" transform="translate(-24.85 -103.24)"/><path d="M687.24,496.53c1.21-8.52,14-12.28,20.57-16a127.09,127.09,0,0,0,22.3-15.63c14.57-13.15,20.9-30,22.35-49.25.29-3.86-5.71-3.84-6,0-.78,10.37-2.74,20.72-8,29.83-4.73,8.2-11.64,15-19.19,20.56a172,172,0,0,1-22.75,13.79c-6.4,3.35-13.95,7.18-15.08,15.11-.53,3.77,5.25,5.41,5.79,1.59Z" transform="translate(-24.85 -103.24)"/><path d="M750.28,435c9.46-9,19.16-17.73,28.31-27,7.42-7.53,14.35-15.83,18.35-25.72,9.34-23-.38-47.8-9.85-69.09-1.56-3.52-6.73-.47-5.18,3,9.08,20.41,18.77,44.88,8.25,66.63-4.31,8.91-11.1,16.3-18.1,23.18-8.53,8.39-17.34,16.5-26,24.73-2.8,2.66,1.44,6.9,4.25,4.24Z" transform="translate(-24.85 -103.24)"/><path d="M803.1,319.12c-.85,8.51,10,13.52,15.77,17.5,3.19,2.2,6.19-3,3-5.18-2.76-1.89-5.55-3.74-8.27-5.68-2.26-1.62-4.84-3.59-4.53-6.64.39-3.84-5.62-3.81-6,0Z" transform="translate(-24.85 -103.24)"/><path d="M837.82,372.07V398c0,3.87,6,3.87,6,0V372.07c0-3.86-6-3.87-6,0Z" transform="translate(-24.85 -103.24)"/><path d="M837.38,354.13c15.3,9.13,20.37,24.34,20.29,41.39-.09,18.68-.42,37.36-.64,56,0,3.87,6,3.87,6,0,.24-21,1.66-42.37.5-63.35-.9-16.34-8.94-30.79-23.12-39.25-3.33-2-6.35,3.2-3,5.18Z" transform="translate(-24.85 -103.24)"/><path d="M857.55,542a39.28,39.28,0,0,0-10.92-31.74c-2.68-2.79-6.92,1.45-4.24,4.24a33.6,33.6,0,0,1,9.16,27.5c-.43,3.83,5.58,3.8,6,0Z" transform="translate(-24.85 -103.24)"/><path d="M854.71,494.2c-13.62,21.76-46,37.88-39.27,68.07.84,3.76,6.63,2.17,5.78-1.6-6-26.93,26.4-43.84,38.67-63.44,2.05-3.28-3.13-6.3-5.18-3Z" transform="translate(-24.85 -103.24)"/><path d="M763,420.62c5.58.6,9.07,7.14,11.49,11.54a67,67,0,0,1,5.46,13.27,107.45,107.45,0,0,1,4,29.74c.09,9.69-.83,19.29-1.56,28.94s-.51,19.13,3.92,27.92c1.74,3.45,6.92.42,5.18-3-5.45-10.81-3.13-23.32-2.25-34.89a180.79,180.79,0,0,0,0-32.07,90.86,90.86,0,0,0-7.38-28.63c-3.71-8.09-9.11-17.76-18.82-18.8-3.83-.41-3.81,5.6,0,6Z" transform="translate(-24.85 -103.24)"/><path d="M790.93,463.71c7.26,1.28,15.26-2.19,22.23.1,7.73,2.54,12.19,13.08,14.18,20.25,4.61,16.65,0,33.92-7.11,49.15-1.62,3.48,3.55,6.53,5.18,3,8-17.17,13.06-36.66,7.26-55.32-2.32-7.47-6.49-15.83-13-20.46-8.45-6-17.86-.9-27.1-2.54-3.78-.66-5.4,5.12-1.6,5.79Z" transform="translate(-24.85 -103.24)"/><path d="M727.11,356.16c-14.27,13.26-28.47,26.61-42.85,39.76C670.93,408.12,657,420,640.94,428.43c-32.42,17-70.78,17.23-106.52,17.38-19.39.09-39.51-1-56.4-11.57-3.28-2.05-6.29,3.14-3,5.18,14.78,9.25,32.13,11.8,49.28,12.29a491.35,491.35,0,0,0,57-1.6c18.31-1.61,36.56-4.95,53.55-12.19,16.8-7.16,31.46-18.18,45.14-30.14,17.52-15.32,34.29-31.54,51.35-47.38,2.83-2.63-1.42-6.87-4.25-4.24Z" transform="translate(-24.85 -103.24)"/><path d="M271,521.82c3.18-19.76,18.63-37.21,35.55-46.84,3.35-1.91.33-7.1-3-5.18-18.13,10.32-34.89,29.25-38.3,50.43-.61,3.78,5.17,5.4,5.78,1.59Z" transform="translate(-24.85 -103.24)"/><path d="M244.63,461.88c5.56.63,10.49,3.82,15.59,5.9a98.6,98.6,0,0,0,15.3,4.77,149.13,149.13,0,0,0,32,3.27c20,.1,41.47-1.16,59-11.8,3.3-2,.29-7.2-3-5.19-17.54,10.67-39.58,11.4-59.56,10.94a130.36,130.36,0,0,1-31.15-4.08c-9.55-2.59-18.32-8.7-28.16-9.81-3.83-.43-3.8,5.58,0,6Z" transform="translate(-24.85 -103.24)"/><path d="M367.32,464.16c3.86,0,3.87-6,0-6s-3.87,6,0,6Z" transform="translate(-24.85 -103.24)"/><path d="M365.72,464.68l52.08-2.86c14.89-.82,29.09-2.19,42.45-9.39,5.78-3.12,11.67-7,15.73-12.25s6.12-11.92,8.28-18.27c4.57-13.39,11.16-27,23.94-34.22,3.36-1.9.34-7.09-3-5.18-10.91,6.17-18,16.55-22.88,27.85-2.49,5.77-4.2,11.78-6.47,17.63-3.08,8-8.36,13.19-15.62,17.56-13.8,8.3-28.62,9.51-44.33,10.37l-50.15,2.76c-3.84.21-3.86,6.21,0,6Z" transform="translate(-24.85 -103.24)"/><path d="M718.79,528.87c13.49,2.69,20.25,15.29,27.44,25.68,6.27,9.05,14.1,17.63,25.39,19.76,3.78.71,5.4-5.07,1.6-5.79C759.68,566,752.86,553.4,745.68,543c-6.26-9.07-14-17.67-25.3-19.92-3.77-.75-5.38,5-1.59,5.79Z" transform="translate(-24.85 -103.24)"/><path d="M565.47,522.3c16.68-.77,33.4-1.54,50.1-.75a204.51,204.51,0,0,1,25.9,2.72c8.09,1.43,16,3.74,24,5.42a123,123,0,0,0,83.85-12.56c3.39-1.85.37-7-3-5.18-26.64,14.52-56.89,17.55-86.18,10.35a230.86,230.86,0,0,0-45.51-6.79c-16.38-.71-32.78,0-49.14.79-3.85.18-3.87,6.18,0,6Z" transform="translate(-24.85 -103.24)"/><path d="M375.45,540.32c31.07-9.88,63.87-8,95.91-11.58a217.92,217.92,0,0,0,22.17-3.49c7.71-1.67,15.13-4.37,22.81-6.1,17.27-3.9,35,.33,51.8,4.35,3.76.9,5.36-4.89,1.6-5.78-16.15-3.86-32.86-7.75-49.55-5.35-7.86,1.13-15.31,3.92-23,5.86a190.17,190.17,0,0,1-25.85,4.51c-32.56,3.59-65.93,1.75-97.5,11.8-3.67,1.16-2.1,7,1.59,5.78Z" transform="translate(-24.85 -103.24)"/><path d="M531.65,603.47c25.27,2.93,51.53,5.35,75.36-5.51,3.51-1.6.46-6.77-3-5.18-22.68,10.33-48.35,7.47-72.33,4.69-3.83-.44-3.8,5.56,0,6Z" transform="translate(-24.85 -103.24)"/><path d="M576.31,594.79C589,597,599.44,587,611.87,588.63c3.82.5,3.78-5.5,0-6-12-1.56-22.23,8.42-34,6.38-3.78-.66-5.4,5.12-1.6,5.78Z" transform="translate(-24.85 -103.24)"/><path d="M583,587.82q10.77-.26,21.52.15c3.86.15,3.86-5.85,0-6q-10.75-.4-21.52-.15c-3.85.09-3.87,6.1,0,6Z" transform="translate(-24.85 -103.24)"/><path d="M628,587.38a60.76,60.76,0,0,1,51.85,23.09c2.33,3,7.54,0,5.18-3a66.84,66.84,0,0,0-57-26.06c-3.83.25-3.86,6.25,0,6Z" transform="translate(-24.85 -103.24)"/><path d="M670.51,614.58a107.62,107.62,0,0,0,21.82-.93c3.81-.53,2.19-6.31-1.59-5.78a100.64,100.64,0,0,1-20.23.71c-3.86-.24-3.84,5.76,0,6Z" transform="translate(-24.85 -103.24)"/><path d="M684.16,587.13c2.88.33,6,5.33,7.56,7.43a77.83,77.83,0,0,1,5.5,8.33c1.94,3.34,7.12.32,5.18-3A85.34,85.34,0,0,0,694.1,588c-2.79-3.34-5.43-6.35-9.94-6.86-3.83-.44-3.8,5.57,0,6Z" transform="translate(-24.85 -103.24)"/><path d="M683,579.63c25.35,7,45.5,25.41,53.48,50.61,1.16,3.67,7,2.1,5.79-1.59-8.62-27.2-30.28-47.26-57.67-54.81-3.73-1-5.32,4.76-1.6,5.79Z" transform="translate(-24.85 -103.24)"/><path d="M720.34,614.57a70.28,70.28,0,0,1,5.92,13.54c1.16,3.67,7,2.1,5.78-1.6a77,77,0,0,0-6.52-15c-1.91-3.36-7.1-.34-5.18,3Z" transform="translate(-24.85 -103.24)"/><path d="M718.9,581.91h2a3,3,0,0,0,0-6h-2a3,3,0,0,0,0,6Z" transform="translate(-24.85 -103.24)"/><path d="M719,580.67a80.17,80.17,0,0,1,27.38,39.59c1.14,3.68,6.93,2.11,5.79-1.6a85.69,85.69,0,0,0-28.92-42.23c-3-2.36-7.28,1.85-4.25,4.24Z" transform="translate(-24.85 -103.24)"/><path d="M747.13,586a25,25,0,0,1,11.43,19.28c.27,3.83,6.27,3.86,6,0a31.4,31.4,0,0,0-14.4-24.46c-3.25-2.11-6.26,3.08-3,5.18Z" transform="translate(-24.85 -103.24)"/><path d="M569.22,620.55c40.56.8,79,16.76,119.47,18.21,3.87.14,3.86-5.86,0-6-40.49-1.45-78.89-17.41-119.47-18.21-3.86-.08-3.86,5.92,0,6Z" transform="translate(-24.85 -103.24)"/><path d="M596.43,610.7c6.05.37,12.1-.33,18.15,0,7.15.35,12.54,3.38,18.25,7.39,3.16,2.23,6.16-3,3-5.18-5.58-3.93-11-7.06-17.88-7.92-7.16-.89-14.38.19-21.55-.25-3.86-.24-3.85,5.76,0,6Z" transform="translate(-24.85 -103.24)"/><path d="M537,628.28c6.83,9.77,18,12.27,29.11,14,3.77.57,5.4-5.22,1.59-5.79-9.26-1.39-19.75-2.93-25.52-11.19-2.2-3.14-7.4-.14-5.18,3Z" transform="translate(-24.85 -103.24)"/><path d="M657.52,656.27c8.51-.88,15.87.81,24.09,2.68,5.94,1.36,12.13,1.52,17.27-2.2,3.1-2.24.1-7.45-3-5.18-5.89,4.27-12.7,1.48-19-.05a56.66,56.66,0,0,0-19.29-1.25c-3.81.39-3.85,6.39,0,6Z" transform="translate(-24.85 -103.24)"/><path d="M656.82,621.19a175.22,175.22,0,0,0,39.58-.4c7.08-.8,12.39,0,17.07,5.83,3.9,4.84,6.63,11.56,3.95,17.61-1.56,3.5,3.61,6.56,5.18,3,5.07-11.45-2-27.4-13.88-31.71-7.38-2.68-16-.12-23.59.37a158.46,158.46,0,0,1-28.31-.73c-3.83-.43-3.8,5.58,0,6Z" transform="translate(-24.85 -103.24)"/><path d="M725.77,627.18a19.15,19.15,0,0,1-2.94,13c-2.06,3.28,3.13,6.29,5.18,3a25.51,25.51,0,0,0,3.54-17.61c-.54-3.81-6.33-2.19-5.78,1.59Z" transform="translate(-24.85 -103.24)"/><path d="M735.39,629.66a25.27,25.27,0,0,1-6.25,15.73c-2.53,2.89,1.7,7.15,4.24,4.24a31.89,31.89,0,0,0,8-20c.16-3.86-5.84-3.85-6,0Z" transform="translate(-24.85 -103.24)"/><path d="M504.22,602.22c-3,13.91-4.2,28.68,8.82,37.79,3.17,2.22,6.17-3,3-5.18-10.49-7.34-8.44-20.15-6.06-31,.82-3.76-5-5.37-5.79-1.59Z" transform="translate(-24.85 -103.24)"/><path d="M498.69,597.3c-2,8.34-1.95,16,4.12,22.63,2.61,2.86,6.84-1.39,4.24-4.24-4.54-5-4-10.68-2.58-16.8.89-3.75-4.89-5.36-5.78-1.59Z" transform="translate(-24.85 -103.24)"/><path d="M501.17,609.84a42.49,42.49,0,0,0-10.49,1.88c-3.67,1.16-2.11,6.95,1.59,5.79a36,36,0,0,1,8.9-1.67c3.84-.22,3.86-6.22,0-6Z" transform="translate(-24.85 -103.24)"/></svg>